<svg xmlns="http://www.w3.org/2000/svg" viewBox="0 0 65.06 65.06"><path d="M14.5,12.74c0-.8,0-1.5,0-2.21,0-1,.58-1.65,1.41-1.65s1.38.65,1.4,1.66c0,.7,0,1.41,0,2.15h8.27V10.58c0-1.05.58-1.72,1.44-1.7s1.36.66,1.37,1.68c0,.69,0,1.38,0,2.12h8.28c0-.72,0-1.42,0-2.13,0-1,.55-1.66,1.38-1.67s1.41.64,1.42,1.64c0,.7,0,1.41,0,2.17h8.27c0-.69,0-1.39,0-2.09,0-1.06.56-1.72,1.41-1.72s1.39.66,1.4,1.74v2a20.61,20.61,0,0,1,2.26.21,4,4,0,0,1,3.35,4q0,17.58,0,35.15A4.08,4.08,0,0,1,52,56.16q-19.5,0-39,0A4.09,4.09,0,0,1,8.89,52q0-17.51,0-35a4.17,4.17,0,0,1,4.16-4.21C13.49,12.72,13.94,12.74,14.5,12.74ZM11.68,26.66V51.57c0,1.41.39,1.8,1.79,1.8H51.59c1.39,0,1.78-.39,1.78-1.8V26.66ZM28.39,15.57v1.17c0,.39,0,.78,0,1.18a1.4,1.4,0,1,1-2.8,0c0-.78,0-1.55,0-2.31H17.31v2.1c0,1.09-.51,1.7-1.4,1.71s-1.4-.62-1.41-1.7c0-.71,0-1.41,0-2.16H13.37c-1.23,0-1.68.47-1.69,1.71v6.52H53.37c0-2.33,0-4.6,0-6.86a1.29,1.29,0,0,0-1.21-1.35c-.5,0-1,0-1.47,0l-.1.11,0,2.14c0,1-.55,1.57-1.38,1.59s-1.41-.59-1.43-1.61c0-.73,0-1.46,0-2.19H39.48v1.09c0,.37,0,.74,0,1.11,0,1-.56,1.61-1.43,1.6a1.41,1.41,0,0,1-1.37-1.59c0-.73,0-1.47,0-2.23Z" style="fill:#56b8eb"/><path d="M33.11,40.06c0-1,0-2,0-3a5,5,0,0,1,9.92,0c0,2,0,3.94,0,5.91a5,5,0,0,1-9.91,0C33.1,42,33.11,41,33.11,40.06ZM40.27,40V37.26a2.2,2.2,0,1,0-4.39,0c0,1.84,0,3.69,0,5.54a2.19,2.19,0,1,0,4.38,0C40.28,41.87,40.27,40.93,40.27,40Z" style="fill:#56b8eb"/><path d="M30,40a4.63,4.63,0,0,1,1,4.93A4.6,4.6,0,0,1,22,43.46a1.42,1.42,0,0,1,1.26-1.61,1.45,1.45,0,0,1,1.5,1.41,1.84,1.84,0,1,0,2-1.86c-1-.14-1.44-.5-1.52-1.21-.1-.87.45-1.48,1.44-1.6a1.79,1.79,0,0,0,1.75-1.74A1.86,1.86,0,0,0,26.93,35a1.89,1.89,0,0,0-2.12,1.5,1.39,1.39,0,1,1-2.67-.76,4.61,4.61,0,1,1,8.17,3.85C30.21,39.68,30.1,39.81,30,40Z" style="fill:#56b8eb"/></svg>