<svg width="233" height="66" viewBox="0 0 233 66" fill="none" xmlns="http://www.w3.org/2000/svg">
<rect width="232.248" height="65.9469" rx="32.9734" fill="white"/>
<path d="M51.8332 14.4012C52.5987 13.5112 53.1824 12.4773 53.5508 11.359C53.9191 10.2407 54.0648 9.06004 53.9796 7.88477C51.6294 8.07615 49.4478 9.19124 47.9048 10.9898C47.1659 11.8518 46.606 12.8546 46.2582 13.9389C45.9103 15.0231 45.7817 16.1667 45.8799 17.302C47.0263 17.3116 48.1595 17.055 49.1919 16.552C50.2242 16.049 51.128 15.3131 51.8332 14.4012ZM56.936 29.5996C56.9496 28.0343 57.3583 26.4982 58.1236 25.1365C58.8889 23.7747 59.9855 22.6322 61.3099 21.8166C60.474 20.6016 59.3691 19.5998 58.0826 18.8906C56.7962 18.1815 55.3637 17.7844 53.8986 17.731C50.7397 17.4041 47.8238 19.5899 46.1431 19.5899C44.4624 19.5899 42.0933 17.7718 39.4608 17.8127C37.7399 17.8699 36.063 18.3761 34.5938 19.2818C33.1246 20.1876 31.9131 21.4621 31.0776 22.9809C27.5137 29.2319 30.1664 38.5265 33.7303 43.5722C35.3502 46.044 37.3752 48.8426 40.0481 48.7405C42.721 48.6383 43.5917 47.0654 46.6899 47.0654C49.788 47.0654 50.7397 48.7405 53.3721 48.6792C56.0046 48.6179 57.8675 46.1461 59.5684 43.6744C60.7734 41.8798 61.7146 39.9189 62.3629 37.8524C60.758 37.162 59.3889 36.0124 58.4244 34.5458C57.46 33.0791 56.9426 31.3596 56.936 29.5996Z" fill="#009FE3"/>
<path d="M79.4115 45.4064H71.9022L70.6119 49.0708H67.5411L73.9666 31.1103H77.3729L83.7984 49.0708H80.7018L79.4115 45.4064ZM78.5858 43.0066L75.6698 34.6714L72.7279 43.0066H78.5858ZM89.5341 36.9423C90.033 36.2886 90.7125 35.7381 91.5727 35.2908C92.4329 34.8435 93.4049 34.6198 94.4887 34.6198C95.7273 34.6198 96.8542 34.9295 97.8692 35.5488C98.9014 36.1509 99.71 37.0025 100.295 38.1035C100.88 39.2046 101.172 40.469 101.172 41.8969C101.172 43.3248 100.88 44.6065 100.295 45.7419C99.71 46.8601 98.9014 47.7375 97.8692 48.3741C96.8542 48.9934 95.7273 49.303 94.4887 49.303C93.4049 49.303 92.4415 49.088 91.5985 48.6579C90.7555 48.2106 90.0674 47.6601 89.5341 47.0064V55.8318H86.5923V34.8521H89.5341V36.9423ZM98.1788 41.8969C98.1788 40.9163 97.9724 40.0733 97.5595 39.368C97.1638 38.6455 96.6305 38.1035 95.9596 37.7423C95.3058 37.3638 94.6005 37.1746 93.8435 37.1746C93.1038 37.1746 92.3984 37.3638 91.7275 37.7423C91.0738 38.1207 90.5405 38.6713 90.1276 39.3938C89.7319 40.1164 89.5341 40.9679 89.5341 41.9485C89.5341 42.9291 89.7319 43.7893 90.1276 44.5291C90.5405 45.2516 91.0738 45.8021 91.7275 46.1806C92.3984 46.5591 93.1038 46.7483 93.8435 46.7483C94.6005 46.7483 95.3058 46.5591 95.9596 46.1806C96.6305 45.7849 97.1638 45.2172 97.5595 44.4775C97.9724 43.7377 98.1788 42.8775 98.1788 41.8969ZM107.023 36.9423C107.522 36.2886 108.202 35.7381 109.062 35.2908C109.922 34.8435 110.894 34.6198 111.978 34.6198C113.216 34.6198 114.343 34.9295 115.358 35.5488C116.391 36.1509 117.199 37.0025 117.784 38.1035C118.369 39.2046 118.661 40.469 118.661 41.8969C118.661 43.3248 118.369 44.6065 117.784 45.7419C117.199 46.8601 116.391 47.7375 115.358 48.3741C114.343 48.9934 113.216 49.303 111.978 49.303C110.894 49.303 109.931 49.088 109.088 48.6579C108.245 48.2106 107.557 47.6601 107.023 47.0064V55.8318H104.081V34.8521H107.023V36.9423ZM115.668 41.8969C115.668 40.9163 115.462 40.0733 115.049 39.368C114.653 38.6455 114.12 38.1035 113.449 37.7423C112.795 37.3638 112.09 37.1746 111.333 37.1746C110.593 37.1746 109.888 37.3638 109.217 37.7423C108.563 38.1207 108.03 38.6713 107.617 39.3938C107.221 40.1164 107.023 40.9679 107.023 41.9485C107.023 42.9291 107.221 43.7893 107.617 44.5291C108.03 45.2516 108.563 45.8021 109.217 46.1806C109.888 46.5591 110.593 46.7483 111.333 46.7483C112.09 46.7483 112.795 46.5591 113.449 46.1806C114.12 45.7849 114.653 45.2172 115.049 44.4775C115.462 43.7377 115.668 42.8775 115.668 41.8969ZM134.183 49.2514C132.979 49.2514 131.895 49.045 130.932 48.6321C129.968 48.202 129.211 47.5999 128.661 46.8257C128.11 46.0516 127.835 45.1484 127.835 44.1162H130.983C131.052 44.8903 131.353 45.5269 131.887 46.0258C132.437 46.5247 133.203 46.7741 134.183 46.7741C135.198 46.7741 135.99 46.5333 136.557 46.0516C137.125 45.5527 137.409 44.9161 137.409 44.142C137.409 43.5399 137.228 43.0496 136.867 42.6711C136.523 42.2926 136.084 42.0001 135.551 41.7937C135.035 41.5873 134.312 41.3636 133.383 41.1228C132.213 40.8131 131.259 40.5034 130.519 40.1938C129.796 39.8669 129.177 39.368 128.661 38.6971C128.145 38.0261 127.887 37.1315 127.887 36.0133C127.887 34.9811 128.145 34.0779 128.661 33.3038C129.177 32.5296 129.9 31.9361 130.829 31.5232C131.758 31.1103 132.833 30.9039 134.054 30.9039C135.792 30.9039 137.211 31.3426 138.312 32.2199C139.43 33.0801 140.05 34.2672 140.17 35.7811H136.919C136.867 35.1273 136.557 34.5682 135.99 34.1037C135.422 33.6392 134.674 33.407 133.745 33.407C132.902 33.407 132.213 33.622 131.68 34.0521C131.147 34.4822 130.88 35.1015 130.88 35.9101C130.88 36.4606 131.044 36.9165 131.371 37.2778C131.715 37.6218 132.145 37.8971 132.661 38.1035C133.177 38.31 133.882 38.5336 134.777 38.7745C135.964 39.1013 136.927 39.4282 137.667 39.7551C138.424 40.082 139.06 40.5895 139.577 41.2776C140.11 41.9485 140.377 42.8517 140.377 43.9872C140.377 44.8989 140.127 45.7591 139.628 46.5677C139.147 47.3763 138.433 48.03 137.486 48.5289C136.557 49.0106 135.456 49.2514 134.183 49.2514ZM147.28 37.252V45.1226C147.28 45.6559 147.4 46.043 147.641 46.2838C147.899 46.5075 148.329 46.6193 148.931 46.6193H150.738V49.0708H148.415C147.091 49.0708 146.076 48.7611 145.37 48.1418C144.665 47.5225 144.312 46.5161 144.312 45.1226V37.252H142.635V34.8521H144.312V31.3167H147.28V34.8521H150.738V37.252H147.28ZM159.617 49.303C158.275 49.303 157.062 49.002 155.978 48.3999C154.894 47.7805 154.043 46.9204 153.423 45.8193C152.804 44.7011 152.494 43.4108 152.494 41.9485C152.494 40.5034 152.813 39.2218 153.449 38.1035C154.086 36.9853 154.954 36.1251 156.056 35.523C157.157 34.9209 158.387 34.6198 159.746 34.6198C161.105 34.6198 162.335 34.9209 163.436 35.523C164.537 36.1251 165.406 36.9853 166.042 38.1035C166.679 39.2218 166.997 40.5034 166.997 41.9485C166.997 43.3936 166.67 44.6753 166.016 45.7935C165.363 46.9118 164.468 47.7805 163.333 48.3999C162.214 49.002 160.976 49.303 159.617 49.303ZM159.617 46.7483C160.374 46.7483 161.079 46.5677 161.733 46.2064C162.404 45.8451 162.946 45.3032 163.358 44.5807C163.771 43.8581 163.978 42.9807 163.978 41.9485C163.978 40.9163 163.78 40.0475 163.384 39.3422C162.989 38.6196 162.464 38.0777 161.81 37.7165C161.156 37.3552 160.451 37.1746 159.694 37.1746C158.937 37.1746 158.232 37.3552 157.578 37.7165C156.941 38.0777 156.434 38.6196 156.056 39.3422C155.677 40.0475 155.488 40.9163 155.488 41.9485C155.488 43.4796 155.875 44.6667 156.649 45.5097C157.44 46.3354 158.43 46.7483 159.617 46.7483ZM172.847 36.9165C173.277 36.194 173.845 35.6348 174.55 35.2392C175.273 34.8263 176.124 34.6198 177.105 34.6198V37.6649H176.356C175.204 37.6649 174.326 37.9573 173.724 38.5422C173.139 39.1272 172.847 40.1422 172.847 41.5873V49.0708H169.905V34.8521H172.847V36.9165ZM192.841 41.6131C192.841 42.1464 192.806 42.6281 192.737 43.0582H181.873C181.959 44.1936 182.381 45.1054 183.138 45.7935C183.895 46.4817 184.824 46.8257 185.925 46.8257C187.507 46.8257 188.626 46.1634 189.279 44.8387H192.454C192.023 46.1462 191.241 47.2214 190.105 48.0644C188.987 48.8902 187.594 49.303 185.925 49.303C184.566 49.303 183.344 49.002 182.26 48.3999C181.194 47.7805 180.351 46.9204 179.731 45.8193C179.129 44.7011 178.828 43.4108 178.828 41.9485C178.828 40.4862 179.121 39.2046 179.706 38.1035C180.308 36.9853 181.142 36.1251 182.209 35.523C183.293 34.9209 184.531 34.6198 185.925 34.6198C187.267 34.6198 188.462 34.9123 189.512 35.4972C190.561 36.0821 191.378 36.9079 191.963 37.9745C192.548 39.0239 192.841 40.2368 192.841 41.6131ZM189.77 40.6841C189.753 39.6003 189.365 38.7315 188.609 38.0777C187.852 37.424 186.914 37.0971 185.796 37.0971C184.781 37.0971 183.912 37.424 183.189 38.0777C182.467 38.7143 182.037 39.583 181.899 40.6841H189.77Z" fill="#009FE3"/>
<path d="M70.1273 16.4983C70.9761 16.4983 71.7177 16.6627 72.3523 16.9914C72.9946 17.3126 73.4878 17.779 73.8318 18.3907C74.1836 18.9947 74.3594 19.7019 74.3594 20.5124C74.3594 21.3229 74.1836 22.0263 73.8318 22.6227C73.4878 23.2191 72.9946 23.6779 72.3523 23.999C71.7177 24.3125 70.9761 24.4692 70.1273 24.4692H67.5239V16.4983H70.1273ZM70.1273 23.4026C71.0602 23.4026 71.7751 23.1503 72.2721 22.6457C72.769 22.141 73.0175 21.4299 73.0175 20.5124C73.0175 19.5873 72.769 18.8647 72.2721 18.3448C71.7751 17.8248 71.0602 17.5649 70.1273 17.5649H68.8313V23.4026H70.1273ZM78.3963 24.5725C77.7999 24.5725 77.2609 24.4387 76.7792 24.171C76.2975 23.8958 75.919 23.5135 75.6438 23.0241C75.3685 22.5271 75.2309 21.9537 75.2309 21.3038C75.2309 20.6615 75.3723 20.0919 75.6552 19.5949C75.9381 19.0979 76.3243 18.7156 76.8136 18.448C77.303 18.1804 77.8496 18.0466 78.4537 18.0466C79.0577 18.0466 79.6044 18.1804 80.0937 18.448C80.5831 18.7156 80.9692 19.0979 81.2521 19.5949C81.535 20.0919 81.6765 20.6615 81.6765 21.3038C81.6765 21.9461 81.5312 22.5157 81.2407 23.0127C80.9501 23.5097 80.5525 23.8958 80.0479 24.171C79.5509 24.4387 79.0004 24.5725 78.3963 24.5725ZM78.3963 23.437C78.7328 23.437 79.0462 23.3567 79.3368 23.1962C79.635 23.0356 79.8758 22.7948 80.0593 22.4736C80.2428 22.1525 80.3346 21.7625 80.3346 21.3038C80.3346 20.845 80.2467 20.4589 80.0708 20.1454C79.895 19.8243 79.6617 19.5834 79.3712 19.4229C79.0807 19.2623 78.7672 19.182 78.4307 19.182C78.0943 19.182 77.7808 19.2623 77.4903 19.4229C77.2074 19.5834 76.9818 19.8243 76.8136 20.1454C76.6454 20.4589 76.5613 20.845 76.5613 21.3038C76.5613 21.9843 76.7333 22.5119 77.0774 22.8865C77.4291 23.2535 77.8688 23.437 78.3963 23.437ZM91.4561 18.1498L89.4949 24.4692H88.1186L86.8455 19.8013L85.5724 24.4692H84.1962L82.2235 18.1498H83.5539L84.8728 23.2306L86.2147 18.1498H87.5795L88.8641 23.2076L90.1715 18.1498H91.4561ZM95.6216 18.0466C96.1185 18.0466 96.562 18.1498 96.952 18.3562C97.3496 18.5627 97.6592 18.8685 97.881 19.2738C98.1027 19.679 98.2136 20.1684 98.2136 20.7418V24.4692H96.9176V20.9368C96.9176 20.371 96.7761 19.939 96.4932 19.6408C96.2103 19.3349 95.8242 19.182 95.3348 19.182C94.8455 19.182 94.4555 19.3349 94.165 19.6408C93.8821 19.939 93.7406 20.371 93.7406 20.9368V24.4692H92.4332V18.1498H93.7406V18.8724C93.9547 18.6124 94.2262 18.4098 94.5549 18.2645C94.8914 18.1192 95.2469 18.0466 95.6216 18.0466ZM101.189 15.9822V24.4692H99.8813V15.9822H101.189ZM105.646 24.5725C105.05 24.5725 104.511 24.4387 104.029 24.171C103.548 23.8958 103.169 23.5135 102.894 23.0241C102.619 22.5271 102.481 21.9537 102.481 21.3038C102.481 20.6615 102.622 20.0919 102.905 19.5949C103.188 19.0979 103.574 18.7156 104.064 18.448C104.553 18.1804 105.1 18.0466 105.704 18.0466C106.308 18.0466 106.855 18.1804 107.344 18.448C107.833 18.7156 108.219 19.0979 108.502 19.5949C108.785 20.0919 108.927 20.6615 108.927 21.3038C108.927 21.9461 108.781 22.5157 108.491 23.0127C108.2 23.5097 107.803 23.8958 107.298 24.171C106.801 24.4387 106.251 24.5725 105.646 24.5725ZM105.646 23.437C105.983 23.437 106.296 23.3567 106.587 23.1962C106.885 23.0356 107.126 22.7948 107.309 22.4736C107.493 22.1525 107.585 21.7625 107.585 21.3038C107.585 20.845 107.497 20.4589 107.321 20.1454C107.145 19.8243 106.912 19.5834 106.621 19.4229C106.331 19.2623 106.017 19.182 105.681 19.182C105.344 19.182 105.031 19.2623 104.74 19.4229C104.458 19.5834 104.232 19.8243 104.064 20.1454C103.896 20.4589 103.811 20.845 103.811 21.3038C103.811 21.9843 103.983 22.5119 104.328 22.8865C104.679 23.2535 105.119 23.437 105.646 23.437ZM109.783 21.2808C109.783 20.6462 109.913 20.0842 110.173 19.5949C110.441 19.1056 110.8 18.7271 111.251 18.4595C111.71 18.1842 112.215 18.0466 112.765 18.0466C113.262 18.0466 113.694 18.146 114.061 18.3448C114.436 18.5359 114.734 18.7768 114.956 19.0673V18.1498H116.275V24.4692H114.956V23.5288C114.734 23.827 114.432 24.0755 114.05 24.2743C113.667 24.4731 113.232 24.5725 112.742 24.5725C112.199 24.5725 111.702 24.4348 111.251 24.1596C110.8 23.8767 110.441 23.4867 110.173 22.9897C109.913 22.4851 109.783 21.9155 109.783 21.2808ZM114.956 21.3038C114.956 20.868 114.864 20.4895 114.681 20.1684C114.505 19.8472 114.272 19.6025 113.981 19.4343C113.69 19.2661 113.377 19.182 113.04 19.182C112.704 19.182 112.391 19.2661 112.1 19.4343C111.809 19.5949 111.572 19.8358 111.389 20.1569C111.213 20.4704 111.125 20.845 111.125 21.2808C111.125 21.7167 111.213 22.099 111.389 22.4278C111.572 22.7565 111.809 23.0088 112.1 23.1847C112.398 23.3529 112.712 23.437 113.04 23.437C113.377 23.437 113.69 23.3529 113.981 23.1847C114.272 23.0165 114.505 22.7718 114.681 22.4507C114.864 22.1219 114.956 21.7396 114.956 21.3038ZM117.556 21.2808C117.556 20.6462 117.686 20.0842 117.946 19.5949C118.214 19.1056 118.573 18.7271 119.024 18.4595C119.483 18.1842 119.992 18.0466 120.55 18.0466C120.963 18.0466 121.368 18.1383 121.765 18.3218C122.171 18.4977 122.492 18.7347 122.729 19.0329V15.9822H124.048V24.4692H122.729V23.5173C122.515 23.8231 122.216 24.0755 121.834 24.2743C121.46 24.4731 121.028 24.5725 120.538 24.5725C119.988 24.5725 119.483 24.4348 119.024 24.1596C118.573 23.8767 118.214 23.4867 117.946 22.9897C117.686 22.4851 117.556 21.9155 117.556 21.2808ZM122.729 21.3038C122.729 20.868 122.637 20.4895 122.454 20.1684C122.278 19.8472 122.044 19.6025 121.754 19.4343C121.463 19.2661 121.15 19.182 120.813 19.182C120.477 19.182 120.164 19.2661 119.873 19.4343C119.582 19.5949 119.345 19.8358 119.162 20.1569C118.986 20.4704 118.898 20.845 118.898 21.2808C118.898 21.7167 118.986 22.099 119.162 22.4278C119.345 22.7565 119.582 23.0088 119.873 23.1847C120.171 23.3529 120.485 23.437 120.813 23.437C121.15 23.437 121.463 23.3529 121.754 23.1847C122.044 23.0165 122.278 22.7718 122.454 22.4507C122.637 22.1219 122.729 21.7396 122.729 21.3038ZM131.485 24.5725C130.889 24.5725 130.35 24.4387 129.868 24.171C129.387 23.8958 129.008 23.5135 128.733 23.0241C128.458 22.5271 128.32 21.9537 128.32 21.3038C128.32 20.6615 128.461 20.0919 128.744 19.5949C129.027 19.0979 129.413 18.7156 129.903 18.448C130.392 18.1804 130.939 18.0466 131.543 18.0466C132.147 18.0466 132.693 18.1804 133.183 18.448C133.672 18.7156 134.058 19.0979 134.341 19.5949C134.624 20.0919 134.766 20.6615 134.766 21.3038C134.766 21.9461 134.62 22.5157 134.33 23.0127C134.039 23.5097 133.642 23.8958 133.137 24.171C132.64 24.4387 132.089 24.5725 131.485 24.5725ZM131.485 23.437C131.822 23.437 132.135 23.3567 132.426 23.1962C132.724 23.0356 132.965 22.7948 133.148 22.4736C133.332 22.1525 133.424 21.7625 133.424 21.3038C133.424 20.845 133.336 20.4589 133.16 20.1454C132.984 19.8243 132.751 19.5834 132.46 19.4229C132.17 19.2623 131.856 19.182 131.52 19.182C131.183 19.182 130.87 19.2623 130.579 19.4229C130.296 19.5834 130.071 19.8243 129.903 20.1454C129.734 20.4589 129.65 20.845 129.65 21.3038C129.65 21.9843 129.822 22.5119 130.166 22.8865C130.518 23.2535 130.958 23.437 131.485 23.437ZM139.246 18.0466C139.743 18.0466 140.187 18.1498 140.577 18.3562C140.974 18.5627 141.284 18.8685 141.506 19.2738C141.728 19.679 141.838 20.1684 141.838 20.7418V24.4692H140.542V20.9368C140.542 20.371 140.401 19.939 140.118 19.6408C139.835 19.3349 139.449 19.182 138.96 19.182C138.47 19.182 138.08 19.3349 137.79 19.6408C137.507 19.939 137.365 20.371 137.365 20.9368V24.4692H136.058V18.1498H137.365V18.8724C137.58 18.6124 137.851 18.4098 138.18 18.2645C138.516 18.1192 138.872 18.0466 139.246 18.0466ZM148.011 19.2164V22.7145C148.011 22.9515 148.064 23.1235 148.171 23.2306C148.286 23.33 148.477 23.3797 148.745 23.3797H149.548V24.4692H148.515C147.927 24.4692 147.476 24.3316 147.162 24.0564C146.849 23.7811 146.692 23.3338 146.692 22.7145V19.2164H145.946V18.1498H146.692V16.5785H148.011V18.1498H149.548V19.2164H148.011ZM154.021 18.0466C154.503 18.0466 154.931 18.1498 155.306 18.3562C155.688 18.5627 155.986 18.8685 156.201 19.2738C156.422 19.679 156.533 20.1684 156.533 20.7418V24.4692H155.237V20.9368C155.237 20.371 155.096 19.939 154.813 19.6408C154.53 19.3349 154.144 19.182 153.654 19.182C153.165 19.182 152.775 19.3349 152.485 19.6408C152.202 19.939 152.06 20.371 152.06 20.9368V24.4692H150.753V15.9822H152.06V18.8838C152.282 18.6162 152.561 18.4098 152.897 18.2645C153.241 18.1192 153.616 18.0466 154.021 18.0466ZM163.993 21.1547C163.993 21.3917 163.977 21.6058 163.947 21.797H159.118C159.157 22.3016 159.344 22.7068 159.68 23.0127C160.017 23.3185 160.43 23.4714 160.919 23.4714C161.622 23.4714 162.119 23.1771 162.41 22.5883H163.821C163.63 23.1694 163.282 23.6473 162.777 24.0219C162.28 24.389 161.661 24.5725 160.919 24.5725C160.315 24.5725 159.772 24.4387 159.29 24.171C158.816 23.8958 158.442 23.5135 158.166 23.0241C157.899 22.5271 157.765 21.9537 157.765 21.3038C157.765 20.6539 157.895 20.0842 158.155 19.5949C158.423 19.0979 158.793 18.7156 159.267 18.448C159.749 18.1804 160.3 18.0466 160.919 18.0466C161.515 18.0466 162.047 18.1766 162.513 18.4365C162.98 18.6965 163.343 19.0635 163.603 19.5376C163.863 20.004 163.993 20.543 163.993 21.1547ZM162.628 20.7418C162.62 20.2601 162.448 19.874 162.112 19.5834C161.775 19.2929 161.359 19.1476 160.862 19.1476C160.411 19.1476 160.024 19.2929 159.703 19.5834C159.382 19.8663 159.191 20.2525 159.13 20.7418H162.628Z" fill="#009FE3"/>
</svg>
