<svg width="58" height="120" viewBox="0 0 58 120" fill="none" xmlns="http://www.w3.org/2000/svg">
<g clip-path="url(#clip0_12_22)">
<path d="M36.6611 1.22048C40.5344 2.47456 44.1224 4.48512 47.2187 7.13645C50.3149 9.78779 52.8583 13.0276 54.7026 16.6694C56.5468 20.3112 57.6554 24.2831 57.9646 28.3566C58.2738 32.4302 57.7775 36.5249 56.5043 40.4051C51.7522 55.3609 37.4334 63.8553 22.4908 63.4507C22.6219 63.5175 22.7305 63.6218 22.8027 63.7504C23.6358 65.6413 24.299 67.6031 24.7842 69.6125C24.8265 69.77 24.8325 69.9351 24.8018 70.0952C24.771 70.2554 24.7044 70.4065 24.6069 70.537C24.5094 70.6675 24.3836 70.774 24.239 70.8484C24.0944 70.9229 23.9349 70.9633 23.7724 70.9667C22.5195 70.8922 21.2834 70.7974 20.0473 70.728C20.079 70.8455 20.0697 70.9704 20.0209 71.0819C19.9721 71.1934 19.8868 71.2847 19.7791 71.3408C8.54473 77.0387 23.5329 90.0495 23.4891 98.141C23.4436 105.349 8.91744 111.839 13.0152 118.675C13.5211 119.497 12.2547 120.513 11.6443 119.721C10.6051 118.503 10.0157 116.962 9.97512 115.359C9.93458 113.756 10.4454 112.188 11.4216 110.918C12.446 109.528 13.6655 108.294 15.0422 107.255C19.0203 103.905 18.9309 104.951 20.1012 99.4022C21.0709 94.7961 20.7421 93.8159 18.597 89.9801C15.5279 84.4311 9.92586 74.1424 18.2985 70.6282C16.3019 70.508 14.3053 70.403 12.3104 70.2693C12.1279 70.2679 11.9489 70.2188 11.791 70.1268C11.6332 70.0348 11.502 69.9032 11.4102 69.7448C11.3185 69.5864 11.2694 69.4068 11.2679 69.2236C11.2663 69.0404 11.3124 68.86 11.4014 68.7001C12.7462 66.4628 14.3517 64.3943 16.1839 62.5383C0.669541 58.8734 -1.69134 36.0377 0.897192 22.6664C1.70013 18.8212 3.28781 15.1847 5.56015 11.986C7.8325 8.78724 10.7403 6.09567 14.1002 4.08088C17.4601 2.06609 21.1994 0.771758 25.0823 0.27946C28.9652 -0.212839 32.9077 0.107567 36.6611 1.22048ZM54.1063 39.7449C56.4649 32.7034 56.0057 25.0174 52.8257 18.3093C49.6457 11.6012 43.9936 6.39577 37.0625 3.79183C33.6663 2.62307 30.0656 2.17386 26.4878 2.47258C22.91 2.77131 19.4327 3.81147 16.2756 5.52738C13.1185 7.24329 10.3501 9.59768 8.14519 12.4419C5.94032 15.2861 4.34689 18.5583 3.46551 22.0519C0.337344 35.2726 2.87021 56.2259 17.4402 60.7863C17.5625 60.7588 17.6888 60.7536 17.8129 60.771C33.2783 62.9192 49.1451 55.239 54.1063 39.7449ZM14.1013 68.265C16.8281 68.4343 19.5532 68.5782 22.28 68.7441C21.7401 67.2758 21.3448 65.7581 21.0996 64.2125C21.0818 64.0424 21.1222 63.8713 21.2141 63.7273C21.3061 63.5833 21.4441 63.475 21.6055 63.4203C20.2286 63.3538 18.8562 63.2137 17.4942 63.0005C16.4132 64.7965 15.221 66.5011 14.1013 68.265Z" fill="#222221"/>
<path d="M37.0625 3.79354C43.9933 6.39784 49.6451 11.6033 52.8251 18.3113C56.0051 25.0193 56.4645 32.7051 54.1063 39.7466C49.1451 55.2407 33.2766 62.9074 17.8112 60.7744C17.687 60.757 17.5608 60.7621 17.4385 60.7897C2.86681 56.2293 0.335637 35.276 3.4638 22.0553C4.34496 18.5614 5.93833 15.2888 8.14323 12.4442C10.3481 9.59969 13.1167 7.24501 16.274 5.52891C19.4314 3.8128 22.9089 2.77256 26.487 2.47386C30.0651 2.17517 33.6661 2.62452 37.0625 3.79354Z" fill="#B2D7E8"/>
<path d="M22.2817 68.7509C19.5549 68.5816 16.828 68.4377 14.1029 68.2718C15.2193 66.5062 16.4115 64.8016 17.4992 63.0072C18.8612 63.2205 20.2336 63.3606 21.6105 63.427C21.4491 63.4818 21.3111 63.5901 21.2192 63.7341C21.1272 63.8781 21.0868 64.0492 21.1046 64.2193C21.3487 65.7647 21.7429 67.2825 22.2817 68.7509Z" fill="#B2D7E8"/>
</g>
<defs>
<clipPath id="clip0_12_22">
<rect width="58" height="120" fill="white"/>
</clipPath>
</defs>
</svg>
