<svg xmlns="http://www.w3.org/2000/svg" viewBox="0 0 65.06 65.06"><path d="M13.47,44.17C8.81,41.11,6.82,36.93,8.6,31.54a9.47,9.47,0,0,1,9-6.83c5.62-.31,9.12,2.67,10.87,7.87.87-.8,1.68-1.65,2.59-2.38a13.15,13.15,0,0,1,7.92-3,47.06,47.06,0,0,1,8.4.28,9.09,9.09,0,0,1,7.23,8.27c.16,2.25.29,4.52-.92,6.67.33.17.61.3.89.46a4.59,4.59,0,0,1,2.53,3.94c.06,1.24,0,2.49,0,3.73A3.79,3.79,0,0,1,50.53,53a1.19,1.19,0,0,0-1.36-.39c-1.49.35-3,.66-4.49,1a7.3,7.3,0,0,1-6.91-1.82,1.69,1.69,0,0,0-.94-.37c-.88-.05-1.77,0-2.65,0a8.69,8.69,0,0,0-5.92,1.36,9.45,9.45,0,0,1-5.44,1.37q-3.63,0-7.27,0a5.12,5.12,0,0,1-5.19-3.81,5.06,5.06,0,0,1,2.74-5.9Zm39.67,5.75c0-1,0-1.77,0-2.5s-.33-1.2-1.17-1.18c-1.54,0-3.07,0-4.61,0a2,2,0,0,1-.29-3.92c2.58-.46,3.59-1.65,3.61-4.26,0-.43,0-.85,0-1.28A5.61,5.61,0,0,0,44.89,31c-1.5,0-3,0-4.51,0a10.66,10.66,0,0,0-9.84,5.68c-1.29,2.23-2.56,4.48-3.9,6.69a8.62,8.62,0,0,1-7.71,4.41H15.79c-1.08,0-1.71.46-1.68,1.21s.61,1.14,1.65,1.14q3.44,0,6.87,0A8,8,0,0,0,29.19,47a26.08,26.08,0,0,0,1.75-2.82,2,2,0,0,1,3.56,1.62c-.2.52-.43,1-.66,1.56h1.65c.18-1.09.26-2.1.51-3.07.45-1.8,1-3.59,1.51-5.37A2,2,0,1,1,41.28,40c-.51,1.86-1.05,3.71-1.57,5.56a3.27,3.27,0,0,0,3.71,4.23c1.45-.23,2.89-.54,4.31-.91C49.63,48.36,51.46,48.07,53.14,49.92ZM12,35.16a6.29,6.29,0,0,0,5.62,6.13,6.37,6.37,0,0,0,3.2-12.2,6.32,6.32,0,0,0-6.68,1.08c-.44.46-.67,1-.12,1.43.31.23.91.08,1.38,0,.13,0,.25-.2.39-.28A1.9,1.9,0,0,1,18.7,32.8,2.49,2.49,0,0,1,18,34.52C16.24,36.23,14.19,36.26,12,35.16Z" style="fill:#56b8eb"/><path d="M29.49,18.74c-.49,0-1,0-1.47,0a2,2,0,0,1-1.82-1.95A1.89,1.89,0,0,1,28,14.84c1.73-.05,3.46-.07,5.19,0a2.66,2.66,0,0,1,2.48,2A2.67,2.67,0,0,1,34.81,20a26.82,26.82,0,0,0-2.6,2.21c.46,0,.93,0,1.4,0a2,2,0,0,1,2,2,2,2,0,0,1-2,1.91c-1.7,0-3.4,0-5.1,0a2.91,2.91,0,0,1-1.64-5.2c.86-.68,1.78-1.31,2.67-2Z" style="fill:#56b8eb"/><path d="M39.77,14.89c-.43-.05-.69-.05-.94-.11a2,2,0,0,1-1.58-2.07A1.9,1.9,0,0,1,39,10.92a43.44,43.44,0,0,1,4.42,0A2.71,2.71,0,0,1,45.91,13a2.71,2.71,0,0,1-.85,3,16,16,0,0,1-1.53,1.15l.95.15a2,2,0,0,1,1.62,2,1.84,1.84,0,0,1-1.72,1.82,43.52,43.52,0,0,1-4.71,0,2.55,2.55,0,0,1-2.33-2,2.79,2.79,0,0,1,.83-3.13C38.62,15.68,39.12,15.36,39.77,14.89Z" style="fill:#56b8eb"/></svg>