<svg xmlns="http://www.w3.org/2000/svg" viewBox="0 0 65.06 65.06"><path d="M22.55,43.59A19.45,19.45,0,0,1,17,39.78a15.55,15.55,0,0,1-3.74-5.66,1.22,1.22,0,0,0-1.17-.94A4.58,4.58,0,0,1,8,28a3.55,3.55,0,0,1,.56-1.49,3.56,3.56,0,0,0,.59-1.86,18.3,18.3,0,0,1,8.24-13.75A23.11,23.11,0,0,1,33,6.86a23.41,23.41,0,0,1,9.67,3c.26.14.59.25.73.48a1.46,1.46,0,0,1,.31,1c-.17.48-.64.48-1.09.25-1.24-.63-2.45-1.34-3.74-1.84a22,22,0,0,0-23.74,5.09,16.63,16.63,0,0,0-4.51,9.67c0,.21,0,.43,0,.64a1.81,1.81,0,0,0,2.42-1c2.17-4.1,5.4-6.74,10.11-7.31a4,4,0,0,1,1.25.31,10.47,10.47,0,0,1-.33,1.22A19.17,19.17,0,0,0,23,20.91c-.35,1.23.34,2,1.62,2.1a7.63,7.63,0,0,0,4.24-1.31c.25-.15.49-.33.74-.48.73-.41,1.27-.08,1.28.75A7.12,7.12,0,0,0,31,23.64a1.44,1.44,0,0,0,1.92,1.09,6.57,6.57,0,0,0,3.21-2.05A11.9,11.9,0,0,0,38.89,18c.31-1,.56-1.13,1.6-.82a12.61,12.61,0,0,1,8,6.69c.6,1.22,1.39,1.44,2.72,1.37-.21-1.17-.34-2.33-.64-3.44a16.78,16.78,0,0,0-4.66-7.68c-.19-.19-.48-.37-.53-.59a1.27,1.27,0,0,1,.14-.93c.14-.16.58-.13.86-.07s.38.29.55.46a18.28,18.28,0,0,1,5.74,12.15,2,2,0,0,0,.29,1,4.47,4.47,0,0,1-3.17,7,1.37,1.37,0,0,0-1.27,1.05A15.88,15.88,0,0,1,44.59,40l.83.74a2.4,2.4,0,0,0,.32-.24,6.69,6.69,0,0,1,11,7A13.63,13.63,0,0,1,54,52.15a25.87,25.87,0,0,1-6.64,5.55,3.59,3.59,0,0,1-3.74.12,2.48,2.48,0,0,0-1.15-.24c-5.42,0-10.84,0-16.27,0-.26,0-.58.08-.79,0s-.66-.48-.66-.73.4-.54.68-.73.41,0,.63,0H40.92a23.78,23.78,0,0,1-6-6.55,6.34,6.34,0,0,1-6.85.77,6.43,6.43,0,0,1-3.64-5.89c-.33.18-.6.3-.86.46a14,14,0,0,0-6.43,9.06A1.61,1.61,0,0,0,18.83,56c1,0,1.94,0,2.9,0,.53,0,.93.2.95.75s-.4.77-.92.78c-1,0-2,0-3.06,0a3.1,3.1,0,0,1-3-3.91,15.48,15.48,0,0,1,6.19-9.47l.58-.43S22.47,43.71,22.55,43.59ZM40.4,18.67c-.53,1-.93,2-1.47,2.83a10,10,0,0,1-5.2,4.58,3.08,3.08,0,0,1-4.3-2.46,3.28,3.28,0,0,0-.15-.38l-.83.39a8.16,8.16,0,0,1-3.88.89,3.12,3.12,0,0,1-3-4.22c.16-.58.38-1.13.58-1.73-5,1.12-8.74,5.92-8.4,10.79A13.93,13.93,0,0,0,18.32,39c4.31,4,9.45,5.3,15.18,4.64.21,0,.47-.3.57-.53A6.71,6.71,0,0,1,42.77,39a.91.91,0,0,0,.76-.15c3.34-3.21,5-7.15,4.36-11.75C47.28,22.76,44.26,20.3,40.4,18.67ZM55.57,45.91c0-2.85-1.29-4.76-3.47-5.52a5.1,5.1,0,0,0-5.71,1.66c-.89,1.12-1,1.11-2,0a5,5,0,0,0-4.87-1.86,4.91,4.91,0,0,0-4,3.25,6.14,6.14,0,0,0,.71,5.32c1.9,3.53,5,5.85,8.34,7.83a1.75,1.75,0,0,0,1.84-.11,22.42,22.42,0,0,0,7.37-6.6A8.18,8.18,0,0,0,55.57,45.91Zm-21.94-.55L26.11,45A4.53,4.53,0,0,0,29,49c1.68.71,4.05.35,5-.79a.75.75,0,0,0,.11-.57C34,46.85,33.78,46.05,33.63,45.36ZM12.33,26.79c-2.16-.11-2.8.31-2.85,1.79a3,3,0,0,0,2.85,3Zm37.1,0v4.89a3.22,3.22,0,0,0,2.67-2,1.94,1.94,0,0,0-1.75-2.88C50.08,26.75,49.82,26.76,49.43,26.76Z" style="fill:#56b8eb"/><path d="M30.88,32.39a2.57,2.57,0,0,1-2.12-.92c-.19-.23-.08-.71-.11-1.07.36,0,.8-.18,1.06,0C30.82,31,31,31,32,30.4a1.13,1.13,0,0,1,1,0A.64.64,0,0,1,33,31.5a21.86,21.86,0,0,1-2,1.09Z" style="fill:#56b8eb"/><path d="M23.83,30.31c0-.22-.08-.49,0-.63s.47-.65.72-.66.6.37.72.65a3.34,3.34,0,0,1,0,1.1c0,.53-.24,1-.78.86-.29-.06-.51-.54-.72-.85-.07-.12,0-.32,0-.47Z" style="fill:#56b8eb"/><path d="M36.41,30.33c0-.22-.08-.49,0-.63s.47-.67.72-.68.6.38.71.66a3.19,3.19,0,0,1,0,1.12c0,.48-.21.87-.74.86s-.78-.39-.76-.93v-.4Z" style="fill:#56b8eb"/><path d="M43,51.28c-1.56-.28-1.86-.72-1.84-2.65,0-1.46.39-1.91,1.81-2.15.31-1.31.39-2,2.93-1.88,1.17.06,1.61.46,1.91,1.84,1.68.41,1.89.74,1.84,2.86,0,1.27-.42,1.7-1.83,2-.41,1.68-.72,1.88-2.87,1.84C43.75,53.11,43.31,52.7,43,51.28Zm3.09.29c.14-.58.1-1.28.43-1.6s1-.27,1.56-.38V48.06c-1.59-.13-1.59-.13-2-1.9H44.51c.53,1.74-.47,2-1.79,1.88v1.57c1.72.32,1.72.32,2,2Z" style="fill:#56b8eb"/></svg>