<svg xmlns="http://www.w3.org/2000/svg" viewBox="0 0 65.06 65.06"><path d="M4.89,33.82c0-1,0-2.07,0-3.11a2.17,2.17,0,0,1,2.39-2.37c1,0,2,0,3,0a1.23,1.23,0,0,0,1.4-1,31.78,31.78,0,0,1,1.51-3.62,1.19,1.19,0,0,0-.3-1.6c-.78-.73-1.53-1.49-2.26-2.26a2.08,2.08,0,0,1,0-3.16q2.31-2.35,4.65-4.65a2.09,2.09,0,0,1,3.23,0c.79.76,1.57,1.53,2.32,2.32a1.06,1.06,0,0,0,1.39.23c1.27-.58,2.56-1.13,3.87-1.61a1.05,1.05,0,0,0,.8-1.15c0-1.09,0-2.19,0-3.29a2.12,2.12,0,0,1,2.26-2.31q3.3,0,6.58,0A2.12,2.12,0,0,1,38,8.59c0,1.06,0,2.13,0,3.2a1.17,1.17,0,0,0,.94,1.32,38.38,38.38,0,0,1,3.69,1.55,1.12,1.12,0,0,0,1.47-.23c.73-.77,1.49-1.52,2.26-2.27a2.11,2.11,0,0,1,3.29,0q2.31,2.27,4.59,4.59a2.1,2.1,0,0,1,0,3.22c-.76.79-1.54,1.57-2.33,2.33a1.07,1.07,0,0,0-.27,1.38c.59,1.3,1.15,2.62,1.65,3.95a1,1,0,0,0,1.09.75c1.1,0,2.19,0,3.29,0A2.15,2.15,0,0,1,60,30.67q0,3.19,0,6.4a2.17,2.17,0,0,1-2.42,2.35H54.4a1,1,0,0,0-1.14.81c-.47,1.31-1,2.6-1.61,3.87a1.06,1.06,0,0,0,.24,1.38c.79.76,1.57,1.54,2.33,2.33a2.11,2.11,0,0,1,0,3.23c-.65.68-1.34,1.33-2,2-.43.44-.84.53-1.32,0q-3.87-3.89-7.75-7.75c-.57-.56-.32-1,.12-1.48a14.62,14.62,0,0,0,3.85-8.69,14.74,14.74,0,1,0-29.42-1.6,14.29,14.29,0,0,0,3.87,10.25c.83.92.83,1,0,1.85q-3.6,3.64-7.19,7.28c-.79.8-1,.79-1.78,0-.64-.64-1.3-1.28-1.93-1.94a2.09,2.09,0,0,1,0-3.16c.76-.79,1.54-1.57,2.33-2.32a1.13,1.13,0,0,0,.25-1.47c-.58-1.23-1.12-2.49-1.58-3.78a1.11,1.11,0,0,0-1.2-.86c-1.06,0-2.13,0-3.2,0A2.16,2.16,0,0,1,4.9,37C4.88,36,4.89,34.89,4.89,33.82Zm15.61,11A16.3,16.3,0,0,1,21.59,22a16.14,16.14,0,0,1,21-.66,15.54,15.54,0,0,1,5.8,9.85,15.89,15.89,0,0,1-3.77,13.37l7.18,7.21c.45-.5.92-1.07,1.44-1.58a.9.9,0,0,0,0-1.48c-.81-.79-1.61-1.58-2.39-2.39a2.11,2.11,0,0,1-.44-2.67c.57-1.3,1.13-2.62,1.65-3.94a2.18,2.18,0,0,1,2.34-1.64h3.2c.71,0,1.08-.24,1.07-1q0-3.15,0-6.3c0-.75-.33-1-1-1-1.1,0-2.19,0-3.29,0A2.15,2.15,0,0,1,52,28.09c-.52-1.32-1.07-2.64-1.65-3.95a2.11,2.11,0,0,1,.48-2.73c.76-.79,1.54-1.56,2.32-2.32a.9.9,0,0,0,0-1.49c-1.5-1.47-3-3-4.46-4.45a.89.89,0,0,0-1.48,0c-.76.79-1.54,1.56-2.32,2.33A2.13,2.13,0,0,1,42.2,16c-1.33-.58-2.68-1.14-4-1.68a2.12,2.12,0,0,1-1.53-2.13c0-1.13,0-2.26,0-3.38,0-.72-.26-1.07-1-1.06q-3.15,0-6.3,0c-.77,0-1,.35-1,1.06,0,1.07,0,2.13,0,3.2a2.17,2.17,0,0,1-1.63,2.34c-1.33.53-2.64,1.08-3.95,1.65A2.11,2.11,0,0,1,20,15.49c-.76-.74-1.53-1.48-2.26-2.26a1,1,0,0,0-1.61,0q-2.13,2.2-4.33,4.33c-.6.59-.54,1.06,0,1.61.78.73,1.53,1.49,2.27,2.26a2.14,2.14,0,0,1,.47,2.74c-.58,1.3-1.13,2.62-1.65,4a2.16,2.16,0,0,1-2.27,1.6c-1.12,0-2.25,0-3.38,0-.63,0-1,.28-.94.94,0,2.13,0,4.27,0,6.4,0,.69.3,1,1,1h3.1c1.53,0,2.08.44,2.62,1.89.45,1.2.94,2.38,1.47,3.53a2.18,2.18,0,0,1-.49,3c-.75.77-1.5,1.51-2.26,2.26-.39.39-.61.8-.18,1.27.6.65,1.22,1.27,1.75,1.82Z" style="fill:#56b8eb"/><path d="M26.8,51.68c0-2.25,0-4.5,0-6.76a2.37,2.37,0,0,0-.58-1.41c-1.88-1.95-3.82-3.84-5.72-5.77A2.53,2.53,0,0,1,20,34.63a2.45,2.45,0,0,1,2.78-1.26,3.61,3.61,0,0,1,1.53.9c2,1.9,3.91,3.85,5.82,5.81a2.53,2.53,0,0,0,1.67.72,4.17,4.17,0,0,0,3.87-1.62c1.54-1.72,3.24-3.3,4.89-4.92a2.65,2.65,0,0,1,3.89-.21,2.61,2.61,0,0,1-.22,3.89c-1.84,1.86-3.72,3.69-5.53,5.58a2.28,2.28,0,0,0-.58,1.41c0,4.6,0,9.2,0,13.79a2.6,2.6,0,0,1-1.82,2.57,2.43,2.43,0,0,1-2.88-1,4,4,0,0,1-.5-1.8c-.06-1.61,0-3.23,0-4.84,0-.24-.27-.48-.41-.72-.14.24-.4.48-.41.72,0,1.62,0,3.23,0,4.85a2.64,2.64,0,1,1-5.23,0Zm1.4-.33c0,2.41,0,4.81,0,7.22,0,1,.49,1.47,1.27,1.44s1.16-.52,1.17-1.44c0-1.59,0-3.17,0-4.75,0-2.46-.19-2.26,2.28-2.25,1.27,0,1.36.08,1.36,1.33,0,1.89,0,3.78,0,5.67,0,.92.43,1.41,1.17,1.44s1.23-.47,1.27-1.44c0-.24,0-.49,0-.73,0-4.44,0-8.89,0-13.34a2.15,2.15,0,0,1,.71-1.68c2-1.92,3.88-3.87,5.82-5.81.71-.72.79-1.45.24-2s-1.23-.48-2,.26C40,36.79,38.35,38.19,37,39.83a5.76,5.76,0,0,1-5.7,2.33,2.7,2.7,0,0,1-1.76-.73c-2-2.09-4.11-4.15-6.19-6.21-.8-.79-1.82-.71-2.18.17a1.39,1.39,0,0,0,.5,1.62c2,2,3.94,3.9,5.86,5.9a2.53,2.53,0,0,1,.63,1.5C28.23,46.72,28.2,49,28.2,51.35Z" style="fill:#56b8eb"/><path d="M37.41,34.38a5,5,0,1,1-9.9-.06,5,5,0,0,1,9.9.06Zm-4.95,3.56A3.54,3.54,0,0,0,36,34.42a3.57,3.57,0,1,0-3.56,3.52Z" style="fill:#56b8eb"/></svg>