<svg width="153" height="82" viewBox="0 0 153 82" fill="none" xmlns="http://www.w3.org/2000/svg">
<g clip-path="url(#clip0_12_27)">
<path d="M138.7 41.974C153.119 40.3134 158.26 60.3234 146.489 71.2379C132.867 83.8542 108.242 85.6146 95.4675 71.6546C92.6551 74.2913 89.0604 75.9213 85.2382 76.2933C78.8114 76.8625 71.41 74.6854 67.7821 69.3191C64.2094 77.64 55.3941 83.9892 46.218 81.4249C44.1596 80.9983 42.2237 80.1073 40.5554 78.8187C38.8871 77.5301 37.5298 75.8774 36.5851 73.9844C35.6404 72.0914 35.1329 70.0073 35.1007 67.8884C35.0684 65.7694 35.5123 63.6706 36.3989 61.7493C22.981 66.2061 -0.200796 66.5699 0.00285879 48.2704C0.136947 44.7617 1.31778 41.3755 3.39095 38.5545C5.46411 35.7335 8.33313 33.6091 11.6228 32.459C14.8646 31.3057 18.3164 30.8776 21.7387 31.2043C25.161 31.5311 28.4718 32.605 31.4413 34.3514C31.4224 33.1261 31.6651 31.9109 32.153 30.7886C32.641 29.6662 33.3627 28.6629 34.2692 27.8467C35.886 26.4461 37.8931 25.5847 40.0149 25.3808C42.1367 25.177 44.2691 25.6407 46.119 26.7083C42.8809 -2.58201 108.961 -13.6521 110.893 24.0912C117.293 19.2676 127.086 20.8256 133.408 26.1655C135.244 27.5172 136.757 29.2668 137.834 31.2857C138.91 33.3045 139.525 35.5412 139.631 37.8312C139.586 39.2593 139.27 40.6655 138.7 41.974ZM147.568 63.0227C147.413 48.2998 142.769 42.8043 133.635 46.5364C133.439 46.6071 133.228 46.6274 133.022 46.5957C132.816 46.5639 132.621 46.4811 132.454 46.3545C132.164 46.2743 131.899 46.1187 131.686 45.9033C131.474 45.6879 131.321 45.4202 131.243 45.1267C131.165 44.8332 131.165 44.5243 131.242 44.2306C131.319 43.9369 131.471 43.6688 131.683 43.4528C133.917 40.9911 135.756 38.996 134.688 35.3402C133.357 32.0095 130.877 29.2757 127.706 27.6413C125.1 26.0084 122.036 25.2815 118.981 25.5719C115.927 25.8623 113.051 27.1539 110.794 29.2492C110.486 32.1539 105.964 32.1539 106.22 29.2228C109.639 -7.71361 45.38 -0.742387 50.8293 30.5196C51.0358 30.7543 51.2424 31.0125 51.4111 31.2472C52.8251 33.2688 49.587 35.7598 48.0188 33.8879C45.7321 31.1152 42.363 28.6536 38.6129 30.1294C37.8815 30.3809 37.2209 30.8062 36.6868 31.3693C36.1526 31.9324 35.7606 32.6168 35.5438 33.3648C35.327 34.1128 35.2918 34.9023 35.4411 35.6669C35.5904 36.4315 35.9199 37.1486 36.4018 37.7578C36.6068 37.9084 36.8012 38.0731 36.9836 38.2507C37.0834 38.3284 37.1632 38.429 37.2164 38.5441C37.3968 38.6762 37.5248 38.8375 37.7052 38.9344C38.0027 39.1182 38.2248 39.4038 38.331 39.7391C38.4371 40.0743 38.4202 40.4369 38.2833 40.7606C38.1465 41.0844 37.8988 41.3477 37.5854 41.5026C37.272 41.6575 36.9139 41.6936 36.5763 41.6043C34.9089 41.0918 33.4889 39.9744 32.5905 38.4679C27.6515 35.9985 22.0949 35.069 16.6298 35.7979C9.89465 37.0683 3.59885 42.3026 4.67822 49.846C6.78459 64.5689 29.5852 60.4466 38.4529 56.1189C38.7562 55.9678 39.0892 55.8871 39.4274 55.8825C39.7657 55.8779 40.1007 55.9497 40.408 56.0925C40.7206 56.0963 41.0192 56.2235 41.24 56.4467C41.4608 56.6699 41.5862 56.9714 41.5892 57.2867C41.7318 57.5199 41.8226 57.7815 41.8554 58.0535C41.8883 58.3255 41.8623 58.6014 41.7794 58.8623C41.6965 59.1233 41.5585 59.363 41.375 59.5651C41.1915 59.7671 40.9668 59.9267 40.7164 60.0329C40.669 60.0525 40.6249 60.0792 40.5854 60.1121C39.7168 61.7513 39.2035 63.5579 39.0796 65.4123C38.9557 67.2666 39.224 69.1264 39.8668 70.8683C40.7812 72.7032 42.1523 74.2673 43.8459 75.4075C45.5396 76.5477 47.4977 77.2249 49.5288 77.373C57.9863 78.0478 62.8449 70.3988 65.1055 63.3249C65.2202 62.8741 65.4901 62.4792 65.8668 62.2105C66.2436 61.9418 66.7027 61.8168 67.1624 61.8579C67.428 61.7545 67.7121 61.7085 67.9964 61.7228C68.2808 61.7371 68.559 61.8113 68.8131 61.9407C69.0673 62.0701 69.2917 62.2517 69.4719 62.474C69.6521 62.6962 69.7841 62.9541 69.8594 63.231C70.6387 65.6609 72.1336 67.7937 74.1451 69.3452C76.1566 70.8967 78.5891 71.7934 81.1185 71.9157C84.7669 72.2766 90.8358 71.7074 92.916 68.4418C92.5029 67.855 92.0926 67.3005 91.7319 66.6521C91.5828 66.348 91.5078 66.0125 91.5131 65.6733C91.5183 65.3341 91.6038 65.0011 91.7622 64.7019C91.9206 64.4027 92.1475 64.1459 92.4241 63.9529C92.7007 63.7598 93.0189 63.6361 93.3524 63.5919C93.3847 63.2993 93.5059 63.0239 93.6993 62.8034C93.8927 62.5829 94.1489 62.428 94.4329 62.3599C94.7169 62.2918 95.0149 62.3139 95.286 62.4231C95.5571 62.5323 95.7881 62.7232 95.9475 62.9699C96.8954 64.1558 97.4365 65.6197 97.4895 67.142C100.532 70.4872 104.283 73.0982 108.463 74.781C112.644 76.4638 117.147 77.1752 121.637 76.8625C127.344 76.4057 132.881 74.6888 137.857 71.8335C141.784 69.7775 145.127 66.7449 147.568 63.0227Z" fill="#222221"/>
<path d="M133.632 46.5336C142.758 42.8015 147.402 48.2969 147.565 63.0198C145.121 66.7395 141.777 69.7691 137.848 71.8219C132.873 74.6772 127.335 76.394 121.628 76.8508C117.138 77.1635 112.635 76.4521 108.455 74.7693C104.274 73.0865 100.523 70.4755 97.4808 67.1304C97.4278 65.6081 96.8868 64.1441 95.9389 62.9582C95.7794 62.7116 95.5484 62.5206 95.2773 62.4114C95.0061 62.3023 94.7083 62.2802 94.4242 62.3483C94.1402 62.4163 93.884 62.5712 93.6906 62.7917C93.4971 63.0123 93.376 63.2876 93.3437 63.5802C93.0102 63.6244 92.692 63.7482 92.4154 63.9412C92.1388 64.1343 91.9119 64.3911 91.7535 64.6903C91.5951 64.9895 91.5096 65.3225 91.5044 65.6616C91.4991 66.0008 91.5741 66.3363 91.7232 66.6404C92.0839 67.2888 92.4942 67.8316 92.9073 68.4302C90.8242 71.6957 84.7611 72.2649 81.1099 71.904C78.5804 71.7817 76.1479 70.8851 74.1365 69.3335C72.125 67.782 70.63 65.6492 69.8506 63.2193C69.7754 62.9425 69.6434 62.6846 69.4632 62.4623C69.283 62.2401 69.0586 62.0584 68.8044 61.929C68.5503 61.7996 68.2721 61.7254 67.9878 61.7111C67.7034 61.6969 67.4193 61.7429 67.1537 61.8462C66.694 61.8052 66.2349 61.9301 65.8581 62.1988C65.4814 62.4675 65.2116 62.8625 65.0968 63.3132C62.8333 70.3901 57.9776 78.0361 49.5201 77.3613C47.4891 77.2133 45.5309 76.536 43.8373 75.3958C42.1437 74.2556 40.7726 72.6915 39.8582 70.8566C39.2155 69.1147 38.9473 67.255 39.0712 65.4007C39.1951 63.5463 39.7082 61.7397 40.5767 60.1005C40.6162 60.0675 40.6603 60.0408 40.7077 60.0212C40.9581 59.9151 41.1828 59.7555 41.3663 59.5534C41.5498 59.3513 41.6878 59.1116 41.7707 58.8507C41.8537 58.5898 41.8796 58.3138 41.8467 58.0418C41.8139 57.7698 41.7231 57.5082 41.5805 57.275C41.5775 56.9598 41.4522 56.6582 41.2314 56.435C41.0106 56.2118 40.7119 56.0847 40.3993 56.0809C40.092 55.938 39.7571 55.8663 39.4188 55.8708C39.0805 55.8754 38.7475 55.9562 38.4442 56.1073C29.5765 60.4379 6.7788 64.5572 4.66952 49.8343C3.58724 42.291 9.88599 37.0567 16.6211 35.7862C22.0863 35.0573 27.6428 35.9868 32.5818 38.4562C33.4802 39.9627 34.9002 41.0801 36.5676 41.5927C36.9052 41.6819 37.2633 41.6458 37.5767 41.4909C37.8901 41.336 38.1378 41.0727 38.2746 40.749C38.4115 40.4253 38.4284 40.0627 38.3223 39.7274C38.2161 39.3922 37.994 39.1066 37.6965 38.9227C37.5161 38.8171 37.3881 38.6645 37.2077 38.5325C37.1546 38.4173 37.0748 38.3166 36.975 38.2391C36.7925 38.0615 36.5981 37.8968 36.3931 37.7462C35.9112 37.137 35.5817 36.4198 35.4324 35.6553C35.2831 34.8907 35.3183 34.1011 35.5351 33.3531C35.7519 32.6052 36.1439 31.9208 36.6781 31.3577C37.2122 30.7946 37.8729 30.3693 38.6042 30.1177C42.3544 28.6507 45.7234 31.1035 48.0102 33.8762C49.5783 35.7452 52.8164 33.2542 51.4025 31.2356C51.225 31.0009 51.0184 30.7427 50.8206 30.5079C45.3713 -0.751106 109.63 -7.72527 106.212 29.2111C105.956 32.1451 110.477 32.1451 110.785 29.2375C113.043 27.1423 115.918 25.8506 118.973 25.5602C122.027 25.2699 125.092 25.9968 127.697 27.6297C130.868 29.264 133.348 31.9978 134.68 35.3285C135.762 38.9843 133.909 40.9795 131.674 43.4411C131.463 43.6571 131.31 43.9253 131.233 44.2189C131.156 44.5126 131.157 44.8216 131.234 45.115C131.312 45.4085 131.465 45.6763 131.678 45.8917C131.89 46.1071 132.155 46.2626 132.445 46.3429C132.612 46.4719 132.808 46.5569 133.015 46.5902C133.222 46.6235 133.434 46.604 133.632 46.5336Z" fill="#F5F5F5"/>
</g>
<defs>
<clipPath id="clip0_12_27">
<rect width="153" height="82" fill="white"/>
</clipPath>
</defs>
</svg>
