<svg xmlns="http://www.w3.org/2000/svg" xmlns:xlink="http://www.w3.org/1999/xlink" viewBox="0 0 458.46 383"><defs><style>.cls-1{fill:none;}.cls-2{clip-path:url(#clip-path);}.cls-3{fill:#f39daa;}.cls-4{clip-path:url(#clip-path-2);}.cls-5{fill:#55b9eb;}.cls-6{fill:#fff;}.cls-7{fill:#5c6bf2;}.cls-8{fill:#132a8e;}.cls-9{fill:#0c1c74;}.cls-10{fill:#fcce38;}.cls-11{fill:#eab01f;}.cls-12{fill:#01327f;}.cls-13{fill:#ff8b66;}.cls-14{fill:#ef6e4b;}.cls-15{fill:#043ba8;}.cls-16{fill:#df2866;}.cls-17{fill:#8bbddb;}.cls-18{fill:#1a4850;}.cls-19{fill:#db614d;}.cls-20{fill:#6097b2;}.cls-21{fill:#3e6575;}.cls-22{fill:#0b42c7;}</style><clipPath id="clip-path"><rect class="cls-1" x="-184.54" y="404" width="642" height="383"/></clipPath><clipPath id="clip-path-2"><rect class="cls-1" x="-183.54" width="642" height="383"/></clipPath></defs><title>5458405_2824481</title><g id="OBJECTS"><g class="cls-2"><path class="cls-3" d="M133.94,702.77a57.34,57.34,0,0,1,1.11-8.61,49.17,49.17,0,0,1,2.61-8.61A34.34,34.34,0,0,1,147.13,672c56.16-46.65,61.15-99.24,34.36-152.92C159,474,152.37,381,297,381c43.17,0,172.66,2,172.66,2s9.7,12.07,23.84,32.14v386a315.12,315.12,0,0,1-41,7.89C206.78,840.66,137.92,763.42,134,710.9A63.33,63.33,0,0,1,133.94,702.77Z"/></g><g class="cls-4"><path class="cls-5" d="M134.94,298.77a57.34,57.34,0,0,1,1.11-8.61,49.17,49.17,0,0,1,2.61-8.61A34.34,34.34,0,0,1,148.13,268c56.16-46.65,61.15-99.24,34.36-152.92C160,70,153.37-23,298-23c43.17,0,172.66,2,172.66,2s9.7,12.07,23.84,32.14v386a315.12,315.12,0,0,1-41,7.89C207.78,436.66,138.92,359.42,135,306.9A63.33,63.33,0,0,1,134.94,298.77Z"/><circle class="cls-6" cx="279.46" cy="96" r="37"/><path class="cls-3" d="M263.38,77.15l4.44-2.69A100.16,100.16,0,0,0,275.36,86l-4.52,3.53a2.72,2.72,0,0,0-.45,3.84,106.79,106.79,0,0,0,11.47,12.24,2.72,2.72,0,0,0,3.86-.2l3.82-4.28a100.16,100.16,0,0,0,11,8.28l-3,4.25c-3.8,5.68-12.18,7-18,2.14A114.69,114.69,0,0,1,260.08,95C255.6,88.86,257.46,80.58,263.38,77.15Z"/><path class="cls-3" d="M275.2,84.18a99.28,99.28,0,0,1-5.73-8.74,2.92,2.92,0,0,0-4-1h0a3.09,3.09,0,0,0-1.13,4.19,104.56,104.56,0,0,0,6,9.2,2.91,2.91,0,0,0,4.2.49h0A3.09,3.09,0,0,0,275.2,84.18Z"/><path class="cls-3" d="M299.68,107.68a99.31,99.31,0,0,1-8.35-6.28,3.09,3.09,0,0,0-4.22.39h0a2.91,2.91,0,0,0,.21,4.22,104.52,104.52,0,0,0,8.79,6.62,3.09,3.09,0,0,0,4.26-.86h0A2.92,2.92,0,0,0,299.68,107.68Z"/><circle class="cls-6" cx="322.46" cy="40" r="17"/><path class="cls-3" d="M310.37,39.21l3.51,9.41a2.59,2.59,0,0,0,3.34,1.52L334,43.88a2.59,2.59,0,0,0,1.52-3.33L332,31.14a2.65,2.65,0,0,0-1.36-1.46,2.59,2.59,0,0,0-2-.06l-16.77,6.26a2.56,2.56,0,0,0-1.69,2.37A2.51,2.51,0,0,0,310.37,39.21Z"/><path class="cls-6" d="M310.21,38.24l11.07,2.14a3.28,3.28,0,0,0,3.24-1.21l7-8.87a2.51,2.51,0,0,0-.85-.62l-6.94,8.85a2.26,2.26,0,0,1-2.21.83l-11-2.13A2.63,2.63,0,0,0,310.21,38.24Z"/><circle class="cls-6" cx="362.46" cy="97" r="16"/><rect class="cls-3" x="352.46" y="89" width="20" height="15" rx="4.37" ry="4.37"/><circle class="cls-6" cx="357.96" cy="96.5" r="0.5"/><circle class="cls-6" cx="362.96" cy="96.5" r="0.5"/><circle class="cls-6" cx="366.96" cy="96.5" r="0.5"/><path class="cls-3" d="M361.13,103s.86,4,5.87,4.73c0,0-2.43-.87-2.43-4.73Z"/><circle class="cls-6" cx="388.46" cy="40" r="11"/><path class="cls-3" d="M384.17,43.32l4,4,4-4a5.69,5.69,0,0,0,0-8h0a5.69,5.69,0,0,0-8,0h0A5.69,5.69,0,0,0,384.17,43.32ZM386,39.41a2.17,2.17,0,1,1,2.17,2.17A2.17,2.17,0,0,1,386,39.41Z"/><polygon class="cls-6" points="307.8 118.33 317.8 132.99 302.46 123.66 307.8 118.33"/><path class="cls-3" d="M415.95,204.53c-1.65-5.79-4.79-9-16.3-17.73s-2.43-11.49,3.64-7,12.34,17.2,12.34,17.2.85-14-7.14-23.16S400,154.4,406.8,155.72s11,19.15,11.46,27.29a55.86,55.86,0,0,0,4.09-23.69c-.76-13,5.71-18.33,9.73-18,5.59.49.19,7.49-3.27,17.59-3.11,9-5.1,18.64-6.29,21.92,0,0,10.33-20.95,21-23.09s9.26,5.32,4.06,8.13-18.4,11.52-24.59,20.49c0,0,18-12.53,24.93-5s-1.29,9.94-9.08,7.63a16.27,16.27,0,0,0-18.58,6.33,21.15,21.15,0,0,1,12.64-2.55c7.06.63,9.65,6.63,7.61,8.67-2.43,2.43-6.71-.44-13.55-2.27s-6.73,6.24-7.05,9.82S418.19,212.38,415.95,204.53Z"/><path class="cls-7" d="M445.61,161.5c-.26.12-.66.27-1.15.5s-1.08.52-1.73.9-1.38.81-2.16,1.32l-1.19.82-1.24.93-1.27,1-1.29,1.11c-.86.77-1.74,1.59-2.6,2.45s-1.72,1.75-2.55,2.66A105.08,105.08,0,0,0,422,183.85c-1,1.42-1.79,2.64-2.37,3.54l.27-.93.47-1.45.52-1.46a26,26,0,0,0,.89-3.05c.25-1,.46-2.07.65-3.12.74-4.17,1.3-8.36,1.93-12.27.32-2,.61-3.84.93-5.63s.65-3.46,1-5,.72-2.94,1.08-4.17a33.2,33.2,0,0,1,1.09-3.14c.35-.85.66-1.51.9-1.94l.37-.66-.41.64a18.92,18.92,0,0,0-1,1.9,33.44,33.44,0,0,0-1.23,3.11c-.42,1.22-.85,2.62-1.24,4.16-.78,3.08-1.53,6.71-2.18,10.62s-1.26,8.09-2,12.23c-.19,1-.38,2.07-.62,3.08a25.18,25.18,0,0,1-.84,3l-.51,1.47-.46,1.48-.42,1.47-.37,1.46c-.17.71-.32,1.4-.45,2.1-.11-1-.27-2.29-.51-3.83a88.48,88.48,0,0,0-2.79-12.35c-.33-1.1-.71-2.19-1.1-3.26-.19-.53-.41-1.05-.6-1.57l-.64-1.52-.67-1.44c-.23-.46-.46-.92-.68-1.36l-.69-1.26-.69-1.15c-.47-.72-.91-1.38-1.34-1.94s-.82-1-1.13-1.42-.61-.66-.79-.86L406,159l.28.31c.18.2.46.48.78.87s.72.85,1.11,1.43.85,1.23,1.31,2l.68,1.16.68,1.27c.22.44.44.9.67,1.36l.65,1.45.62,1.52c.19.52.4,1,.58,1.58.37,1.07.74,2.16,1.06,3.26a88.22,88.22,0,0,1,2.65,12.34c.36,2.49.53,4.38.59,5.22-.12.72-.23,1.42-.32,2.12-.24,1.81-.35,3.53-.41,5.12,0,.06,0,.12,0,.18l-.2-.36c-.19-.35-.43-.76-.71-1.24s-.6-1-1-1.58-.76-1.19-1.21-1.83-.93-1.3-1.42-2-1.06-1.36-1.61-2.06l-.87-1c-.29-.35-.59-.69-.9-1-.62-.66-1.22-1.33-1.87-1.94l-.95-.92c-.32-.3-.65-.57-1-.85l-.94-.82c-.31-.26-.64-.49-.94-.73-.62-.47-1.19-.94-1.77-1.29l-1.54-1-1.24-.69-1.09-.6,1.08.62,1.23.71,1.53,1c.57.36,1.13.84,1.74,1.31.3.24.62.48.93.74l.93.83c.31.28.64.56,1,.86l.93.93c.64.61,1.23,1.29,1.84,2,.31.33.6.67.88,1l.85,1c.55.7,1.08,1.39,1.58,2.07s1,1.35,1.39,2,.82,1.26,1.18,1.84.66,1.11.94,1.58.5.89.68,1.24c.3.55.47.92.53,1,0,.69,0,1.36,0,2,0,.16,0,.25,0,.25h0c0,.36,0,.71.08,1.05l.08.93.12.86c.07.55.14,1.06.24,1.52s.16.86.24,1.21l.23.88.19.73-.15-.74-.18-.89-.18-1.22c-.08-.45-.12-1-.17-1.52l-.08-.86,0-.93c0-.33,0-.67,0-1h0s0-.1,0-.26a7.53,7.53,0,0,1,.13-.75l.14-.53.22-.61c.1-.21.19-.44.31-.67s.26-.47.42-.7a7.67,7.67,0,0,1,1.21-1.38,8.2,8.2,0,0,1,1.69-1.17l.49-.24a3,3,0,0,1,.51-.22c.35-.12.7-.26,1.06-.36l1.12-.26c.37-.09.76-.11,1.14-.16a10.34,10.34,0,0,1,1.15-.11l1.15-.06c.76,0,1.51,0,2.24.06l.54,0,.53.07a9.83,9.83,0,0,1,1,.16,9.34,9.34,0,0,1,.94.22,8.16,8.16,0,0,1,.86.27,6.6,6.6,0,0,1,.77.31,5.68,5.68,0,0,1,.67.35,6.28,6.28,0,0,1,1,.71,3.31,3.31,0,0,1,.69.81,3.32,3.32,0,0,0-.68-.82,6.3,6.3,0,0,0-1-.73,5.74,5.74,0,0,0-.67-.36,6.64,6.64,0,0,0-.77-.33,8.22,8.22,0,0,0-.87-.29,9.41,9.41,0,0,0-.95-.24,9.92,9.92,0,0,0-1-.18l-.53-.08-.54,0c-.73-.08-1.48-.08-2.25-.1l-1.15,0a10.56,10.56,0,0,0-1.17.09c-.39.05-.78.06-1.16.15l-1.14.24c-.37.1-.73.24-1.09.35a3.13,3.13,0,0,0-.52.21l-.51.24a8.51,8.51,0,0,0-1.77,1.18,8,8,0,0,0-1.29,1.42c-.18.24-.31.5-.45.73s-.23.48-.34.69l-.18.47c0-.47,0-1,0-1.46.1-1.51.24-3.14.51-4.84.13-.18.35-.47.67-.85a31.74,31.74,0,0,1,2.4-2.6c.52-.52,1.11-1,1.75-1.59s1.34-1.1,2.09-1.62,1.54-1.05,2.37-1.54c.42-.24.84-.48,1.28-.7s.87-.43,1.32-.63.9-.37,1.35-.56.92-.32,1.37-.48.92-.27,1.38-.38.91-.22,1.37-.3a24.46,24.46,0,0,1,2.63-.34l1.23-.06h1.15c.37,0,.72,0,1.05.06s.65,0,.95.09c.59.09,1.11.14,1.53.23l1.32.27-1.32-.29c-.42-.1-.94-.15-1.53-.25-.3-.05-.61-.06-.95-.1s-.69-.08-1.06-.08l-1.15,0-1.23,0a24.56,24.56,0,0,0-2.64.31c-.46.07-.91.19-1.38.28s-.92.25-1.39.37-.93.3-1.39.46-.92.34-1.37.55-.9.4-1.34.62-.87.45-1.3.68c-.85.48-1.66,1-2.41,1.52s-1.47,1.08-2.13,1.61-1.25,1.07-1.79,1.59A31.63,31.63,0,0,0,418,194.3c.27-1.6.61-3.25,1-4.95l.16-.61c.48-.8,1.54-2.5,3-4.69a104.81,104.81,0,0,1,8.32-10.7c.82-.92,1.67-1.82,2.52-2.68s1.72-1.69,2.57-2.47l1.28-1.12,1.26-1,1.23-.94,1.18-.83c.77-.51,1.48-1,2.14-1.34s1.24-.67,1.72-.92.88-.39,1.14-.51l.41-.18Z"/><path class="cls-3" d="M249.79,350.11c1-5.93-.43-10.18-7-23s2.77-11.41,6.29-4.7,3.69,20.84,3.69,20.84,6.82-12.25,3.58-24,.81-21.23,6.33-17.11,1.65,22-1.47,29.56a55.86,55.86,0,0,0,13.93-19.59c4.92-12,13.07-14.06,16.54-12,4.82,2.86-3.07,6.84-10.55,14.44-6.71,6.82-12.66,14.6-15.15,17,0,0,18.37-14.42,28.93-11.73s6,8.8.14,9.09-21.57,2.43-31,7.84c0,0,21.69-3.49,24.63,6.28s-5.46,8.41-11.48,2.95a16.27,16.27,0,0,0-19.49-2.33,21.15,21.15,0,0,1,12.5,3.17c6.09,3.62,5.83,10.15,3.11,11.11-3.24,1.15-5.86-3.3-11.24-7.91s-8.77,2.72-10.61,5.8S248.42,358.16,249.79,350.11Z"/><path class="cls-7" d="M295.14,324.14c-.29,0-.71,0-1.25,0s-1.2,0-1.95.06-1.6.14-2.52.25l-1.43.23-1.52.3-1.59.37-1.65.44c-1.11.32-2.26.68-3.41,1.08s-2.31.83-3.45,1.3a105.09,105.09,0,0,0-12.22,5.94c-1.51.85-2.76,1.6-3.67,2.17l.65-.72,1-1.1,1.1-1.09a26,26,0,0,0,2.12-2.37c.67-.82,1.31-1.67,1.93-2.53,2.47-3.44,4.79-7,7-10.23,1.13-1.62,2.21-3.2,3.27-4.67s2.08-2.84,3.07-4.08,1.92-2.34,2.78-3.3a33.17,33.17,0,0,1,2.34-2.36c.69-.61,1.25-1.07,1.65-1.36l.62-.44-.64.4a18.91,18.91,0,0,0-1.73,1.28c-.71.6-1.55,1.35-2.45,2.27s-1.9,2-2.91,3.21c-2,2.44-4.28,5.39-6.56,8.63s-4.64,6.75-7.12,10.15c-.62.85-1.24,1.7-1.89,2.51a25.16,25.16,0,0,1-2,2.32l-1.09,1.11L260.59,335l-1,1.15-1,1.16c-.46.56-.89,1.13-1.31,1.69.33-.93.74-2.18,1.2-3.68A88.49,88.49,0,0,0,261.32,323c.17-1.14.31-2.28.42-3.41.06-.56.09-1.13.14-1.68l.08-1.64,0-1.59c0-.52,0-1,0-1.52l-.08-1.44-.13-1.34c-.11-.86-.22-1.64-.37-2.33s-.29-1.28-.4-1.77-.26-.86-.34-1.12l-.12-.39.12.4c.07.26.2.63.32,1.12s.28,1.08.38,1.77.23,1.47.34,2.33l.11,1.34.06,1.44c0,.49,0,1,0,1.52l0,1.59-.1,1.64c-.05.55-.09,1.11-.15,1.67-.12,1.12-.27,2.26-.46,3.4a88.22,88.22,0,0,1-3,12.28c-.76,2.4-1.42,4.17-1.72,5-.42.59-.82,1.18-1.2,1.77-1,1.53-1.84,3-2.59,4.44l-.08.16c0-.13,0-.26,0-.41,0-.4-.06-.88-.1-1.43s-.1-1.17-.19-1.84-.17-1.4-.3-2.17-.27-1.57-.42-2.41-.36-1.69-.57-2.55l-.34-1.3c-.11-.44-.23-.87-.37-1.3-.27-.86-.52-1.73-.85-2.56l-.46-1.24c-.16-.41-.34-.8-.5-1.19L248,327c-.17-.37-.36-.72-.53-1.07-.36-.69-.67-1.36-1-1.93l-.95-1.59-.82-1.16-.72-1,.7,1,.8,1.18.93,1.6c.36.57.66,1.25,1,1.94.17.35.35.7.52,1.07l.48,1.15c.16.39.33.78.48,1.19l.44,1.24c.31.83.55,1.7.81,2.56.14.43.25.87.35,1.3l.32,1.3c.19.87.37,1.72.53,2.55s.29,1.63.39,2.4.2,1.49.27,2.16.11,1.29.16,1.83.07,1,.08,1.42c0,.63,0,1,0,1.17q-.45.94-.82,1.81l-.13.21,0,0c-.14.34-.27.66-.38,1l-.33.88-.27.83c-.17.53-.33,1-.44,1.47s-.23.85-.31,1.2l-.17.9-.14.75.19-.74.22-.88.36-1.18c.13-.44.31-.92.5-1.44l.3-.81.37-.86c.13-.3.26-.61.41-.93h0l.13-.23a7.6,7.6,0,0,1,.44-.62l.36-.42.46-.45c.18-.15.36-.31.57-.47s.43-.31.68-.45a7.67,7.67,0,0,1,1.69-.72,8.21,8.21,0,0,1,2-.32h.54a3,3,0,0,1,.55,0c.37,0,.74.07,1.12.13l1.12.25c.38.08.73.23,1.1.35a10.39,10.39,0,0,1,1.08.4l1.06.45c.68.33,1.36.65,2,1l.47.27.44.29a9.81,9.81,0,0,1,.84.58,9.36,9.36,0,0,1,.76.61,8.13,8.13,0,0,1,.66.62,6.61,6.61,0,0,1,.56.62,5.67,5.67,0,0,1,.45.6,6.27,6.27,0,0,1,.59,1.07,3.31,3.31,0,0,1,.27,1,3.32,3.32,0,0,0-.25-1,6.3,6.3,0,0,0-.58-1.08,5.73,5.73,0,0,0-.45-.61,6.65,6.65,0,0,0-.55-.63,8.22,8.22,0,0,0-.66-.63,9.44,9.44,0,0,0-.75-.62,9.91,9.91,0,0,0-.84-.6l-.44-.3-.47-.28c-.62-.39-1.3-.72-2-1.06l-1.06-.47a10.57,10.57,0,0,0-1.09-.43c-.37-.12-.73-.28-1.11-.37l-1.13-.28c-.38-.07-.76-.1-1.14-.15a3.12,3.12,0,0,0-.56,0H258a8.51,8.51,0,0,0-2.11.3,8,8,0,0,0-1.77.72c-.26.14-.49.31-.72.46s-.42.33-.61.48l-.37.35.67-1.3c.74-1.32,1.58-2.72,2.55-4.15.2-.1.52-.27,1-.48a31.7,31.7,0,0,1,3.29-1.31c.69-.24,1.46-.46,2.27-.68s1.68-.41,2.58-.56,1.84-.28,2.8-.36c.48,0,1-.07,1.45-.08s1,0,1.47,0,1,.05,1.46.08,1,.11,1.45.16.95.15,1.41.25.92.19,1.36.32a24.46,24.46,0,0,1,2.51.83l1.13.48,1,.51c.34.15.63.35.92.51s.57.31.82.49c.49.34.94.61,1.28.87l1.08.82-1.07-.83c-.34-.27-.78-.54-1.27-.89-.24-.18-.53-.32-.81-.5s-.59-.37-.92-.53l-1-.52-1.13-.49a24.56,24.56,0,0,0-2.52-.87c-.44-.14-.9-.23-1.36-.34s-.94-.18-1.42-.27-1-.13-1.45-.18-1-.09-1.47-.1-1,0-1.48,0-1,0-1.47.06c-1,.06-1.92.17-2.83.32s-1.79.34-2.61.53-1.6.42-2.3.66a31.6,31.6,0,0,0-3.67,1.43c.94-1.32,2-2.67,3.07-4l.41-.48c.78-.51,2.47-1.59,4.75-2.92a104.81,104.81,0,0,1,12.13-6c1.14-.48,2.29-.92,3.43-1.33s2.28-.78,3.39-1.11l1.64-.46,1.58-.39,1.51-.31,1.42-.24c.92-.13,1.76-.24,2.51-.28s1.41-.06,1.95-.08,1,0,1.25,0l.44,0Z"/><path class="cls-3" d="M231.25,377.13c2.35.15,6.38-2.39,9.17-5.91a26.54,26.54,0,0,0-4.35-11.42c-.44,4.72-2.19,8.1-9,11.58-4.69,2.39-7.65-1.91-3-5.28,5.51-4,7.9-9,5.3-13.47a31.84,31.84,0,0,0-9.12-4.85A42.88,42.88,0,0,1,216,359.12c-3.26,6.14-8.37,2.86-4.64-2,1.91-2.48,1.75-7.32,1.15-11.47a59.5,59.5,0,0,0-8.66-1.24,52.59,52.59,0,0,1,.47,8.49c-.26,7.1-8.18,5.5-5.83-.85.67-1.81.09-4.86-.84-7.64-7.77.54-11.55,3-11.55,3a77.33,77.33,0,0,0,.08,8.86,9.14,9.14,0,0,0,4,2.69c3.33.67,6.33,0,5.71,2.64-.51,2.19-4,3.13-8.77,1.72a42.91,42.91,0,0,0,2.16,7.54,13.44,13.44,0,0,0,4.35.66c3.32-.25,5.87-2.82,7.66-1.53,1.6,1.15-.1,5.43-9.18,6.47a28.33,28.33,0,0,0,7.14,7.72c2.26-.79,4.29-1.71,5.14-2.66,2.42-2.7,2.19-5.39,4.57-4.27,2,.94,3,6-3.78,10.32a37.08,37.08,0,0,0,9.63,2.61c1.73-1.58,3.08-3.42,3.26-5.41.54-6,7.11-3.37,1.4,5.81h0c9.17,4.32,9.45-4.41,9.45-4.41,7.51.73,9.64-2.39,11-7.13C228.72,385.55,227.57,376.89,231.25,377.13Z"/><path class="cls-7" d="M237.07,368.76c0,.12,0,.31-.12.54a5.68,5.68,0,0,1-.29.8,3.39,3.39,0,0,1-.23.47,4.72,4.72,0,0,1-.3.5,7.36,7.36,0,0,1-.81,1,6.75,6.75,0,0,1-.51.5c-.18.17-.37.32-.57.48a13.44,13.44,0,0,1-1.28.89c-.45.27-.92.53-1.41.77a28.28,28.28,0,0,1-5.58,2c-1,.25-1.81.4-2.26.48q-.74-1-1.61-1.92A29.13,29.13,0,0,0,218.6,372c-.45-.35-.93-.69-1.41-1,.39-.42.9-1,1.5-1.73s1.36-1.67,2.09-2.68a37.74,37.74,0,0,0,2.13-3.26c.33-.57.64-1.16.92-1.75a17.49,17.49,0,0,0,.73-1.77l.15-.44.12-.44c.09-.29.14-.58.19-.86s.07-.56.11-.82,0-.53,0-.78,0-.49-.07-.71-.09-.43-.14-.63l-.2-.53c-.07-.16-.16-.3-.22-.42a3.3,3.3,0,0,0-.38-.55l-.14-.19.14.19a3.28,3.28,0,0,1,.35.56c.06.13.14.27.2.43l.17.53c0,.19.07.4.11.62s0,.46,0,.7,0,.5-.05.76-.07.53-.14.8-.13.55-.22.83l-.13.42-.16.42a17.21,17.21,0,0,1-.78,1.72c-.3.57-.63,1.13-1,1.69a37.25,37.25,0,0,1-2.22,3.13c-.76,1-1.5,1.83-2.16,2.56s-1.22,1.32-1.62,1.73h0q-1.05-.7-2.17-1.34c-1.49-.86-3-1.68-4.54-2.51s-3-1.66-4.47-2.54l-.51-.32.28-.41c.17-.28.38-.58.58-.94l.32-.54.31-.6c.22-.4.41-.85.62-1.31s.39-.94.56-1.44.34-1,.46-1.53l.19-.78.14-.78c0-.26.1-.51.12-.77l.07-.76c0-.25.05-.49.05-.73v-.7q0-.34,0-.66l-.06-.62c0-.4-.07-.76-.12-1.08l-.17-.82-.15-.71.11.72.13.82c0,.32,0,.68.07,1.08l0,.61,0,.66,0,.69c0,.24-.06.48-.09.72l-.1.74c0,.25-.11.5-.16.75l-.17.76-.23.75c-.14.5-.34,1-.52,1.47s-.41.93-.61,1.38-.43.86-.67,1.24l-.33.56-.33.51c-.21.33-.43.61-.6.88l-.33.43c-1-.66-2-1.33-3-2-.65-.48-1.28-1-1.89-1.44s-1.2-1-1.76-1.44-1.1-1-1.62-1.42-1-.93-1.48-1.37l-.69-.65-.64-.64c-.42-.42-.82-.81-1.18-1.19-.72-.77-1.36-1.42-1.87-2l-1.61-1.76,1.42,1.92c.46.61,1,1.32,1.71,2.15.34.41.71.83,1.1,1.28l.6.69.66.7c.89,1,1.89,2,3,3,.55.51,1.12,1,1.73,1.53s1.23,1,1.88,1.52c1.31,1,2.68,2,4.15,2.89.89.55,1.8,1.09,2.72,1.61-.45.15-1.05.34-1.77.55s-1.74.47-2.76.67l-.78.16-.8.13c-.54.1-1.09.16-1.64.23s-1.11.09-1.65.14-1.08,0-1.61,0l-1.5-.09-1.33-.19-1.11-.27a5.7,5.7,0,0,1-.83-.28l-.72-.27.71.31a5.74,5.74,0,0,0,.82.32l1.1.33,1.34.25,1.51.16c.53,0,1.07,0,1.63,0s1.12,0,1.68-.06,1.12-.08,1.67-.15l.82-.1.79-.12c1-.16,2-.37,2.83-.55,1.25-.29,2.17-.57,2.54-.68l.84.47c1.25.68,2.5,1.33,3.72,2a14.82,14.82,0,0,0-1.76.85,27.07,27.07,0,0,0-2.66,1.72c-.47.34-.94.7-1.42,1.08s-.95.77-1.41,1.18c-.93.8-1.82,1.65-2.67,2.41a13.39,13.39,0,0,1-2.47,1.88,4.35,4.35,0,0,1-2.1.56,4.45,4.45,0,0,1-.62,0l-.22,0,.22,0a4.46,4.46,0,0,0,.62.07,4.19,4.19,0,0,0,1-.07,4.91,4.91,0,0,0,1.19-.41,13.55,13.55,0,0,0,2.58-1.8c.88-.74,1.8-1.54,2.76-2.3q.71-.57,1.44-1.11c.49-.35,1-.69,1.44-1a26.48,26.48,0,0,1,2.67-1.56,13.49,13.49,0,0,1,2-.83l.38-.11a42,42,0,0,1,4.06,2.59c.5.37,1,.75,1.45,1.14l-.11.06a3,3,0,0,0-.38.33,5.31,5.31,0,0,0-.67.9,40.56,40.56,0,0,0-2.32,5.16c-.39.94-.78,1.88-1.2,2.74-.21.43-.42.84-.63,1.22a11.74,11.74,0,0,1-.66,1,6,6,0,0,1-.67.78,3.43,3.43,0,0,1-.63.49l-.26.14-.21.07-.17.06.18,0,.21-.06.27-.13a3.47,3.47,0,0,0,.66-.46,6.1,6.1,0,0,0,.72-.76,11.92,11.92,0,0,0,.72-1c.23-.37.47-.77.7-1.2.46-.84.91-1.77,1.34-2.69a40.4,40.4,0,0,1,2.53-4.95,4.62,4.62,0,0,1,.61-.74,1.23,1.23,0,0,1,.52-.32l.09,0h0c.47.41.93.83,1.37,1.26s1,1,1.46,1.57c.23.26.46.51.67.77l.61.77c.28.34.53.69.77,1s.2.5.31.83a12.67,12.67,0,0,1,.71,3.44,7.46,7.46,0,0,1-.12,1.87,5.55,5.55,0,0,1-.55,1.54,5,5,0,0,1-.35.56c-.12.16-.23.29-.32.4l-.31.32.32-.3c.09-.11.21-.23.34-.39a5,5,0,0,0,.38-.55,5.65,5.65,0,0,0,.62-1.55,7.62,7.62,0,0,0,.2-1.91,12.61,12.61,0,0,0-.5-3.24l.55.82.42.64.37.6.66,1.07,1.19,2.06-.25-.57c-.17-.37-.4-.92-.73-1.61s-.73-1.52-1.27-2.44a33.58,33.58,0,0,0-1.89-3c-.24-.35-.49-.7-.76-1.06.47-.1,1.19-.26,2.07-.5a28.54,28.54,0,0,0,5.58-2.12c.48-.25,1-.52,1.41-.81a13.62,13.62,0,0,0,1.27-.93c.2-.16.39-.33.56-.5a6.91,6.91,0,0,0,.5-.51,7.43,7.43,0,0,0,.8-1,4.81,4.81,0,0,0,.29-.51,3.43,3.43,0,0,0,.22-.48,5.72,5.72,0,0,0,.27-.81c.06-.23.08-.42.1-.54l0-.19Z"/><path class="cls-3" d="M300.16,262.13c2.35.15,6.38-2.39,9.17-5.91A26.54,26.54,0,0,0,305,244.8c-.44,4.72-2.19,8.1-9,11.58-4.69,2.39-7.65-1.91-3-5.28,5.51-4,7.9-9,5.3-13.47a31.84,31.84,0,0,0-9.12-4.85,42.88,42.88,0,0,1-4.22,11.34c-3.26,6.14-8.37,2.86-4.64-2,1.91-2.48,1.75-7.32,1.15-11.47a59.5,59.5,0,0,0-8.66-1.24,52.6,52.6,0,0,1,.47,8.49c-.26,7.1-8.18,5.5-5.83-.85.67-1.81.09-4.86-.84-7.64-7.77.54-11.55,3-11.55,3a77.37,77.37,0,0,0,.08,8.86,9.14,9.14,0,0,0,4,2.69c3.33.67,6.33,0,5.71,2.64-.51,2.19-4,3.13-8.77,1.72a42.9,42.9,0,0,0,2.16,7.54,13.44,13.44,0,0,0,4.35.66c3.32-.25,5.87-2.82,7.66-1.53,1.6,1.15-.1,5.43-9.18,6.47a28.34,28.34,0,0,0,7.14,7.72c2.26-.79,4.29-1.71,5.14-2.66,2.42-2.7,2.19-5.39,4.57-4.27,2,.94,3,6-3.78,10.32a37.08,37.08,0,0,0,9.63,2.61c1.73-1.58,3.08-3.42,3.26-5.41.54-6,7.11-3.37,1.4,5.81h0c9.17,4.32,9.45-4.41,9.45-4.41,7.51.73,9.64-2.39,11-7.13C297.62,270.55,296.47,261.89,300.16,262.13Z"/><path class="cls-7" d="M306,253.76c0,.12,0,.31-.12.54a5.69,5.69,0,0,1-.29.8,3.39,3.39,0,0,1-.23.47,4.72,4.72,0,0,1-.3.5,7.36,7.36,0,0,1-.81,1,6.75,6.75,0,0,1-.51.5c-.18.17-.37.32-.57.48a13.46,13.46,0,0,1-1.28.89c-.45.27-.92.53-1.41.77a28.28,28.28,0,0,1-5.58,2c-1,.25-1.81.4-2.26.48q-.74-1-1.61-1.92A29.12,29.12,0,0,0,287.5,257c-.45-.35-.93-.69-1.41-1,.39-.42.9-1,1.5-1.73s1.36-1.67,2.09-2.68a37.74,37.74,0,0,0,2.13-3.26c.33-.57.64-1.16.92-1.75a17.51,17.51,0,0,0,.73-1.77l.15-.44.12-.44c.09-.29.14-.58.19-.86s.07-.56.11-.82,0-.53,0-.78,0-.49-.07-.71-.09-.43-.14-.63l-.2-.53c-.07-.16-.16-.3-.22-.42a3.3,3.3,0,0,0-.38-.55l-.14-.19.14.19a3.28,3.28,0,0,1,.35.56c.06.13.14.27.2.43l.17.53c0,.19.07.4.11.62s0,.46,0,.7,0,.5-.05.76-.07.53-.14.8-.13.55-.22.83l-.13.42-.16.42a17.21,17.21,0,0,1-.78,1.72c-.3.57-.63,1.13-1,1.69a37.27,37.27,0,0,1-2.22,3.13c-.76,1-1.5,1.83-2.16,2.56s-1.22,1.32-1.62,1.73h0q-1.05-.7-2.17-1.34c-1.49-.86-3-1.68-4.54-2.51s-3-1.66-4.47-2.54l-.51-.32.28-.41c.17-.28.38-.58.58-.94l.32-.54.31-.6c.22-.4.41-.85.62-1.31s.39-.94.56-1.44.34-1,.46-1.53l.19-.78.14-.78c0-.26.1-.51.12-.77l.07-.76c0-.25.05-.49.05-.73s0-.48,0-.7,0-.45,0-.66l-.06-.62c0-.4-.07-.76-.12-1.08l-.17-.82-.15-.71.11.72.13.82c0,.32,0,.68.07,1.08l0,.61,0,.66,0,.69c0,.24-.06.48-.09.72l-.1.74c0,.25-.11.5-.16.75l-.17.76-.23.75c-.14.5-.34,1-.52,1.47s-.41.93-.61,1.38-.43.86-.67,1.24l-.33.56-.33.51c-.21.33-.43.61-.6.88l-.33.43c-1-.66-2-1.33-3-2-.65-.48-1.28-1-1.89-1.44s-1.2-1-1.76-1.44-1.1-1-1.62-1.42-1-.93-1.48-1.37l-.69-.65-.64-.64c-.42-.42-.82-.81-1.18-1.19-.72-.77-1.36-1.42-1.87-2l-1.61-1.76,1.42,1.92c.46.61,1,1.32,1.71,2.15.34.41.71.83,1.1,1.28l.6.69.66.7c.89,1,1.89,2,3,3,.55.51,1.12,1,1.73,1.53s1.23,1,1.88,1.52c1.31,1,2.68,2,4.15,2.89.89.55,1.8,1.09,2.72,1.61-.45.15-1.05.34-1.77.55s-1.74.47-2.76.67l-.78.16-.8.13c-.54.1-1.09.16-1.64.23s-1.11.09-1.65.14-1.08,0-1.61,0l-1.5-.09-1.33-.19-1.11-.27a5.7,5.7,0,0,1-.83-.28l-.72-.27.71.31a5.74,5.74,0,0,0,.82.32l1.1.33,1.34.25,1.51.16c.53,0,1.07,0,1.63,0s1.12,0,1.68-.06,1.12-.08,1.67-.15l.82-.1.79-.12c1-.16,2-.37,2.83-.56,1.25-.29,2.17-.57,2.54-.68l.84.47c1.25.68,2.5,1.33,3.72,2a14.83,14.83,0,0,0-1.76.85,27.09,27.09,0,0,0-2.66,1.72c-.47.34-.94.7-1.42,1.08s-.95.77-1.41,1.18c-.93.8-1.82,1.65-2.67,2.41a13.39,13.39,0,0,1-2.47,1.88,4.35,4.35,0,0,1-2.1.56,4.45,4.45,0,0,1-.62,0l-.22,0,.22,0a4.46,4.46,0,0,0,.62.07,4.19,4.19,0,0,0,1-.07,4.91,4.91,0,0,0,1.19-.41,13.56,13.56,0,0,0,2.58-1.8c.88-.74,1.8-1.54,2.76-2.3q.71-.57,1.44-1.11c.49-.35,1-.69,1.44-1a26.49,26.49,0,0,1,2.67-1.56,13.49,13.49,0,0,1,2-.83l.38-.11a42,42,0,0,1,4.06,2.59c.5.37,1,.75,1.45,1.14l-.11.06a3,3,0,0,0-.38.33,5.31,5.31,0,0,0-.67.9,40.56,40.56,0,0,0-2.32,5.16c-.39.94-.78,1.88-1.2,2.74-.21.43-.42.84-.63,1.22a11.74,11.74,0,0,1-.66,1,6,6,0,0,1-.67.78,3.43,3.43,0,0,1-.63.49l-.26.14-.21.07-.17.06.18,0,.21-.06.27-.13a3.47,3.47,0,0,0,.66-.46,6.09,6.09,0,0,0,.72-.76,11.88,11.88,0,0,0,.73-1c.23-.37.47-.77.7-1.2.46-.84.91-1.77,1.34-2.69a40.41,40.41,0,0,1,2.53-4.95,4.62,4.62,0,0,1,.61-.74,1.23,1.23,0,0,1,.52-.32l.09,0h0c.47.41.93.83,1.37,1.26s1,1,1.46,1.57c.23.26.46.51.67.77l.61.77c.28.34.53.69.77,1s.2.5.31.83a12.66,12.66,0,0,1,.71,3.44,7.45,7.45,0,0,1-.12,1.87,5.55,5.55,0,0,1-.55,1.54,4.94,4.94,0,0,1-.35.56c-.12.16-.23.29-.32.4l-.31.32.32-.3c.09-.11.21-.23.34-.39a5,5,0,0,0,.38-.55,5.64,5.64,0,0,0,.62-1.55,7.63,7.63,0,0,0,.2-1.91,12.61,12.61,0,0,0-.5-3.24l.55.82.42.64.37.6.66,1.07,1.19,2.06-.25-.57c-.17-.37-.4-.92-.73-1.61s-.73-1.52-1.27-2.44a33.58,33.58,0,0,0-1.89-3c-.24-.35-.49-.7-.76-1.06.47-.1,1.19-.26,2.07-.5a28.54,28.54,0,0,0,5.58-2.12c.48-.25,1-.52,1.41-.81a13.61,13.61,0,0,0,1.27-.93c.2-.16.39-.33.56-.5a6.89,6.89,0,0,0,.5-.51,7.44,7.44,0,0,0,.8-1,4.83,4.83,0,0,0,.29-.51,3.43,3.43,0,0,0,.22-.48,5.73,5.73,0,0,0,.27-.81c.06-.23.08-.42.1-.54l0-.19Z"/><path class="cls-3" d="M428,223.18c-2.35.15-6.38-2.39-9.17-5.91a26.54,26.54,0,0,1,4.35-11.42c.44,4.72,2.19,8.1,9,11.58,4.69,2.39,7.65-1.91,3-5.28-5.51-4-7.9-9-5.3-13.47a31.84,31.84,0,0,1,9.12-4.85,42.88,42.88,0,0,0,4.22,11.34c3.26,6.14,8.37,2.86,4.64-2-1.91-2.48-1.75-7.32-1.15-11.47a59.5,59.5,0,0,1,8.66-1.24,52.6,52.6,0,0,0-.47,8.49c.26,7.1,8.18,5.5,5.83-.85-.67-1.81-.09-4.86.84-7.64,7.77.54,11.55,3,11.55,3a77.33,77.33,0,0,1-.08,8.86,9.14,9.14,0,0,1-4,2.69c-3.33.67-6.33,0-5.71,2.64.51,2.19,4,3.13,8.77,1.72A42.91,42.91,0,0,1,470,217a13.44,13.44,0,0,1-4.35.66c-3.32-.25-5.87-2.82-7.66-1.53-1.6,1.15.1,5.43,9.18,6.47a28.33,28.33,0,0,1-7.14,7.72c-2.26-.79-4.29-1.71-5.14-2.66-2.42-2.7-2.19-5.39-4.57-4.27-2,.94-3,6,3.78,10.32a37.08,37.08,0,0,1-9.63,2.61c-1.73-1.58-3.08-3.42-3.26-5.41-.54-6-7.11-3.37-1.4,5.81h0c-9.17,4.32-9.45-4.41-9.45-4.41-7.51.73-9.64-2.39-11-7.13C430.52,231.6,431.67,222.94,428,223.18Z"/><path class="cls-7" d="M422.17,214.81c0,.12,0,.31.12.54a5.69,5.69,0,0,0,.29.8,3.39,3.39,0,0,0,.23.47,4.75,4.75,0,0,0,.3.5,7.35,7.35,0,0,0,.81,1,6.73,6.73,0,0,0,.51.5c.18.17.37.32.57.48a13.44,13.44,0,0,0,1.28.89c.45.27.92.53,1.41.77a28.27,28.27,0,0,0,5.58,2c1,.25,1.81.4,2.26.48q.74-1,1.61-1.92a29.13,29.13,0,0,1,3.51-3.21c.45-.35.93-.69,1.41-1-.39-.42-.9-1-1.5-1.73s-1.36-1.67-2.09-2.68a37.74,37.74,0,0,1-2.13-3.26c-.33-.57-.64-1.16-.92-1.75a17.5,17.5,0,0,1-.73-1.77l-.15-.44-.12-.44c-.09-.29-.14-.58-.19-.86s-.07-.56-.11-.82,0-.53,0-.78,0-.49.07-.71.09-.43.14-.63l.2-.53c.07-.16.16-.3.22-.42a3.31,3.31,0,0,1,.38-.55l.14-.19-.14.19a3.28,3.28,0,0,0-.35.56c-.06.13-.14.27-.2.43l-.17.53c0,.19-.07.4-.11.62s0,.46,0,.7,0,.5.05.76.07.53.14.8.13.55.22.83l.13.42.16.42a17.21,17.21,0,0,0,.78,1.72c.3.57.63,1.13,1,1.69a37.25,37.25,0,0,0,2.22,3.13c.76,1,1.5,1.83,2.16,2.56s1.22,1.32,1.62,1.73h0q1.05-.7,2.17-1.34c1.49-.86,3-1.68,4.54-2.51s3-1.66,4.47-2.54l.51-.32-.28-.41c-.17-.28-.38-.58-.58-.94l-.32-.54-.31-.6c-.22-.4-.41-.85-.62-1.31s-.39-.94-.56-1.44-.34-1-.46-1.53l-.19-.78-.14-.78c0-.26-.1-.51-.12-.77l-.07-.76c0-.25-.05-.49-.05-.73v-.7q0-.34,0-.67l.06-.62c0-.4.07-.76.12-1.08l.17-.82.15-.71-.11.72-.13.82c0,.32,0,.68-.07,1.08l0,.61,0,.66,0,.69c0,.24.06.48.09.72l.1.74c0,.25.11.5.16.75l.17.76.23.75c.14.5.34,1,.52,1.47s.41.93.61,1.38.43.86.67,1.24l.33.56.33.51c.21.33.43.61.6.88l.33.43c1-.66,2-1.33,3-2,.65-.48,1.28-1,1.89-1.44s1.2-1,1.76-1.44,1.1-1,1.62-1.42,1-.93,1.48-1.37l.69-.65.64-.64c.42-.42.82-.81,1.18-1.19.72-.77,1.36-1.42,1.87-2l1.61-1.76-1.42,1.92c-.46.61-1,1.32-1.71,2.15-.34.41-.71.83-1.1,1.28l-.6.69-.66.7c-.89,1-1.89,2-3,3-.55.51-1.12,1-1.73,1.53s-1.23,1-1.88,1.52c-1.31,1-2.68,2-4.15,2.89-.89.55-1.8,1.09-2.72,1.61.45.15,1.05.34,1.77.55s1.74.47,2.76.67l.78.16.8.13c.54.1,1.09.16,1.64.23s1.11.09,1.65.14,1.08,0,1.61,0l1.5-.09,1.33-.19,1.11-.27a5.71,5.71,0,0,0,.83-.28l.72-.27-.71.31a5.75,5.75,0,0,1-.82.32l-1.1.33-1.34.25-1.51.16c-.53,0-1.07,0-1.63,0s-1.12,0-1.68-.06-1.12-.08-1.67-.15l-.82-.1-.79-.12c-1-.16-2-.37-2.83-.56-1.25-.29-2.17-.57-2.54-.68l-.84.47c-1.25.68-2.5,1.33-3.72,2a14.83,14.83,0,0,1,1.76.85,27.07,27.07,0,0,1,2.66,1.72c.47.34.94.7,1.42,1.08s.95.77,1.41,1.18c.93.8,1.82,1.65,2.67,2.41a13.39,13.39,0,0,0,2.47,1.88,4.35,4.35,0,0,0,2.1.56,4.45,4.45,0,0,0,.62,0l.22,0-.22,0a4.45,4.45,0,0,1-.62.07,4.19,4.19,0,0,1-1-.07,4.91,4.91,0,0,1-1.19-.41,13.56,13.56,0,0,1-2.58-1.8c-.88-.74-1.8-1.54-2.76-2.3q-.71-.57-1.44-1.11c-.49-.35-1-.69-1.44-1a26.46,26.46,0,0,0-2.67-1.56,13.49,13.49,0,0,0-2-.83l-.38-.11a42,42,0,0,0-4.06,2.59c-.5.37-1,.75-1.45,1.14l.11.06a3,3,0,0,1,.38.33,5.31,5.31,0,0,1,.67.9,40.57,40.57,0,0,1,2.32,5.16c.39.94.78,1.88,1.2,2.74.21.43.42.84.63,1.22a11.72,11.72,0,0,0,.66,1,6,6,0,0,0,.67.78,3.43,3.43,0,0,0,.63.49l.26.14.21.07.17.06-.18,0-.21-.06-.27-.13a3.48,3.48,0,0,1-.66-.46,6.09,6.09,0,0,1-.72-.76,11.88,11.88,0,0,1-.73-1c-.23-.37-.47-.77-.7-1.2-.46-.84-.91-1.77-1.34-2.69a40.41,40.41,0,0,0-2.53-4.95,4.62,4.62,0,0,0-.61-.74,1.23,1.23,0,0,0-.52-.32l-.09,0h0c-.47.41-.93.83-1.37,1.26s-1,1-1.46,1.57c-.23.26-.46.51-.67.77L435,225c-.28.34-.53.68-.77,1s-.2.5-.31.83a12.67,12.67,0,0,0-.71,3.44,7.45,7.45,0,0,0,.12,1.87,5.55,5.55,0,0,0,.55,1.54,5,5,0,0,0,.35.56c.12.16.23.29.32.4l.31.32-.32-.3c-.09-.11-.21-.23-.34-.39a5,5,0,0,1-.38-.55,5.65,5.65,0,0,1-.62-1.55,7.63,7.63,0,0,1-.2-1.91,12.61,12.61,0,0,1,.5-3.24l-.55.82-.42.64-.37.6-.66,1.07-1.19,2.06.25-.57c.17-.37.4-.92.73-1.61s.73-1.52,1.27-2.44a33.58,33.58,0,0,1,1.89-3c.24-.35.49-.7.76-1.06-.47-.1-1.19-.26-2.07-.5a28.55,28.55,0,0,1-5.58-2.12c-.48-.25-1-.52-1.41-.81a13.6,13.6,0,0,1-1.27-.93c-.2-.16-.39-.33-.56-.5a6.93,6.93,0,0,1-.5-.51,7.44,7.44,0,0,1-.8-1,4.83,4.83,0,0,1-.29-.51,3.43,3.43,0,0,1-.22-.48,5.7,5.7,0,0,1-.27-.81c-.06-.23-.08-.42-.1-.54l0-.19Z"/><path class="cls-3" d="M246.18,371.3s6.36-9.18-1.93-24.34a36.15,36.15,0,0,0-25-18.17s4.35,9.59,5.07,18.71C225.9,367.29,239.24,377.71,246.18,371.3Z"/><path class="cls-7" d="M246.06,369.5c0-.44-.05-.94-.1-1.5h0l.17-.46a12.16,12.16,0,0,0,.43-1.39c.11-.47.22-.94.3-1.42s.15-1,.19-1.55a14.26,14.26,0,0,0,.05-1.56c-.24,1-.48,2-.77,3-.14.49-.29,1-.46,1.45l-.12.34c-.09-.67-.21-1.39-.36-2.15-.1-.54-.24-1.1-.36-1.68s-.29-1.17-.47-1.77c-.28-1-.62-2-1-3.07l0-.12c.07-.16.11-.33.16-.49a9.55,9.55,0,0,0,.25-1l.08-.5c0-.17,0-.34.07-.51,0-.34.06-.67.09-1a19.2,19.2,0,0,0,0-2c0-.34,0-.67-.08-1s-.08-.67-.14-1a33.24,33.24,0,0,1-.29,4c-.05.32-.1.65-.16,1,0,.16-.06.32-.1.48l-.11.48c-.07.24-.14.48-.21.71-.47-1.17-1-2.36-1.54-3.53s-1.34-2.59-2.07-3.86c-.36-.6-.74-1.18-1.11-1.77v-.05c0-.19,0-.38,0-.57s0-.38-.07-.57-.06-.4-.09-.6c-.13-.69-.29-1.38-.49-2.05s-.46-1.48-.73-2.2-.54-1.38-.86-2c.19.71.37,1.43.55,2.15s.34,1.43.48,2.15.28,1.43.37,2.15c0,.14,0,.27,0,.41l-.45-.66c-.43-.58-.85-1.16-1.28-1.72l-1.31-1.63-1.33-1.53c-.44-.49-.9-1-1.33-1.41s-.87-.88-1.29-1.3-.83-.81-1.24-1.17c-.82-.73-1.56-1.4-2.26-2s-1.29-1.05-1.81-1.43l-1.62-1.18,1.46,1.37c.47.42,1,1,1.65,1.59s1.32,1.34,2.08,2.11c.38.38.75.81,1.15,1.24s.81.87,1.21,1.34.82.95,1.24,1.45l1.25,1.55,1.24,1.64,1.22,1.71.55.82-1.83-.7-1.62-.65c-.54-.22-1.08-.44-1.61-.68l-1.59-.72-.78-.39c-.29-.13-.57-.29-.85-.44l-1-.54-.48-.29-.73-.48-.69-.54.6.65.66.59c.23.19.47.36.7.54s.48.34.73.5c.49.34,1,.63,1.52.93l.78.42.42.22c.49.24,1.29.64,1.79.86s1.2.52,1.81.76c.94.39,1.9.72,2.86,1.05.34.56.69,1.12,1,1.68.73,1.24,1.44,2.49,2.06,3.76s1.22,2.53,1.75,3.77l.09.22-.28,0c-.3,0-.6,0-.9,0s-.61,0-.91,0l-.91-.1-.9-.15-.9-.2c-.3-.07-.59-.17-.89-.24s-.59-.17-.88-.27-.59-.19-.88-.3l-.87-.33c-.29-.1-.58-.23-.86-.36l-.86-.37c-.28-.13-.56-.28-.84-.41l-.84-.41-1.67-.87q.75.57,1.52,1.12c.53.34,1.06.68,1.61,1s1.1.62,1.68.88l.87.4c.29.13.59.23.89.35s.6.23.9.32.61.2.92.27l.93.22,1.07.19.9.08c.3,0,.6,0,.9,0s.65,0,1,0l.5-.07c.36.91.71,1.8,1,2.67.4,1.17.74,2.29,1,3.33.19.68.35,1.34.49,1.95l-.71.82-1.31-.09-1.26-.11-1.25-.13-1.25-.16-.62-.09-.62-.1-.62-.11-.62-.12c-.42-.07-.83-.18-1.25-.26.38.19.77.38,1.17.53s.8.3,1.22.43.82.25,1.24.34.84.19,1.26.27l.63.11.64.1,1.28.14c.43,0,.86.07,1.28.08l1.15,0c.11.57.2,1.08.26,1.52.09.63.16,1.12.19,1.46l0,.52A18.12,18.12,0,0,0,246.06,369.5Z"/><path class="cls-3" d="M332.44,233.54s8.14-7.64,3.22-24.21a36.15,36.15,0,0,0-20.61-23s2.24,10.29,1,19.36C313.46,225.36,324.31,238.35,332.44,233.54Z"/><path class="cls-7" d="M332.87,231.58c.07-.43.15-.93.21-1.49h0l.14-.21c.29-.45.56-.9.79-1.37s.45-.95.64-1.43.37-1,.51-1.48a14.27,14.27,0,0,0,.38-1.51c-.44.94-.89,1.86-1.38,2.76q-.36.68-.76,1.33l-.19.3c.05-.67.09-1.4.1-2.18,0-.55,0-1.12,0-1.71s0-1.2-.09-1.83c-.06-1-.18-2.11-.33-3.21l.07-.11c.1-.14.17-.3.26-.45a9.55,9.55,0,0,0,.45-.93l.19-.48c.07-.16.11-.32.17-.48.12-.32.2-.65.3-1a19.16,19.16,0,0,0,.42-2c.06-.33.1-.66.13-1s.06-.67.08-1a33.26,33.26,0,0,1-1.11,3.82c-.12.31-.23.62-.36.92-.07.15-.12.3-.2.45l-.21.44c-.12.22-.23.44-.36.65-.21-1.24-.44-2.51-.77-3.78s-.76-2.81-1.21-4.21c-.23-.66-.47-1.31-.71-2v0c0-.19.05-.38.08-.57s0-.38.05-.57,0-.38,0-.56a22,22,0,0,0-.06-2.24c-.06-.74-.13-1.48-.25-2.21s-.24-1.46-.41-2.18c0,.74.06,1.48.08,2.21s0,1.47,0,2.2,0,1.46-.09,2.18c0,.14,0,.28,0,.41l-.3-.74c-.29-.66-.58-1.31-.89-2l-.94-1.87-1-1.77c-.33-.57-.68-1.12-1-1.66s-.66-1-1-1.54-.64-1-1-1.41c-.64-.89-1.23-1.7-1.8-2.39s-1-1.3-1.47-1.77l-1.33-1.49,1.14,1.64c.38.51.78,1.17,1.28,1.9s1,1.58,1.59,2.5c.3.45.57,1,.86,1.45s.61,1,.9,1.57.61,1.1.9,1.68l.9,1.77.87,1.86.83,1.93.36.92-1.64-1.07-1.45-1c-.48-.33-1-.66-1.43-1l-1.4-1-.68-.54c-.23-.18-.45-.36-.67-.55s-.45-.37-.66-.57-.44-.39-.64-.59l-.61-.63-.56-.67.45.76.52.72c.18.23.38.45.57.68s.4.43.61.65c.41.43.85.83,1.29,1.22l.67.58c.22.2.46.37.69.56.46.37.93.72,1.41,1.08s1,.68,1.45,1c.84.58,1.7,1.11,2.58,1.63.22.62.44,1.24.65,1.86.46,1.36.89,2.73,1.23,4.11s.66,2.73.92,4.05l0,.24-.28,0c-.3,0-.59-.09-.89-.16s-.59-.15-.88-.23l-.87-.29-.85-.34-.84-.39c-.28-.13-.54-.29-.82-.42s-.54-.29-.81-.45-.53-.31-.79-.48l-.78-.51c-.26-.16-.51-.35-.76-.53l-.76-.54c-.25-.18-.49-.39-.74-.58l-.74-.58q-.71-.61-1.45-1.2.61.71,1.25,1.41c.45.44.89.89,1.36,1.32s.95.84,1.46,1.21l.76.57c.26.18.53.35.8.52s.53.35.82.5.55.32.84.46l.87.41.89.36.92.3c.31.08.62.18.94.23s.64.12,1,.16l.51,0c.16,1,.31,1.91.41,2.82.14,1.23.25,2.4.3,3.48s.08,2,.07,2.88l-.92-.24-1.21-.35-1.2-.37-1.2-.39-1.19-.42-.59-.22-.59-.23-.59-.24-.58-.25c-.39-.16-.77-.35-1.17-.52.34.26.67.53,1,.76s.72.46,1.1.67.75.41,1.14.59.78.37,1.18.53l.6.24.6.23,1.22.41c.41.13.82.25,1.24.35l1.11.27c0,.58,0,1.1-.06,1.54,0,.63-.08,1.13-.12,1.47l-.07.52A18.11,18.11,0,0,0,332.87,231.58Z"/><path class="cls-3" d="M280,271.49s-3.57-10.58-20.67-13a36.15,36.15,0,0,0-29.5,9.18s10.29,2.24,18,7.11C264.65,285.35,281,280.88,280,271.49Z"/><path class="cls-7" d="M278.38,270.28c-.36-.24-.79-.52-1.27-.81h0l-.14-.21c-.29-.45-.59-.88-.92-1.29s-.67-.8-1-1.18-.74-.74-1.13-1.08a14.25,14.25,0,0,0-1.22-1c.67.79,1.32,1.59,1.94,2.4.31.41.61.82.89,1.24l.2.3c-.59-.33-1.24-.66-1.94-1-.49-.24-1-.47-1.56-.71s-1.11-.47-1.7-.68c-1-.37-2-.72-3.06-1l-.07-.11c-.09-.15-.2-.28-.3-.42a9.56,9.56,0,0,0-.66-.8l-.35-.37c-.12-.13-.24-.24-.36-.36s-.5-.45-.76-.67a19.16,19.16,0,0,0-1.62-1.2c-.28-.19-.56-.37-.85-.54s-.58-.33-.88-.49a33.22,33.22,0,0,1,3,2.6c.23.24.46.47.68.71s.23.24.33.37l.31.37.44.6c-1.21-.32-2.46-.65-3.75-.87s-2.87-.48-4.33-.65c-.69-.07-1.39-.11-2.08-.17l0,0-.48-.31c-.16-.11-.33-.19-.49-.28l-.5-.26a22,22,0,0,0-2.06-.88c-.7-.26-1.4-.49-2.12-.7s-1.43-.39-2.16-.54c.69.27,1.37.56,2,.84s1.35.58,2,.9,1.32.63,1.95,1l.36.21-.8,0c-.72,0-1.44,0-2.15,0l-2.09.08-2,.15c-.66.06-1.3.15-1.92.22s-1.23.17-1.81.26-1.15.18-1.68.3c-1.07.22-2.06.41-2.92.64s-1.61.4-2.22.6l-1.91.59,2-.35c.62-.13,1.39-.23,2.26-.37s1.86-.26,2.93-.41c.54-.08,1.1-.12,1.68-.18s1.18-.13,1.8-.16,1.25-.09,1.9-.12l2-.08,2.06,0,2.1,0,1,.05-1.65,1.05-1.49.91c-.5.3-1,.6-1.51.88l-1.53.85-.78.4c-.26.14-.52.26-.78.38s-.52.25-.79.36-.53.24-.81.33l-.82.29-.85.23.88-.09.87-.18c.29-.07.57-.16.86-.24s.56-.19.84-.28c.56-.19,1.1-.43,1.65-.66l.81-.37c.27-.12.53-.26.79-.39.53-.26,1-.55,1.56-.83l1.52-.9c.87-.52,1.71-1.09,2.55-1.67l2,.18c1.43.15,2.85.33,4.25.59s2.75.53,4.07.85l.23.06-.14.24c-.16.25-.33.5-.52.74s-.38.47-.58.7l-.63.67-.66.64-.7.6c-.23.2-.49.38-.72.57s-.49.37-.74.55-.5.36-.76.52l-.78.5c-.26.17-.53.32-.8.47l-.81.46c-.27.15-.55.28-.83.43l-.83.43-1.7.81,1.81-.55c.59-.22,1.18-.44,1.76-.69s1.16-.51,1.71-.82l.84-.46c.28-.16.54-.34.81-.51s.54-.34.79-.53.52-.37.77-.57l.74-.62.7-.66.66-.71c.2-.25.42-.49.6-.76s.38-.53.55-.81l.24-.44c.95.25,1.87.51,2.74.8,1.18.38,2.28.77,3.29,1.17s1.87.77,2.65,1.13c-.2.25-.39.49-.6.73l-.82,1c-.28.32-.55.63-.84.94s-.57.62-.85.93-.58.61-.88.91l-.45.44-.45.44-.46.43c-.15.15-.31.28-.47.43-.31.29-.64.56-1,.84.38-.2.76-.39,1.12-.62s.72-.47,1.07-.72.69-.51,1-.79.66-.55,1-.85l.47-.44.46-.45c.3-.31.59-.62.88-.94s.56-.65.83-1,.47-.59.7-.9c.52.25,1,.49,1.38.7.56.3,1,.54,1.29.72l.44.28A18.1,18.1,0,0,0,278.38,270.28Z"/><path class="cls-8" d="M355.46,422.92v20a86.28,86.28,0,0,0,85.4-73.94l6.35-44,6.51-45-29.58-1-9.27,56.68-7,42.73a53.1,53.1,0,0,1-52.42,44.55Z"/><path class="cls-9" d="M415,335.64A85.85,85.85,0,0,0,447.31,325l6.51-45-29.58-1Z"/><path class="cls-8" d="M408.22,300h38.07a37.65,37.65,0,0,0,9.83-1.31h0c15.32-4.11,27.87-17.38,29.92-33.11l.68-5.13c2.48-19-11.31-34.43-30.81-34.43H418.38a41,41,0,0,0-15.3,3h.42c-13.17,5.28-23.49,17.41-25.34,31.53l-.67,5.12C375,284.62,388.77,300,408.22,300Z"/><path class="cls-9" d="M408.22,300h38.2a37.39,37.39,0,0,0,9.77-1.3h0c13.11-5.27,23.37-17.34,25.21-31.39l.67-5.1c2.46-18.89-11.24-34.2-30.6-34.2H413.37l-9.83,1h0c-13.17,5.28-23.49,17.41-25.34,31.53l-.67,5.12C375,284.62,388.77,300,408.22,300Z"/><path class="cls-10" d="M406.29,293h33.94a36.57,36.57,0,0,0,35.49-30.71l.6-4.59c2.21-17-10.09-30.71-27.48-30.71H414.91a36.46,36.46,0,0,0-26.19,11.64,34.4,34.4,0,0,0-9.3,19.07l-.6,4.59C376.59,279.25,388.9,293,406.29,293Z"/><path class="cls-11" d="M406.39,293h33.78a35.54,35.54,0,0,0,20.75-6.92,34.16,34.16,0,0,0,9.24-19l.59-4.57c2.2-16.88-10-30.57-27.34-30.57H409.62a35.58,35.58,0,0,0-20.72,6.89,34.24,34.24,0,0,0-9.26,19l-.6,4.57C376.83,279.31,389.08,293,406.39,293Z"/><path class="cls-12" d="M295.13,226c2.67-6.33,19.34-10.4,19.42-6.37s-12.93,24-12.93,24Z"/><path class="cls-13" d="M293,255.32c-.2-13.73,9.75-48.46,18-62.91l7.45,3.26s-7.28,39-5.88,52.1S310,269.9,301.17,272.07,293,258.21,293,255.32Z"/><path class="cls-13" d="M324,175.41c-5.08,8.95,1.31,14.89-5.55,20.27-4.25,3.33-8.62-1.09-8.62-1.09-1.34-5.65-5.66-13.69-8-17.27s-.21-3.17-.21-3.17c-.25-.31-.5-.6-.75-.88-1.88-2.19-3.58-3.52-1.33-3.71,2.54-.23,8.15,5.73,8.15,5.73-5.95-10.45-9.1-10.22-6.84-10.66,3.1-.61,9.6,7.64,9.79,7.89-2.48-6.84-5.4-9.57-3.18-9.31s8.19,11.74,10.32,16c.48,1,.77,1.56.77,1.56C322.12,173.2,324,175.41,324,175.41Z"/><path class="cls-14" d="M317.7,179.2c.48,1,.77,1.56.77,1.56a7,7,0,0,0-2.63,6.42A6.22,6.22,0,0,1,317.7,179.2Z"/><path class="cls-14" d="M307.21,180.54c-.57-.83-3.81-5.64-5.68-6.39-.25-.31-.5-.6-.75-.88C302.79,172.28,306.64,179.44,307.21,180.54Z"/><path class="cls-15" d="M346.86,213.55C331.92,218,315.1,246,315.1,246l-.55-26.34s-9.76,10.7-19.42,6.37c0,0-10.62,39.95-2.48,51.89s49.14-15.34,49.14-15.34Z"/><path class="cls-12" d="M307.21,336.25c-2.35,29.42,37.43,77.91,112.51,59.16l-48.32-96L324,257.23S311.12,287.33,307.21,336.25Z"/><path class="cls-16" d="M388.8,135.15s12.33,0,20.54,18.48c6.1,13.75,1.08,51.44,9,66.88s13.38,46.49.28,55.9-45,3.67-54.91-12.91-20.76-84.77-13.19-110.23S385,131.4,388.8,135.15Z"/><path class="cls-12" d="M387.25,203.6c-4.35-1.93-21.62-5.8-38.54,10.51S380,229.91,380,229.91l17.2-10S396.71,207.8,387.25,203.6Z"/><path class="cls-6" d="M348.72,214.11s17.1-4.57,31.17-2c10.33,1.85,30.85.7,37.68,13.8,8.46,16.25-10,42.18-21.76,58.78-4.4,6.19-13.67,23.35-15.55,39.81,0,0-31.14,9-58-2.7l-2-38.2S300.91,247.71,348.72,214.11Z"/><path class="cls-9" d="M345.19,411.32s15.1,7.06,18.68,6.79c38.82-2.93,47.64-35.86,44.25-48.8-9-34.73-27.27-48.87-27.27-48.87-4.52,1.48-10.52,2.28-17,2.68a240.43,240.43,0,0,1-27.81-.26c-2.64-.16-5-.33-7-.49-4.16-.33-6.78-.61-6.78-.61-5,9.65-9.69,31.64-13.39,53-.19,1.11-.38,2.21-.56,3.29-2.73,16.14-11,30-3.77,35.44C318.94,424.39,345.19,411.32,345.19,411.32Z"/><path class="cls-13" d="M365,413.5c11.61-36.76-8-69.89-8-69.89-37.24-7.45-95.28-3.28-101.45,0-8,4.27-17.37,36.75-18,40.77-2,12.17-20.26,97.45-31.1,133.2-2.07,6.82-12.12,20.38-16,23.54l-.1,0a14.34,14.34,0,0,0-5.21,2.76A11.19,11.19,0,0,0,183.2,546h21.4a29.72,29.72,0,0,0,4.16-5.43c3.37-5.4,9.86-4.18,9.86-4.18,2,1.75,2.33,9.74,2.38,11.6h2.52c.88-2.23,3.94-12.54,3-16.39-.77-3.1-3.09-10.28-4.09-13.72a11.44,11.44,0,0,1-.56-2.78c2.8-11.74,12.43-51.79,29.17-84.08,11.33-21.85,16.11-32.51,18.91-49.4C307,383.8,365,413.5,365,413.5Z"/><path class="cls-14" d="M348.15,409l-16.8-41.29c-37.24-7.45-52.53,8.74-62.6,8.91-16.15.28-17.62,27.75-14,44.71,1.81,8.59,33.26,124,32,129.77-1.55,7-12.12,20.38-16,23.54l-.1,0a14.34,14.34,0,0,0-5.21,2.76,6.69,6.69,0,0,0-1.86,2.54h21.4c1.11-1.56,2.51-3.25,4.16-5.89,3.37-5.4,9.86-4.18,9.86-4.18,2,1.75,2.33,9.74,2.38,12.07h2.52c.88-2.69,3.94-13,3-16.86-.77-3.1-3.2-10.25-4.09-13.72C297.94,533,294,528.18,291,477.61c-1.63-27.64,0-48.51-11.44-62.44C279.61,415.17,322.83,418.5,348.15,409Z"/><path class="cls-13" d="M357,343.61c-37.24-7.45-95.28-3.28-101.45,0-8,4.27,9.26,33.07,17.88,32.08,37,2.17,47.21,32.61,91.53,37.81a60.29,60.29,0,0,0,4.5-35.39C365.68,356.68,357,343.61,357,343.61Z"/><path class="cls-14" d="M386.07,188.09s-4.76,15.47-1.53,30.92c0,0-10.6,10.8-17.09,1.24,0,0,1.91-14.62-4-32.65C359.41,175.52,386.07,188.09,386.07,188.09Z"/><path class="cls-17" d="M354,171.72c.56-4.88-.5-9-2.37-9.23s-5.29,2.76-5.85,7.65,1.94,9.82,3.81,10S353.47,176.61,354,171.72Z"/><path class="cls-18" d="M358.26,172.62c.81-7.17-.91-13.26-3.84-13.61s-6,5.19-6.76,12.36.91,13.26,3.84,13.61S357.45,179.79,358.26,172.62Z"/><path class="cls-13" d="M369.6,200.35c-13.11-2.3-19-12.17-14.48-37.84,2.33-13.24,10.5-20.18,25.17-17.6s19.43,11.79,17.11,25C392.55,197.53,383.14,202.73,369.6,200.35Z"/><ellipse class="cls-19" cx="386.46" cy="178.5" rx="2.5" ry="3" transform="translate(207.41 564.7) rotate(-89.92)"/><path class="cls-19" d="M362.4,174.23a2.77,2.77,0,0,1-3.52,1.66,2.82,2.82,0,0,1-2.37-3.12,2.77,2.77,0,0,1,3.52-1.66A2.81,2.81,0,0,1,362.4,174.23Z"/><path class="cls-18" d="M386.13,163.94a.66.66,0,0,1-.77-.26c-1.48-2.22-4.69-2.71-4.72-2.71a.67.67,0,1,1,.19-1.32c.16,0,3.84.58,5.64,3.29a.66.66,0,0,1-.19.92Z"/><path class="cls-18" d="M367.34,158.54a.66.66,0,0,1-.36,0s-3.22-.64-5.36.94a.67.67,0,0,1-.79-1.07c2.62-1.94,6.27-1.2,6.42-1.17a.67.67,0,0,1,.08,1.28Z"/><path class="cls-18" d="M384.38,170.29c-.25,1.65-1.09,2.86-1.88,2.69s-1.23-1.63-1-3.28,1.09-2.86,1.88-2.69S384.63,168.64,384.38,170.29Z"/><path class="cls-18" d="M365.38,168.29c-.25,1.65-1.09,2.86-1.88,2.69s-1.23-1.63-1-3.28,1.09-2.86,1.88-2.69S365.63,166.64,365.38,168.29Z"/><path class="cls-18" d="M364.81,183.71s8,2.58,12.55,1.12c0,0-3.44,5.63-7.8,4.3A6.63,6.63,0,0,1,364.81,183.71Z"/><path class="cls-18" d="M379.17,169.14s1.9-3.8,3.42-3.23,2.11,4.21,2.11,4.21l2.54-.82-2.38-.1s-.58-3.79-2.14-4.08C380.52,164.71,379.17,169.14,379.17,169.14Z"/><path class="cls-18" d="M366.36,167.39s-.49-4.22-2.11-4.21-3.42,3.23-3.42,3.23l-2.11-1.64,2.27.71s1.84-3.37,3.4-3.1C366.61,162.77,366.36,167.39,366.36,167.39Z"/><path class="cls-19" d="M370.7,177.54a4.12,4.12,0,0,0,1,.21l.13-1.43a1.65,1.65,0,0,1-1.7-1.33,1.77,1.77,0,0,1,.6-1.78c.24-.12.53,0,.86.37l1-1a2.06,2.06,0,0,0-2.56-.67,3.15,3.15,0,0,0-1.36,3.33A2.94,2.94,0,0,0,370.7,177.54Z"/><path class="cls-16" d="M393,159.29a25.6,25.6,0,0,0-1.09-2.9c-.19-.45-.4-.88-.61-1.28a12.46,12.46,0,0,0-.6-1.11,17,17,0,0,0-1-1.59l-.4-.58.29.65a16.71,16.71,0,0,1,.69,1.72,12,12,0,0,1,.38,1.17c.12.42.26.86.35,1.32a24.39,24.39,0,0,1,.52,2.91,28.12,28.12,0,0,1,.21,2.89,87.83,87.83,0,0,0-11.59-3.2c0-.63-.07-1.27-.08-1.92,0-1,0-1.91.1-2.81a24.15,24.15,0,0,1,.35-2.43l.24-1a7,7,0,0,1,.23-.73l.22-.63-.34.58a7.19,7.19,0,0,0-.37.68L380,152a24.86,24.86,0,0,0-.84,2.4c-.25.9-.48,1.87-.66,2.85-.1.57-.19,1.13-.27,1.69l-2-.34c-1.08-6.6.39-10.78.39-10.78-1.92,2.44-3.24,6.74-4.07,10.29-1.86-.2-3.61-.33-5.23-.41.13-.39.27-.78.41-1.18.35-1,.74-1.93,1.12-2.82s.8-1.7,1.18-2.38c.18-.34.38-.64.55-.91a7,7,0,0,1,.46-.68l.42-.58-.52.5a7.12,7.12,0,0,0-.58.6c-.21.24-.47.5-.71.81-.5.61-1.06,1.36-1.62,2.18s-1.12,1.72-1.65,2.64c-.34.59-.66,1.17-1,1.75-2.22,0-4.15,0-5.76.11a31.16,31.16,0,0,1,1.3-3.17,26.48,26.48,0,0,1,1.43-2.64c.25-.41.5-.81.76-1.16s.49-.71.74-1l.66-.83.56-.6.49-.53-.57.43-.66.5-.81.71c-.31.25-.6.56-.93.88s-.66.67-1,1a27.69,27.69,0,0,0-2,2.44A34.69,34.69,0,0,0,357.1,158c-1.81.19-2.8.4-2.8.4,2.33-11.46,13-20.27,25.06-18.45C399.92,143,395.63,164,395.63,164l-1.7-.66A30.55,30.55,0,0,0,393,159.29Z"/><path class="cls-18" d="M392.93,176.05c-1.29,7.16.14,13.39,3.19,13.91s6.57-4.86,7.86-12-.14-13.39-3.19-13.91S394.22,168.89,392.93,176.05Z"/><path class="cls-20" d="M400.55,171.33s1.77-28-17.23-32.3-29.14,12.79-29.14,12.79,8.37-18.67,30.62-15.17,19.48,36,19.48,36Z"/><path class="cls-17" d="M397.59,177.36c-.85,4.84,0,9,1.82,9.36s5.44-2.44,6.29-7.29-1.35-9.92-3.21-10.25S398.44,172.52,397.59,177.36Z"/><path class="cls-18" d="M368.69,197.16l2.32.27a1.5,1.5,0,0,0,1.66-1.32h0a1.5,1.5,0,0,0-1.32-1.66l-2.32-.27a1.5,1.5,0,0,0-1.66,1.32h0A1.5,1.5,0,0,0,368.69,197.16Z"/><path class="cls-21" d="M373.57,196.66c17.8,0,25.23-12.56,25.31-12.69a.5.5,0,0,0-.87-.5c-.07.13-7.68,12.92-26,12.16a.5.5,0,0,0,0,1C372.49,196.65,373,196.66,373.57,196.66Z"/><path class="cls-9" d="M289.15,415.62s.41,4.23,9,7.87,30.59-5.37,65.71-5.38c15.43,0,14.45-29.78,8.19-52.91-.19-.7-.39-1.4-.59-2.1,0,0,0,0,0,0a91,91,0,0,0-5.2-14c-.39-.81-.78-1.58-1.18-2.32-1.87-3.45-3.83-6-5.76-7.32,0,0-2.62-.41-7.11-.94l-1.71-.2c-3.22-.36-7.2-.75-11.73-1.1l-2.56-.19c-3.69-.25-7.68-.46-11.89-.6l-1.64-.05c-4-.11-8.23-.15-12.52-.07l-1.43,0c-4,.08-8,.27-12.05.57l-2.49.2c-4.06.35-8.11.83-12.08,1.47h0l-.9.14c-3.85.63-7.63,1.41-11.28,2.36C269.93,341.06,299,374.12,289.15,415.62Z"/><circle class="cls-17" cx="393.96" cy="369.5" r="1.5"/><circle class="cls-17" cx="393.96" cy="379.5" r="1.5"/><circle class="cls-17" cx="386.96" cy="363.5" r="1.5"/><circle class="cls-17" cx="386.96" cy="374.5" r="1.5"/><circle class="cls-17" cx="379.96" cy="348.5" r="1.5"/><circle class="cls-17" cx="379.96" cy="358.5" r="1.5"/><circle class="cls-17" cx="379.96" cy="369.5" r="1.5"/><circle class="cls-17" cx="379.96" cy="379.5" r="1.5"/><circle class="cls-17" cx="372.96" cy="332.5" r="1.5"/><circle class="cls-17" cx="372.96" cy="342.5" r="1.5"/><circle class="cls-17" cx="372.96" cy="353.5" r="1.5"/><circle class="cls-17" cx="372.96" cy="363.5" r="1.5"/><circle class="cls-17" cx="372.96" cy="374.5" r="1.5"/><circle class="cls-17" cx="365.96" cy="326.5" r="1.5"/><circle class="cls-17" cx="365.96" cy="337.5" r="1.5"/><circle class="cls-17" cx="365.96" cy="348.5" r="1.5"/><circle class="cls-17" cx="365.96" cy="358.5" r="1.5"/><circle class="cls-17" cx="365.96" cy="369.5" r="1.5"/><circle class="cls-17" cx="365.96" cy="379.5" r="1.5"/><circle class="cls-17" cx="358.96" cy="332.5" r="1.5"/><circle class="cls-17" cx="358.96" cy="342.5" r="1.5"/><circle class="cls-17" cx="358.96" cy="353.5" r="1.5"/><circle class="cls-17" cx="358.96" cy="363.5" r="1.5"/><circle class="cls-17" cx="358.96" cy="374.5" r="1.5"/><circle class="cls-17" cx="351.96" cy="326.5" r="1.5"/><circle class="cls-17" cx="351.96" cy="337.5" r="1.5"/><circle class="cls-17" cx="351.96" cy="348.5" r="1.5"/><circle class="cls-17" cx="351.96" cy="358.5" r="1.5"/><circle class="cls-17" cx="351.96" cy="369.5" r="1.5"/><circle class="cls-17" cx="351.96" cy="379.5" r="1.5"/><circle class="cls-17" cx="344.96" cy="332.5" r="1.5"/><circle class="cls-17" cx="344.96" cy="342.5" r="1.5"/><circle class="cls-17" cx="344.96" cy="353.5" r="1.5"/><circle class="cls-17" cx="344.96" cy="363.5" r="1.5"/><circle class="cls-17" cx="344.96" cy="374.5" r="1.5"/><circle class="cls-17" cx="337.96" cy="326.5" r="1.5"/><circle class="cls-17" cx="337.96" cy="337.5" r="1.5"/><circle class="cls-17" cx="337.96" cy="348.5" r="1.5"/><circle class="cls-17" cx="337.96" cy="358.5" r="1.5"/><circle class="cls-17" cx="337.96" cy="369.5" r="1.5"/><circle class="cls-17" cx="337.96" cy="379.5" r="1.5"/><circle class="cls-17" cx="330.96" cy="332.5" r="1.5"/><circle class="cls-17" cx="330.96" cy="342.5" r="1.5"/><circle class="cls-17" cx="330.96" cy="353.5" r="1.5"/><circle class="cls-17" cx="330.96" cy="363.5" r="1.5"/><circle class="cls-17" cx="330.96" cy="374.5" r="1.5"/><circle class="cls-17" cx="323.96" cy="326.5" r="1.5"/><circle class="cls-17" cx="323.96" cy="337.5" r="1.5"/><circle class="cls-17" cx="323.96" cy="348.5" r="1.5"/><circle class="cls-17" cx="323.96" cy="358.5" r="1.5"/><circle class="cls-17" cx="323.96" cy="369.5" r="1.5"/><circle class="cls-17" cx="323.96" cy="379.5" r="1.5"/><circle class="cls-17" cx="316.96" cy="342.5" r="1.5"/><circle class="cls-17" cx="316.96" cy="353.5" r="1.5"/><circle class="cls-17" cx="316.96" cy="363.5" r="1.5"/><circle class="cls-17" cx="316.96" cy="374.5" r="1.5"/><path class="cls-17" d="M308.15,337.41a1.33,1.33,0,0,0,2.65,0,1.3,1.3,0,0,0-.63-1.12l-1.43,0A1.28,1.28,0,0,0,308.15,337.41Z"/><circle class="cls-17" cx="309.96" cy="348.5" r="1.5"/><circle class="cls-17" cx="309.96" cy="358.5" r="1.5"/><circle class="cls-17" cx="309.96" cy="369.5" r="1.5"/><circle class="cls-17" cx="309.96" cy="379.5" r="1.5"/><circle class="cls-17" cx="302.96" cy="342.5" r="1.5"/><circle class="cls-17" cx="302.96" cy="353.5" r="1.5"/><circle class="cls-17" cx="302.96" cy="363.5" r="1.5"/><circle class="cls-17" cx="302.96" cy="374.5" r="1.5"/><path class="cls-17" d="M294.15,337.41a1.33,1.33,0,0,0,2.65,0,1.27,1.27,0,0,0-.11-.52l-2.49.2A.86.86,0,0,0,294.15,337.41Z"/><circle class="cls-17" cx="295.96" cy="348.5" r="1.5"/><circle class="cls-17" cx="295.96" cy="358.5" r="1.5"/><circle class="cls-17" cx="295.96" cy="369.5" r="1.5"/><circle class="cls-17" cx="295.96" cy="379.5" r="1.5"/><circle class="cls-17" cx="288.96" cy="342.5" r="1.5"/><circle class="cls-17" cx="288.96" cy="353.5" r="1.5"/><circle class="cls-17" cx="288.96" cy="363.5" r="1.5"/><path class="cls-17" d="M281.21,338.7l.27,0a1.21,1.21,0,0,0,.63-.17Z"/><circle class="cls-17" cx="281.96" cy="348.5" r="1.5"/><path class="cls-22" d="M392.8,209.91s-5.61,35-26.43,59.63,26.77,116.62,53.35,125.87A266.26,266.26,0,0,0,394.8,320.6S406.9,285,416,263.41,431.3,222.91,392.8,209.91Z"/><path class="cls-15" d="M387.25,203.6s15.48,5,17.13,25.63l-14.84,6.43,4.75,7.5s-11.81,13.54-23.66,20.9C370.64,264.06,397.71,209.8,387.25,203.6Z"/><path class="cls-22" d="M367.21,205.06s-11.17-1.78-28.67,27.29-31.34,103.9-31.34,103.9,1.27-72.57,13.05-93.7,23.56-28,31.21-31.24C351.47,211.31,363.13,203,367.21,205.06Z"/><path class="cls-15" d="M367.21,205.06s-24.06,8.15-41.51,57.49c0,0-.6-14.65,0-21.27l11.51-8.93-5.91-4.18S359.88,199.71,367.21,205.06Z"/><path class="cls-12" d="M322.52,272.63s-8.61,10.36,0,19.69c0,0,6.95-2.12,6.95-7.4S329.9,275.27,322.52,272.63Z"/><path class="cls-13" d="M371.4,299.44s2.24-14-6.09-17.35-66.76-12.56-66.76-12.56l-5.49,6.32S348.55,305.78,371.4,299.44Z"/><path class="cls-13" d="M306.33,276c-.4,4.12-8.82,3.72-8.82,3.72s-4.78.78-7.29.87c0,0,.24,3.06-1.13,3.25s-2-4.89-2-4.89-2.49,5.29-3.51,4.89-.8-5.69-.8-5.69-2.94,0-3.13.8a19.17,19.17,0,0,1-1.22,3.06c-.61,1.25-1.34,2.26-1.93,1.86-1.18-.8-.59-7.08-.59-7.08a10.85,10.85,0,0,0-2.14.19c-.59.21-2,4.71-3.93,2a10.64,10.64,0,0,1,3.93-7.27c1.79-1.34,8.61-3.41,12.54-3.72,5.74-.42,13.41.82,14.85,1.58S306.73,271.83,306.33,276Z"/><path class="cls-14" d="M287.12,278.88s-.61-3.21,1-3.79a31.62,31.62,0,0,1,4.55-1,22.56,22.56,0,0,0-5.65.74c-2.14.73-1.38,6.86-1.38,6.86Z"/><path class="cls-14" d="M286.33,272.63a6.24,6.24,0,0,0-2.73,1.46c-.66.87-.8,4-.8,4s-2.94,0-3.13.8a19.17,19.17,0,0,1-1.22,3.06c0-.54.33-4.68,1.72-6.85S285.65,272.66,286.33,272.63Z"/><path class="cls-14" d="M279.67,272.61s-3.34,2-3.74,4.12a10.85,10.85,0,0,0-2.14.19A6.81,6.81,0,0,1,279.67,272.61Z"/><path class="cls-14" d="M306.33,276c-.4,4.12-8.82,3.72-8.82,3.72s-4.78.78-7.29.87c-.35-1.18.42-1.69.52-2.66,0,0,3.55.07,4.23-.59,0,0,3.32.59,4.8-.38S304,279.39,306.33,276Z"/><path class="cls-15" d="M419.72,229.91c-4.52-8.5-48.05,50.63-48.05,50.63s-27.81-4.75-49.15-7.91c0,0,7,13.59,0,19.69,0,0,45.28,14,58.28,14.67s22.06-16.77,33.5-39.36S421.87,234,419.72,229.91Z"/><path class="cls-11" d="M135.76,307H354.33a2.13,2.13,0,0,0,2.13-2.13V290H136.78a59.09,59.09,0,0,0-1.11,8.74A65.31,65.31,0,0,0,135.76,307Z"/><path class="cls-10" d="M138.54,298h225a2.92,2.92,0,0,0,2.92-2.92V283.92a2.92,2.92,0,0,0-2.92-2.92H142.22a48.55,48.55,0,0,0-2.58,8.5A56.61,56.61,0,0,0,138.54,298Z"/><path class="cls-8" d="M278.52,249h-100a6.25,6.25,0,0,1-6.13-5.59l-6.72-75.83a5.05,5.05,0,0,1,5.14-5.59h100a6.25,6.25,0,0,1,6.13,5.59l6.72,75.83A5.05,5.05,0,0,1,278.52,249Z"/><path class="cls-9" d="M274.66,249h-100a6.25,6.25,0,0,1-6.13-5.59l-6.72-75.83a5.05,5.05,0,0,1,5.14-5.59h100a6.25,6.25,0,0,1,6.13,5.59l6.72,75.83A5.05,5.05,0,0,1,274.66,249Z"/><path class="cls-9" d="M185.21,281h54.57l-4.1-4.24a3.4,3.4,0,0,0-2.08-1l-21.11-2.28,16.18-31.39-4-24.07h-19.6l-9,55.49-7.52,1.91a3.4,3.4,0,0,0-2.44,2.37Z"/><path class="cls-8" d="M194.87,281l9.76-60.25a3.27,3.27,0,0,1,3.23-2.75h12.37a3.27,3.27,0,0,1,3.12,4.24L205.07,281Z"/><path class="cls-8" d="M192.57,192l.89,1.26a7,7,0,0,0,4.78,1.74h32.4a3.3,3.3,0,0,1,3.2,2.95l2.5,24.93a8.38,8.38,0,0,0,4.22,6.47l1,.57-3.2-34.67a4,4,0,0,0-3-3.24Z"/><path class="cls-9" d="M303.46,281v-7.2L337.29,277a2.39,2.39,0,0,1,2.16,2.38V281Z"/><path class="cls-8" d="M303.46,274H246.84a2.39,2.39,0,0,0-2.39,2.39V281h59Z"/><path class="cls-3" d="M459.28,39.1a4.48,4.48,0,0,0-3-6.66,7.82,7.82,0,0,0-15.13.19A4.48,4.48,0,0,0,438.81,39h-5.9a2,2,0,0,0-1.56.72c-2,2.5-.25,5.28,2.13,5.28h25.65a2,2,0,0,0,1.57-.74C462.45,42,461.25,39.6,459.28,39.1Z"/><path class="cls-3" d="M222.45,61.1a4.48,4.48,0,0,0-3-6.66,7.82,7.82,0,0,0-15.13.19A4.48,4.48,0,0,0,202,61h-5.9a2,2,0,0,0-1.56.72c-2,2.5-.25,5.28,2.13,5.28H222.3a2,2,0,0,0,1.57-.74C225.62,64,224.42,61.6,222.45,61.1Z"/><path class="cls-3" d="M177.22,131.22a9.71,9.71,0,0,1,6.4-14.44,16.94,16.94,0,0,1,32.78.4A9.72,9.72,0,0,1,221.58,131h12.76a4.36,4.36,0,0,1,3.45,1.61c4.23,5.4.48,11.39-4.67,11.39H177.58a4.38,4.38,0,0,1-3.48-1.65C170.37,137.5,173,132.29,177.22,131.22Z"/><path class="cls-3" d="M446.69,125.2a9,9,0,0,1,5.91-13.33,15.64,15.64,0,0,1,30.26.37A9,9,0,0,1,487.64,125h11.78a4.07,4.07,0,0,1,3.23,1.56c3.82,5,.37,10.44-4.36,10.44H447a4,4,0,0,1-3.2-1.52C440.36,131,442.76,126.19,446.69,125.2Z"/><path class="cls-3" d="M400,90.1a4.48,4.48,0,0,1,3-6.66,7.82,7.82,0,0,1,15.13.19A4.48,4.48,0,0,1,420.45,90h5.9a2,2,0,0,1,1.56.72c2,2.5.25,5.28-2.14,5.28H400.12a2,2,0,0,1-1.55-.72C396.8,93,398,90.6,400,90.1Z"/></g></g></svg>