<svg xmlns="http://www.w3.org/2000/svg" viewBox="0 0 65.06 65.06"><path d="M48.87,53.28a3.53,3.53,0,0,1-.73.32c-.71.13-.85.56-.82,1.23,0,.91-.23,1.14-1.15,1.14h-4c-.87,0-1.09-.24-1.11-1.12a1.38,1.38,0,0,0-1.35-1.46c-.22,0-.47.27-.66.45-.84.79-1.05.79-1.87,0l-2.54-2.54c-.85-.85-.85-1.06,0-1.91.15-.15.33-.26.51-.41a7.4,7.4,0,0,1-.36-.91.8.8,0,0,0-.94-.68c-1.26,0-1.38-.14-1.38-1.39s0-2.5,0-3.75c0-.87.24-1.09,1.12-1.11a1.37,1.37,0,0,0,1.46-1.35c0-.22-.27-.47-.45-.66-.79-.84-.79-1,0-1.87l2.54-2.54c.85-.85,1.06-.85,1.91,0,.14.15.26.32.41.5a6.12,6.12,0,0,0,1.26-.52,1.08,1.08,0,0,0,.3-.77c.06-1.26.17-1.38,1.42-1.38h3.75c.87,0,1.09.23,1.11,1.11a1.37,1.37,0,0,0,1.35,1.46c.22,0,.47-.26.67-.44.83-.78,1-.79,1.86,0l2.55,2.54c.84.84.83,1.06,0,1.91l-.48.52a3.25,3.25,0,0,1,.25.59c.14.71.54.94,1.26.9.92-.06,1.14.22,1.14,1.15,0,1.32,0,2.65,0,4,0,.87-.24,1.09-1.12,1.11a1.38,1.38,0,0,0-1.46,1.35c0,.22.27.47.46.67.78.83.78,1,0,1.86S52.08,53,51.23,53.8s-1.06.84-1.91,0C49.17,53.65,49.05,53.48,48.87,53.28Zm3.55-3C51,48.58,52,46.19,54.36,45.7v-3c-2.26-.18-3.22-2.55-2-4.53l-2.1-2.1a2.82,2.82,0,0,1-4.52-2H42.64c.14,1.33-.7,1.78-1.74,2.24a2.12,2.12,0,0,1-2.85-.46c-.4.46-.72.84-1.07,1.19s-.72.65-1.07.95a2.85,2.85,0,0,1-1.82,4.71v3a2.82,2.82,0,0,1,2,4.47l2.09,2.18c1.71-1.36,4.12-.34,4.55,2h3a2.84,2.84,0,0,1,4.57-2Z" style="fill:#56b8eb"/><path d="M26.69,54.89c-.32-.26-.6-.52-.91-.73s-.57-.36-.7-.29a1.08,1.08,0,0,0-.39.72C24.6,55.86,24.51,56,23.27,56c-.75,0-1.51,0-2.26,0s-1.06-.33-1-1a1,1,0,0,0,0-.39c-.1-.23-.18-.54-.36-.64s-.48.06-.65.2c-1.09.93-1.14.94-2.15-.07-.46-.46-.92-.92-1.37-1.39-.71-.71-.71-1,0-1.68.05-.06.13-.1.16-.17.09-.24.29-.54.21-.71a.87.87,0,0,0-.67-.33c-1.31-.09-1.4-.17-1.4-1.48v-2c0-1,.22-1.2,1.18-1.21a.8.8,0,0,0,.31,0c.21-.09.52-.17.58-.34a.78.78,0,0,0-.18-.65c-.95-1.14-1-1.15.1-2.2.5-.5,1-1,1.49-1.49a.86.86,0,0,1,1.41,0,1.7,1.7,0,0,0,.34.32c.21.1.48.26.65.19a.8.8,0,0,0,.35-.59c.13-1.49.12-1.49,1.61-1.49h2.11a.86.86,0,0,1,1,1,1.18,1.18,0,0,0,0,.46c.07.22.15.52.31.6a.79.79,0,0,0,.66-.16c1.17-1,1.16-1,2.26.13l1.32,1.32c.66.68.65.95,0,1.64a4.92,4.92,0,0,0-.47.88,4.46,4.46,0,0,0,1,.36c.91.07,1.12.26,1.13,1.2V48.4c0,1.14-.17,1.3-1.3,1.33a1.12,1.12,0,0,0-.7.16c-.34.34-.1.63.17.92.88.94.87,1.08,0,2-.54.54-1.06,1.08-1.61,1.6A4.46,4.46,0,0,1,26.69,54.89ZM23.06,40.4H21.57c-.19,2-1.94,2.75-3.64,1.57l-1,1c1.23,1.62.5,3.37-1.57,3.67V48.1c2.07.27,2.7,1.81,1.58,3.73l.93,1c1.77-1.26,3.36-.6,3.79,1.5h1.44c.19-2,1.94-2.75,3.58-1.61l1.11-1c-1.25-1.66-.52-3.4,1.55-3.7V46.65c-2.07-.27-2.7-1.82-1.58-3.73l-.93-1C25,43.16,23.26,42.44,23.06,40.4Z" style="fill:#56b8eb"/><path d="M30.14,38.74H28.59V23.15c-.75,0-1.45.05-2.13,0-.32,0-.8-.21-.88-.44a1.21,1.21,0,0,1,.25-1c1.94-2.24,3.92-4.45,5.9-6.67.54-.6,1-.6,1.5,0,2,2.21,4,4.43,5.9,6.67a1.24,1.24,0,0,1,.25,1c-.09.23-.56.41-.88.44a20.77,20.77,0,0,1-2.1,0V33.27H34.82V23.15c0-1.48.06-1.54,1.53-1.57l.6,0-4.47-5-4.42,5,.32.09c1.76.09,1.76.09,1.76,1.88V38.74Z" style="fill:#56b8eb"/><path d="M48.89,11l-4.5,5.07h1.13c.79,0,1,.27,1,1.12V30.93H45V17.68c-.78,0-1.48.05-2.17,0a1.17,1.17,0,0,1-.86-.47,1.12,1.12,0,0,1,.22-1q3-3.37,6-6.72c.51-.57.94-.57,1.45,0,2,2.23,4,4.46,6,6.72a1.08,1.08,0,0,1,.25,1,1.35,1.35,0,0,1-.93.49,19.53,19.53,0,0,1-2,0V29.35H51.23V17.57c0-1.34.11-1.44,1.48-1.46h.67Z" style="fill:#56b8eb"/><path d="M13.73,41.09H12.18V29.4a19.79,19.79,0,0,1-2,0,1.33,1.33,0,0,1-1-.45,1.15,1.15,0,0,1,.25-1c1.94-2.24,3.92-4.45,5.9-6.67.54-.6,1-.6,1.5,0,2,2.21,4,4.42,5.9,6.66a1.24,1.24,0,0,1,.24,1c-.08.23-.56.41-.88.44a20.71,20.71,0,0,1-2.1,0v7.78H18.41V29.24c0-1.26.13-1.39,1.37-1.4.2,0,.39,0,.79,0l-4.5-5.07-4.42,5a1.87,1.87,0,0,0,.32.09c1.76.09,1.76.09,1.76,1.89V41.09Z" style="fill:#56b8eb"/><path d="M50.45,44.24A6.25,6.25,0,1,1,44.19,38,6.26,6.26,0,0,1,50.45,44.24Zm-10.93,0a4.68,4.68,0,1,0,4.71-4.63A4.68,4.68,0,0,0,39.52,44.2Z" style="fill:#56b8eb"/><path d="M26.23,47.35a3.91,3.91,0,1,1-4-3.88A3.91,3.91,0,0,1,26.23,47.35Zm-3.89,2.36A2.34,2.34,0,1,0,20,47.4,2.36,2.36,0,0,0,22.34,49.71Z" style="fill:#56b8eb"/></svg>