<svg width="386" height="614" viewBox="0 0 386 614" fill="none" xmlns="http://www.w3.org/2000/svg">
<path d="M205.339 299.79C205.339 347.843 205.339 395.898 205.339 443.955C205.542 465.826 197.455 486.964 182.703 503.119C169.863 517.716 152.536 527.637 133.444 531.324C128.087 532.4 122.634 532.927 117.17 532.895C89.4759 532.861 61.7799 532.861 34.0825 532.895C30.3009 533.137 26.5669 531.947 23.622 529.564C20.6772 527.181 18.737 523.777 18.1868 520.03C18.0609 519.353 18.0052 518.664 18.0209 517.975C18.0209 460.77 18.0393 403.566 18.0762 346.361C18.2674 333.951 19.5696 321.584 21.9671 309.406C24.6447 294.65 28.7723 280.195 34.2899 266.249C41.6605 247.421 51.8481 229.819 64.5045 214.047C76.3265 199.29 90.4369 186.522 106.3 176.226C124.452 164.488 144.641 156.249 165.825 151.934C174.599 150.115 183.492 148.925 192.435 148.372C196.123 148.146 199.811 148.22 203.471 148.008C205.048 147.915 205.371 148.468 205.366 149.948C205.32 172.566 205.309 195.183 205.334 217.798L205.339 299.79Z" fill="#55B9EB"/>
<path d="M205.38 71.338C205.488 81.4613 203.414 91.4892 199.298 100.74C195.182 109.99 189.121 118.246 181.527 124.945C171.367 134.28 158.541 140.205 144.845 141.893C135.42 143.28 125.808 142.647 116.646 140.039C107.485 137.43 98.9827 132.904 91.7042 126.761C78.2606 115.983 69.351 100.556 66.7359 83.5303C64.9162 73.7136 65.2114 63.622 67.6019 53.9283C69.9923 44.2347 74.423 35.1618 80.5984 27.3148C85.8239 20.2282 92.4074 14.2512 99.9658 9.73185C107.524 5.21247 115.907 2.24094 124.625 0.990213C134.531 -0.729935 144.696 -0.203995 154.371 2.52918C164.046 5.26236 172.983 10.133 180.522 16.7813C193.374 27.6866 201.888 42.8346 204.523 59.4774C205.21 63.3916 205.497 67.3656 205.38 71.338Z" fill="#55B9EB"/>
<path d="M219.459 267.936C219.459 228.511 219.459 189.086 219.459 149.662C219.459 147.026 219.261 147.358 221.792 147.404C241.667 147.653 261.28 151.973 279.418 160.099C297.742 168.296 314.232 180.088 327.912 194.775C341.591 209.461 352.181 226.744 359.053 245.597C362.362 254.66 364.749 264.034 366.176 273.576C367.136 279.587 367.641 285.662 367.688 291.749C367.666 334.51 367.666 377.272 367.688 420.036C367.554 423.944 366.07 427.686 363.49 430.625C360.909 433.565 357.39 435.522 353.53 436.163C351.936 436.373 350.33 436.471 348.722 436.458C323.615 436.458 298.513 436.403 273.407 436.458C260.864 436.794 248.616 432.629 238.882 424.717C228.787 416.667 222.091 405.117 220.123 392.361C219.625 389.066 219.4 385.735 219.45 382.403C219.465 344.247 219.469 306.092 219.459 267.936Z" fill="#F39DAA"/>
<path d="M219.045 89.1426C218.942 75.0845 224.07 61.4899 233.433 50.999C238.354 45.3507 244.371 40.7599 251.119 37.5051C257.868 34.2503 265.208 32.3992 272.694 32.064C280.18 31.7288 287.656 32.9165 294.669 35.5551C301.681 38.1937 308.085 42.2282 313.492 47.4141C323.199 56.3577 329.381 68.48 330.918 81.5858C332.076 89.5247 331.533 97.6191 329.323 105.332C327.114 113.045 323.289 120.2 318.102 126.323C309.232 137.16 296.581 144.232 282.699 146.113C268.818 147.995 254.74 144.545 243.303 136.46C237.188 132.216 231.974 126.802 227.964 120.532C223.954 114.261 221.226 107.259 219.939 99.9296C219.237 96.3788 218.937 92.7604 219.045 89.1426Z" fill="#F39DAA"/>
<path d="M11.4423 554.962H0V613.417H11.4423V554.962Z" fill="#55B9EB"/>
<path d="M62.43 600.695V613.422H75.3383L74.9833 600.695L74.8081 594.331L74.7205 591.152C74.6836 590.461 74.6237 589.719 74.5638 589.005C74.5304 588.646 74.4765 588.289 74.4024 587.936L74.1996 586.871C73.5749 584.081 72.4148 581.438 70.7835 579.089C69.2008 576.812 67.2299 574.831 64.961 573.237C60.5266 570.174 55.2376 568.591 49.849 568.712C45.8228 568.819 41.8768 569.862 38.3238 571.758V567.5H24.0325V613.426H38.3238V589.737C38.3125 588.401 38.6128 587.081 39.201 585.881C39.7892 584.682 40.649 583.635 41.7122 582.826L41.7583 582.793C42.9043 581.948 44.1857 581.303 45.5478 580.886C48.3459 579.984 51.3568 579.984 54.1549 580.886C55.5169 581.303 56.7983 581.948 57.9444 582.793C60.1192 584.342 61.6445 586.64 62.2272 589.244L62.3055 589.705C62.3437 589.856 62.3669 590.01 62.3747 590.166C62.3747 590.488 62.4069 590.779 62.43 591.134V600.676V600.695Z" fill="#55B9EB"/>
<path d="M172.962 568.777V572.831C169.608 570.075 165.54 568.328 161.231 567.794C156.922 567.26 152.549 567.96 148.624 569.814C144.698 571.668 141.379 574.599 139.056 578.265C136.732 581.93 135.498 586.181 135.498 590.521C135.498 594.861 136.732 599.111 139.056 602.777C141.379 606.443 144.698 609.374 148.624 611.227C152.549 613.081 156.922 613.782 161.231 613.248C165.54 612.713 169.608 610.967 172.962 608.21V612.265H184.404V568.772L172.962 568.777ZM158.412 602.354C156.07 602.355 153.781 601.661 151.833 600.362C149.886 599.062 148.368 597.214 147.471 595.051C146.574 592.889 146.34 590.509 146.796 588.213C147.253 585.918 148.381 583.809 150.036 582.154C151.692 580.499 153.802 579.372 156.099 578.915C158.396 578.459 160.777 578.693 162.94 579.59C165.104 580.486 166.953 582.003 168.253 583.95C169.554 585.896 170.247 588.185 170.246 590.526C170.243 593.661 168.995 596.666 166.778 598.884C164.56 601.101 161.549 602.349 158.412 602.354Z" fill="#55B9EB"/>
<path d="M98.6424 576.025C98.803 573.396 99.8965 570.912 101.726 569.017C103.556 567.123 106.002 565.944 108.624 565.691C111.246 565.438 113.873 566.129 116.031 567.639C118.189 569.149 119.737 571.379 120.397 573.928L131.554 573.315C130.714 567.862 127.865 562.92 123.567 559.458C119.269 555.996 113.832 554.265 108.322 554.605C102.813 554.944 97.6289 557.329 93.7885 561.292C89.948 565.255 87.728 570.51 87.5643 576.025V613.426H98.6286V594.115H123.726V582.093H98.6286L98.6424 576.025Z" fill="#55B9EB"/>
<path d="M324.948 569.836H313.505V613.417H324.948V569.836Z" fill="#F39DAA"/>
<path d="M324.948 560.118C324.948 556.96 322.386 554.4 319.226 554.4C316.067 554.4 313.505 556.96 313.505 560.118C313.505 563.276 316.067 565.837 319.226 565.837C322.386 565.837 324.948 563.276 324.948 560.118Z" fill="#F39DAA"/>
<path d="M234.027 600.695V613.422H246.936L246.581 600.695L246.405 594.332L246.318 591.152C246.281 590.461 246.221 589.719 246.161 589.005C246.127 588.646 246.073 588.289 246 587.936L245.797 586.871C245.172 584.081 244.012 581.438 242.381 579.089C240.798 576.812 238.827 574.832 236.558 573.237C232.124 570.175 226.835 568.591 221.446 568.712C217.42 568.819 213.474 569.862 209.921 571.758V567.5H195.63V613.426H209.921V589.738C209.91 588.402 210.21 587.081 210.798 585.881C211.386 584.682 212.246 583.636 213.309 582.826L213.356 582.793C214.501 581.947 215.783 581.302 217.145 580.886C219.943 579.984 222.954 579.984 225.752 580.886C227.114 581.303 228.396 581.948 229.542 582.793C231.716 584.342 233.242 586.64 233.824 589.245L233.903 589.705C233.941 589.856 233.964 590.011 233.972 590.166C233.972 590.489 234.004 590.779 234.027 591.134V600.677V600.695Z" fill="#F39DAA"/>
<path d="M374.543 568.772V572.827C371.189 570.071 367.121 568.324 362.812 567.789C358.503 567.255 354.131 567.956 350.205 569.81C346.279 571.663 342.961 574.594 340.637 578.26C338.313 581.926 337.079 586.176 337.079 590.516C337.079 594.856 338.313 599.107 340.637 602.773C342.961 606.439 346.279 609.369 350.205 611.223C354.131 613.077 358.503 613.777 362.812 613.243C367.121 612.709 371.189 610.962 374.543 608.206V612.261H385.976V568.767L374.543 568.772ZM359.994 602.349C357.652 602.349 355.363 601.655 353.416 600.355C351.469 599.054 349.952 597.206 349.056 595.043C348.16 592.881 347.926 590.502 348.383 588.206C348.84 585.911 349.968 583.802 351.624 582.147C353.28 580.493 355.39 579.366 357.687 578.91C359.984 578.454 362.364 578.689 364.527 579.585C366.69 580.482 368.539 581.999 369.839 583.946C371.14 585.892 371.833 588.18 371.832 590.521C371.829 593.658 370.58 596.665 368.361 598.882C366.141 601.1 363.132 602.347 359.994 602.349Z" fill="#F39DAA"/>
<path d="M282.336 602.349C280.638 602.543 278.917 602.376 277.288 601.859C275.659 601.342 274.157 600.486 272.881 599.349C271.605 598.211 270.585 596.817 269.886 595.257C269.187 593.698 268.826 592.008 268.826 590.3C268.826 588.591 269.187 586.901 269.886 585.342C270.585 583.782 271.605 582.388 272.881 581.25C274.157 580.113 275.659 579.257 277.288 578.74C278.917 578.223 280.638 578.056 282.336 578.25C284.598 578.211 286.834 578.724 288.852 579.745C290.87 580.766 292.609 582.263 293.917 584.107L303.598 578.702C301.328 575.132 298.184 572.2 294.463 570.184C290.742 568.169 286.568 567.135 282.336 567.182C279.183 566.993 276.023 567.451 273.053 568.527C270.083 569.604 267.364 571.276 265.064 573.441C262.764 575.606 260.931 578.219 259.679 581.118C258.426 584.017 257.78 587.142 257.78 590.3C257.78 593.457 258.426 596.582 259.679 599.481C260.931 602.38 262.764 604.993 265.064 607.158C267.364 609.323 270.083 610.995 273.053 612.072C276.023 613.148 279.183 613.606 282.336 613.417C286.42 613.457 290.45 612.495 294.074 610.615C297.699 608.735 300.806 605.995 303.123 602.635L293.797 596.645C292.482 598.441 290.755 599.897 288.761 600.89C286.767 601.882 284.564 602.383 282.336 602.349Z" fill="#F39DAA"/>
</svg>
