<svg xmlns="http://www.w3.org/2000/svg" viewBox="0 0 65.06 65.06"><path d="M51.13,24.31c2.38,2.37,4.71,4.66,7,7,.84.84.82,1.11,0,1.95-2.7,2.71-5.33,5.51-8.6,7.58a30.25,30.25,0,0,1-19.15,4.72,1.49,1.49,0,0,0-1,.45q-4.66,4.61-9.27,9.26a3.2,3.2,0,0,1-1.71,1c-3.64.73-7.27,1.53-10.9,2.3-.91.19-1.36-.24-1.17-1.14Q7.54,51.6,8.8,45.87a2.1,2.1,0,0,1,.56-.9q2.18-2.17,4.4-4.32a12.93,12.93,0,0,1,1.12-.88L8.15,33.22c-1-1-1-1.16,0-2.12,2.62-2.6,5.11-5.33,8.22-7.38a30.3,30.3,0,0,1,18.42-5,1.61,1.61,0,0,0,1.34-.5c3.09-3.12,6.2-6.22,9.3-9.34A7.45,7.45,0,1,1,55.89,19.47c-1.6,1.59-3.17,3.21-4.75,4.82C51.11,24.32,51.09,24.38,51.13,24.31ZM9.5,32.16c14.13,16.9,35.44,14.65,47.17,0a39,39,0,0,0-8.55-7.6,28.54,28.54,0,0,0-13.21-4.19,29,29,0,0,0-10.34,1.23C18.42,23.48,13.71,27.4,9.5,32.16ZM8.17,56.66l9.74-2.08c-.58-1.88-1.12-3.67-1.7-5.46a.81.81,0,0,0-.46-.43c-1.81-.6-3.63-1.17-5.5-1.78ZM37.94,19c1.6.44,3.29.91,5,1.34a1,1,0,0,0,.7-.28c1-1,2.07-2.07,3.11-3.09s1.93-1.86,2.87-2.76L46.2,10.72ZM19.25,53.28l8.15-8.11c-1.36-.39-2.92-.86-4.49-1.27a1.06,1.06,0,0,0-.86.16c-1.34,1.28-2.65,2.6-3.95,3.93a.9.9,0,0,0-.28.71C18.29,50.31,18.82,51.91,19.25,53.28ZM47.48,9.34l8,8A5.62,5.62,0,0,0,55,10,5.61,5.61,0,0,0,47.48,9.34ZM45.13,21.06c1.35.75,2.75,1.53,4.16,2.27a.61.61,0,0,0,.56-.11c1.53-1.42,3-2.86,4.48-4.23l-3.55-3.56ZM16.42,40.68l-5,4.87c1.52.49,3.07,1,4.63,1.48a.84.84,0,0,0,.7-.05c1.34-1.27,2.65-2.57,4-3.89Z" style="fill:#56b8eb"/><path d="M54.75,41.71c.17.08.36.14.53.24.8.52,1.6,1,2.39,1.57.45.29.69.69.35,1.2a.79.79,0,0,1-1.24.17c-.82-.53-1.67-1-2.44-1.64a1.24,1.24,0,0,1-.33-.93,2.81,2.81,0,0,1,.38-.93Z" style="fill:#56b8eb"/><path d="M11,22.9a7.51,7.51,0,0,1-.79-.38c-.74-.46-1.47-.95-2.21-1.4-.5-.31-.79-.71-.48-1.26s.82-.48,1.31-.17c.83.54,1.69,1,2.48,1.62a1.14,1.14,0,0,1,.33.93C11.64,22.48,11.27,22.68,11,22.9Z" style="fill:#56b8eb"/><path d="M21.37,17.65a2.48,2.48,0,0,1-.61-.55c-.51-.77-1-1.58-1.43-2.37a.78.78,0,0,1,.18-1.18.81.81,0,0,1,1.22.32c.49.82,1,1.63,1.45,2.47A.86.86,0,0,1,21.37,17.65Z" style="fill:#56b8eb"/><path d="M45.07,46.59a2.35,2.35,0,0,1,.56.49c.52.8,1,1.63,1.47,2.45a.82.82,0,1,1-1.38.87c-.52-.83-1-1.67-1.49-2.53A.84.84,0,0,1,45.07,46.59Z" style="fill:#56b8eb"/><path d="M34.16,51.13c0,.45,0,.9,0,1.35s-.25.88-.82.88a.76.76,0,0,1-.81-.87,19.81,19.81,0,0,1,0-2.78c0-.33.51-.61.78-.91.28.3.68.55.79.9A4.86,4.86,0,0,1,34.16,51.13Z" style="fill:#56b8eb"/><path d="M33.88,13.12a5.41,5.41,0,0,1,0,1.51,1.23,1.23,0,0,1-.79.75c-.2,0-.69-.44-.71-.72a16.92,16.92,0,0,1,0-3c0-.29.51-.53.79-.79.25.28.64.53.73.85a5.17,5.17,0,0,1,0,1.42Z" style="fill:#56b8eb"/><path d="M23.17,32.25a9.92,9.92,0,1,1,9.95,9.93A10,10,0,0,1,23.17,32.25Zm18.18,0a8.28,8.28,0,1,0-8.28,8.27A8.26,8.26,0,0,0,41.35,32.25Z" style="fill:#56b8eb"/><path d="M28.26,32.19A4.84,4.84,0,1,1,33,37.08,4.84,4.84,0,0,1,28.26,32.19Zm8,.06a3.19,3.19,0,1,0-6.38,0,3.19,3.19,0,1,0,6.38,0Z" style="fill:#56b8eb"/></svg>