<svg width="233" height="66" viewBox="0 0 233 66" fill="none" xmlns="http://www.w3.org/2000/svg">
<rect x="0.752197" width="232.248" height="65.9469" rx="32.9734" fill="#062231"/>
<path d="M38.7459 27.7427L44.2464 22.0376L26.8263 12.0649C26.1448 11.6721 25.3776 11.467 24.5979 11.469C23.8182 11.471 23.052 11.6802 22.3724 12.0766L38.7459 27.7427ZM20.7351 13.6793C20.3353 14.3572 20.1062 15.1329 20.1062 15.9553V44.2497C20.1062 45.0464 20.3151 45.8058 20.6924 46.4697L37.158 29.392L20.7351 13.6793ZM51.5392 26.2122L46.2925 23.2094L40.3967 29.3221L47.6222 36.2338L51.5415 33.9904C52.952 33.1798 53.7965 31.7261 53.7965 30.1001C53.7951 29.3008 53.5844 28.5168 53.1868 27.832C52.7892 27.1473 52.2197 26.5874 51.5392 26.2122ZM38.8088 30.9714L22.2983 48.0957C22.9953 48.515 23.7858 48.7382 24.5915 48.7433C25.3551 48.7433 26.1233 48.543 26.8263 48.14L45.5513 37.4218L38.8088 30.9714Z" fill="#009FE3"/>
<path d="M73.0128 36.2972C72.5483 35.4026 71.9031 34.7316 71.0774 34.2844C70.2516 33.8199 69.2968 33.5876 68.213 33.5876C67.0259 33.5876 65.9679 33.8543 65.0389 34.3876C64.1099 34.9209 63.3788 35.6778 62.8455 36.6584C62.3294 37.639 62.0713 38.7745 62.0713 40.0647C62.0713 41.355 62.3294 42.499 62.8455 43.4969C63.3788 44.4775 64.1099 45.2344 65.0389 45.7677C65.9679 46.301 67.0259 46.5677 68.213 46.5677C69.8129 46.5677 71.1118 46.1204 72.1096 45.2258C73.1074 44.3312 73.7181 43.1184 73.9418 41.5873H67.2066V39.239H77.09V41.5356C76.9008 42.9291 76.4019 44.2108 75.5933 45.3806C74.8019 46.5505 73.7611 47.4881 72.4708 48.1934C71.1978 48.8816 69.7785 49.2256 68.213 49.2256C66.527 49.2256 64.9873 48.8386 63.5938 48.0644C62.2003 47.273 61.0907 46.1806 60.2649 44.7871C59.4564 43.3936 59.0521 41.8195 59.0521 40.0647C59.0521 38.31 59.4564 36.7359 60.2649 35.3424C61.0907 33.9489 62.2003 32.8651 63.5938 32.0909C65.0045 31.2995 66.5442 30.9039 68.213 30.9039C70.1226 30.9039 71.8171 31.377 73.2966 32.3232C74.7933 33.2521 75.8772 34.5768 76.5481 36.2972H73.0128ZM86.159 49.303C84.8171 49.303 83.6042 49.002 82.5204 48.3999C81.4366 47.7805 80.585 46.9204 79.9657 45.8193C79.3464 44.7011 79.0367 43.4108 79.0367 41.9485C79.0367 40.5034 79.355 39.2218 79.9915 38.1035C80.628 36.9853 81.4968 36.1251 82.5978 35.523C83.6988 34.9209 84.9289 34.6198 86.288 34.6198C87.6471 34.6198 88.8771 34.9209 89.9781 35.523C91.0792 36.1251 91.9479 36.9853 92.5845 38.1035C93.221 39.2218 93.5393 40.5034 93.5393 41.9485C93.5393 43.3936 93.2124 44.6753 92.5587 45.7935C91.9049 46.9118 91.0104 47.7805 89.8749 48.3999C88.7567 49.002 87.518 49.303 86.159 49.303ZM86.159 46.7483C86.9159 46.7483 87.6213 46.5677 88.275 46.2064C88.9459 45.8451 89.4878 45.3032 89.9007 44.5807C90.3136 43.8581 90.5201 42.9807 90.5201 41.9485C90.5201 40.9163 90.3222 40.0475 89.9265 39.3422C89.5308 38.6196 89.0061 38.0777 88.3524 37.7165C87.6987 37.3552 86.9933 37.1746 86.2364 37.1746C85.4794 37.1746 84.7741 37.3552 84.1203 37.7165C83.4838 38.0777 82.9763 38.6196 82.5978 39.3422C82.2193 40.0475 82.0301 40.9163 82.0301 41.9485C82.0301 43.4796 82.4172 44.6667 83.1913 45.5097C83.9827 46.3354 84.9719 46.7483 86.159 46.7483ZM102.615 49.303C101.273 49.303 100.06 49.002 98.9763 48.3999C97.8925 47.7805 97.0409 46.9204 96.4216 45.8193C95.8023 44.7011 95.4926 43.4108 95.4926 41.9485C95.4926 40.5034 95.8109 39.2218 96.4474 38.1035C97.0839 36.9853 97.9527 36.1251 99.0537 35.523C100.155 34.9209 101.385 34.6198 102.744 34.6198C104.103 34.6198 105.333 34.9209 106.434 35.523C107.535 36.1251 108.404 36.9853 109.04 38.1035C109.677 39.2218 109.995 40.5034 109.995 41.9485C109.995 43.3936 109.668 44.6753 109.015 45.7935C108.361 46.9118 107.466 47.7805 106.331 48.3999C105.213 49.002 103.974 49.303 102.615 49.303ZM102.615 46.7483C103.372 46.7483 104.077 46.5677 104.731 46.2064C105.402 45.8451 105.944 45.3032 106.357 44.5807C106.77 43.8581 106.976 42.9807 106.976 41.9485C106.976 40.9163 106.778 40.0475 106.382 39.3422C105.987 38.6196 105.462 38.0777 104.808 37.7165C104.155 37.3552 103.449 37.1746 102.692 37.1746C101.935 37.1746 101.23 37.3552 100.576 37.7165C99.9397 38.0777 99.4322 38.6196 99.0537 39.3422C98.6753 40.0475 98.486 40.9163 98.486 41.9485C98.486 43.4796 98.8731 44.6667 99.6473 45.5097C100.439 46.3354 101.428 46.7483 102.615 46.7483ZM118.632 34.6198C119.733 34.6198 120.705 34.8435 121.548 35.2908C122.408 35.7209 123.079 36.2628 123.561 36.9165V34.8521H126.529V49.303C126.529 50.6105 126.253 51.7718 125.703 52.7868C125.152 53.819 124.352 54.6275 123.303 55.2125C122.271 55.7974 121.032 56.0898 119.587 56.0898C117.66 56.0898 116.06 55.634 114.787 54.7222C113.514 53.8276 112.792 52.6061 112.619 51.0578H115.535C115.759 51.7976 116.232 52.3911 116.955 52.8384C117.695 53.3029 118.572 53.5351 119.587 53.5351C120.774 53.5351 121.729 53.1738 122.451 52.4513C123.191 51.7287 123.561 50.6793 123.561 49.303V46.929C123.062 47.5999 122.382 48.1676 121.522 48.6321C120.679 49.0794 119.716 49.303 118.632 49.303C117.393 49.303 116.258 48.9934 115.226 48.3741C114.211 47.7375 113.402 46.8601 112.8 45.7419C112.215 44.6065 111.923 43.3248 111.923 41.8969C111.923 40.469 112.215 39.2046 112.8 38.1035C113.402 37.0025 114.211 36.1509 115.226 35.5488C116.258 34.9295 117.393 34.6198 118.632 34.6198ZM123.561 41.9485C123.561 40.9679 123.354 40.1164 122.942 39.3938C122.546 38.6713 122.021 38.1207 121.367 37.7423C120.714 37.3638 120.008 37.1746 119.251 37.1746C118.494 37.1746 117.789 37.3638 117.135 37.7423C116.482 38.1035 115.948 38.6455 115.535 39.368C115.14 40.0733 114.942 40.9163 114.942 41.8969C114.942 42.8775 115.14 43.7377 115.535 44.4775C115.948 45.2172 116.482 45.7849 117.135 46.1806C117.806 46.5591 118.512 46.7483 119.251 46.7483C120.008 46.7483 120.714 46.5591 121.367 46.1806C122.021 45.8021 122.546 45.2516 122.942 44.5291C123.354 43.7893 123.561 42.9291 123.561 41.9485ZM133.334 29.9749V49.0708H130.392V29.9749H133.334ZM150.228 41.6131C150.228 42.1464 150.194 42.6281 150.125 43.0582H139.261C139.347 44.1936 139.769 45.1054 140.526 45.7935C141.282 46.4817 142.211 46.8257 143.312 46.8257C144.895 46.8257 146.013 46.1634 146.667 44.8387H149.841C149.411 46.1462 148.628 47.2214 147.493 48.0644C146.375 48.8902 144.981 49.303 143.312 49.303C141.953 49.303 140.732 49.002 139.648 48.3999C138.582 47.7805 137.739 46.9204 137.119 45.8193C136.517 44.7011 136.216 43.4108 136.216 41.9485C136.216 40.4862 136.508 39.2046 137.093 38.1035C137.696 36.9853 138.53 36.1251 139.597 35.523C140.68 34.9209 141.919 34.6198 143.312 34.6198C144.654 34.6198 145.85 34.9123 146.899 35.4972C147.949 36.0821 148.766 36.9079 149.351 37.9745C149.936 39.0239 150.228 40.2368 150.228 41.6131ZM147.157 40.6841C147.14 39.6003 146.753 38.7315 145.996 38.0777C145.239 37.424 144.302 37.0971 143.183 37.0971C142.168 37.0971 141.3 37.424 140.577 38.0777C139.855 38.7143 139.424 39.583 139.287 40.6841H147.157ZM172.368 36.4778C172.368 37.3896 172.153 38.2498 171.723 39.0583C171.293 39.8669 170.605 40.5292 169.658 41.0453C168.712 41.5443 167.499 41.7937 166.02 41.7937H162.768V49.0708H159.827V31.1361H166.02C167.396 31.1361 168.557 31.377 169.504 31.8587C170.467 32.3232 171.181 32.9597 171.646 33.7682C172.127 34.5768 172.368 35.48 172.368 36.4778ZM166.02 39.3938C167.138 39.3938 167.973 39.1444 168.523 38.6455C169.074 38.1293 169.349 37.4068 169.349 36.4778C169.349 34.5166 168.239 33.536 166.02 33.536H162.768V39.3938H166.02ZM178.116 29.9749V49.0708H175.174V29.9749H178.116ZM180.997 41.8969C180.997 40.469 181.29 39.2046 181.875 38.1035C182.477 37.0025 183.285 36.1509 184.3 35.5488C185.333 34.9295 186.468 34.6198 187.707 34.6198C188.825 34.6198 189.797 34.8435 190.623 35.2908C191.466 35.7209 192.137 36.2628 192.636 36.9165V34.8521H195.603V49.0708H192.636V46.9548C192.137 47.6257 191.457 48.1848 190.597 48.6321C189.737 49.0794 188.756 49.303 187.655 49.303C186.434 49.303 185.315 48.9934 184.3 48.3741C183.285 47.7375 182.477 46.8601 181.875 45.7419C181.29 44.6065 180.997 43.3248 180.997 41.8969ZM192.636 41.9485C192.636 40.9679 192.429 40.1164 192.016 39.3938C191.62 38.6713 191.096 38.1207 190.442 37.7423C189.788 37.3638 189.083 37.1746 188.326 37.1746C187.569 37.1746 186.864 37.3638 186.21 37.7423C185.556 38.1035 185.023 38.6455 184.61 39.368C184.214 40.0733 184.017 40.9163 184.017 41.8969C184.017 42.8775 184.214 43.7377 184.61 44.4775C185.023 45.2172 185.556 45.7849 186.21 46.1806C186.881 46.5591 187.586 46.7483 188.326 46.7483C189.083 46.7483 189.788 46.5591 190.442 46.1806C191.096 45.8021 191.62 45.2516 192.016 44.5291C192.429 43.7893 192.636 42.9291 192.636 41.9485ZM212.266 34.8521L203.544 55.7544H200.499L203.389 48.8386L197.79 34.8521H201.067L205.067 45.6903L209.221 34.8521H212.266Z" fill="#009FE3"/>
<path d="M64.7264 18.7918C64.5199 18.3942 64.2332 18.096 63.8662 17.8972C63.4992 17.6908 63.0748 17.5876 62.5931 17.5876C62.0656 17.5876 61.5953 17.7061 61.1825 17.9431C60.7696 18.1801 60.4446 18.5166 60.2076 18.9524C59.9782 19.3882 59.8635 19.8929 59.8635 20.4663C59.8635 21.0398 59.9782 21.5482 60.2076 21.9917C60.4446 22.4275 60.7696 22.7639 61.1825 23.001C61.5953 23.238 62.0656 23.3565 62.5931 23.3565C63.3042 23.3565 63.8815 23.1577 64.325 22.7601C64.7684 22.3625 65.0399 21.8235 65.1393 21.143H62.1459V20.0993H66.5385V21.12C66.4544 21.7394 66.2327 22.309 65.8733 22.8289C65.5216 23.3489 65.059 23.7656 64.4855 24.079C63.9197 24.3849 63.2889 24.5378 62.5931 24.5378C61.8438 24.5378 61.1595 24.3658 60.5402 24.0217C59.9209 23.67 59.4277 23.1845 59.0607 22.5651C58.7013 21.9458 58.5216 21.2462 58.5216 20.4663C58.5216 19.6864 58.7013 18.9868 59.0607 18.3675C59.4277 17.7481 59.9209 17.2664 60.5402 16.9224C61.1672 16.5707 61.8515 16.3948 62.5931 16.3948C63.4419 16.3948 64.195 16.6051 64.8525 17.0256C65.5178 17.4385 65.9994 18.0272 66.2976 18.7918H64.7264ZM73.6199 21.1544C73.6199 21.3915 73.6046 21.6056 73.574 21.7967H68.7456C68.7838 22.3013 68.9711 22.7066 69.3075 23.0124C69.644 23.3183 70.0569 23.4712 70.5462 23.4712C71.2496 23.4712 71.7466 23.1768 72.0372 22.5881H73.4479C73.2567 23.1692 72.9088 23.647 72.4042 24.0217C71.9072 24.3887 71.2879 24.5722 70.5462 24.5722C69.9422 24.5722 69.3993 24.4384 68.9176 24.1708C68.4435 23.8955 68.0689 23.5132 67.7936 23.0239C67.526 22.5269 67.3922 21.9535 67.3922 21.3035C67.3922 20.6536 67.5222 20.084 67.7822 19.5947C68.0498 19.0977 68.4206 18.7154 68.8947 18.4478C69.3764 18.1801 69.9269 18.0463 70.5462 18.0463C71.1426 18.0463 71.674 18.1763 72.1404 18.4363C72.6068 18.6963 72.97 19.0633 73.23 19.5373C73.4899 20.0037 73.6199 20.5428 73.6199 21.1544ZM72.2551 20.7416C72.2474 20.2599 72.0754 19.8737 71.739 19.5832C71.4026 19.2926 70.9858 19.1474 70.4889 19.1474C70.0377 19.1474 69.6516 19.2926 69.3305 19.5832C69.0094 19.8661 68.8182 20.2522 68.757 20.7416H72.2551ZM76.432 19.2162V22.7142C76.432 22.9513 76.4855 23.1233 76.5925 23.2303C76.7072 23.3297 76.8984 23.3794 77.166 23.3794H77.9688V24.469H76.9366C76.3479 24.469 75.8967 24.3314 75.5833 24.0561C75.2698 23.7809 75.113 23.3336 75.113 22.7142V19.2162H74.3675V18.1496H75.113V16.5783H76.432V18.1496H77.9688V19.2162H76.432ZM82.8183 17.3123C82.5813 17.3123 82.3825 17.232 82.2219 17.0715C82.0614 16.9109 81.9811 16.7121 81.9811 16.4751C81.9811 16.2381 82.0614 16.0393 82.2219 15.8787C82.3825 15.7181 82.5813 15.6378 82.8183 15.6378C83.0477 15.6378 83.2427 15.7181 83.4032 15.8787C83.5638 16.0393 83.6441 16.2381 83.6441 16.4751C83.6441 16.7121 83.5638 16.9109 83.4032 17.0715C83.2427 17.232 83.0477 17.3123 82.8183 17.3123ZM83.4606 18.1496V24.469H82.1531V18.1496H83.4606ZM86.7026 19.2162V22.7142C86.7026 22.9513 86.7561 23.1233 86.8631 23.2303C86.9778 23.3297 87.169 23.3794 87.4366 23.3794H88.2394V24.469H87.2072C86.6185 24.469 86.1673 24.3314 85.8539 24.0561C85.5404 23.7809 85.3836 23.3336 85.3836 22.7142V19.2162H84.6381V18.1496H85.3836V16.5783H86.7026V18.1496H88.2394V19.2162H86.7026ZM95.1648 24.5722C94.5684 24.5722 94.0294 24.4384 93.5477 24.1708C93.066 23.8955 92.6875 23.5132 92.4123 23.0239C92.137 22.5269 91.9994 21.9535 91.9994 21.3035C91.9994 20.6613 92.1408 20.0916 92.4237 19.5947C92.7066 19.0977 93.0928 18.7154 93.5821 18.4478C94.0714 18.1801 94.6181 18.0463 95.2222 18.0463C95.8262 18.0463 96.3729 18.1801 96.8622 18.4478C97.3516 18.7154 97.7377 19.0977 98.0206 19.5947C98.3035 20.0916 98.445 20.6613 98.445 21.3035C98.445 21.9458 98.2997 22.5154 98.0091 23.0124C97.7186 23.5094 97.321 23.8955 96.8164 24.1708C96.3194 24.4384 95.7689 24.5722 95.1648 24.5722ZM95.1648 23.4368C95.5013 23.4368 95.8147 23.3565 96.1053 23.1959C96.4035 23.0354 96.6443 22.7945 96.8278 22.4734C97.0113 22.1523 97.1031 21.7623 97.1031 21.3035C97.1031 20.8448 97.0152 20.4587 96.8393 20.1452C96.6634 19.824 96.4302 19.5832 96.1397 19.4226C95.8491 19.2621 95.5357 19.1818 95.1992 19.1818C94.8628 19.1818 94.5493 19.2621 94.2588 19.4226C93.9759 19.5832 93.7503 19.824 93.5821 20.1452C93.4139 20.4587 93.3298 20.8448 93.3298 21.3035C93.3298 21.984 93.5018 22.5116 93.8459 22.8863C94.1976 23.2533 94.6373 23.4368 95.1648 23.4368ZM102.926 18.0463C103.423 18.0463 103.866 18.1496 104.256 18.356C104.654 18.5624 104.964 18.8683 105.185 19.2735C105.407 19.6788 105.518 20.1681 105.518 20.7416V24.469H104.222V20.9365C104.222 20.3707 104.08 19.9387 103.798 19.6405C103.515 19.3347 103.128 19.1818 102.639 19.1818C102.15 19.1818 101.76 19.3347 101.469 19.6405C101.186 19.9387 101.045 20.3707 101.045 20.9365V24.469H99.7375V18.1496H101.045V18.8721C101.259 18.6121 101.53 18.4095 101.859 18.2643C102.196 18.119 102.551 18.0463 102.926 18.0463Z" fill="#009FE3"/>
</svg>
