<svg width="233" height="66" viewBox="0 0 233 66" fill="none" xmlns="http://www.w3.org/2000/svg">
<rect width="232.248" height="65.9469" rx="32.9734" fill="#062231"/>
<path d="M51.8332 14.4015C52.5987 13.5114 53.1824 12.4775 53.5508 11.3592C53.9191 10.241 54.0648 9.06028 53.9796 7.88501C51.6294 8.07639 49.4478 9.19149 47.9048 10.99C47.1659 11.852 46.606 12.8549 46.2582 13.9391C45.9103 15.0233 45.7817 16.167 45.8799 17.3022C47.0263 17.3119 48.1595 17.0553 49.1919 16.5523C50.2242 16.0492 51.128 15.3133 51.8332 14.4015ZM56.936 29.5998C56.9496 28.0345 57.3583 26.4985 58.1236 25.1367C58.8889 23.775 59.9855 22.6324 61.3099 21.8168C60.474 20.6018 59.3691 19.6 58.0826 18.8909C56.7962 18.1817 55.3637 17.7847 53.8986 17.7312C50.7397 17.4044 47.8238 19.5902 46.1431 19.5902C44.4624 19.5902 42.0933 17.7721 39.4608 17.8129C37.7399 17.8701 36.063 18.3763 34.5938 19.2821C33.1246 20.1879 31.9131 21.4623 31.0776 22.9812C27.5137 29.2321 30.1664 38.5268 33.7303 43.5725C35.3502 46.0442 37.3752 48.8428 40.0481 48.7407C42.721 48.6386 43.5917 47.0656 46.6899 47.0656C49.788 47.0656 50.7397 48.7407 53.3721 48.6794C56.0046 48.6181 57.8675 46.1464 59.5684 43.6746C60.7734 41.8801 61.7146 39.9191 62.3629 37.8527C60.758 37.1622 59.3889 36.0127 58.4244 34.546C57.46 33.0794 56.9426 31.3598 56.936 29.5998Z" fill="#009FE3"/>
<path d="M79.4115 45.4064H71.9022L70.6119 49.0708H67.5411L73.9666 31.1103H77.3729L83.7984 49.0708H80.7018L79.4115 45.4064ZM78.5858 43.0066L75.6698 34.6714L72.7279 43.0066H78.5858ZM89.5341 36.9423C90.033 36.2886 90.7125 35.7381 91.5727 35.2908C92.4329 34.8435 93.4049 34.6198 94.4887 34.6198C95.7273 34.6198 96.8542 34.9295 97.8692 35.5488C98.9014 36.1509 99.71 37.0025 100.295 38.1035C100.88 39.2046 101.172 40.469 101.172 41.8969C101.172 43.3248 100.88 44.6065 100.295 45.7419C99.71 46.8601 98.9014 47.7375 97.8692 48.3741C96.8542 48.9934 95.7273 49.303 94.4887 49.303C93.4049 49.303 92.4415 49.088 91.5985 48.6579C90.7555 48.2106 90.0674 47.6601 89.5341 47.0064V55.8318H86.5923V34.8521H89.5341V36.9423ZM98.1788 41.8969C98.1788 40.9163 97.9724 40.0733 97.5595 39.368C97.1638 38.6455 96.6305 38.1035 95.9596 37.7423C95.3058 37.3638 94.6005 37.1746 93.8435 37.1746C93.1038 37.1746 92.3984 37.3638 91.7275 37.7423C91.0738 38.1207 90.5405 38.6713 90.1276 39.3938C89.7319 40.1164 89.5341 40.9679 89.5341 41.9485C89.5341 42.9291 89.7319 43.7893 90.1276 44.5291C90.5405 45.2516 91.0738 45.8021 91.7275 46.1806C92.3984 46.5591 93.1038 46.7483 93.8435 46.7483C94.6005 46.7483 95.3058 46.5591 95.9596 46.1806C96.6305 45.7849 97.1638 45.2172 97.5595 44.4775C97.9724 43.7377 98.1788 42.8775 98.1788 41.8969ZM107.023 36.9423C107.522 36.2886 108.202 35.7381 109.062 35.2908C109.922 34.8435 110.894 34.6198 111.978 34.6198C113.216 34.6198 114.343 34.9295 115.358 35.5488C116.391 36.1509 117.199 37.0025 117.784 38.1035C118.369 39.2046 118.661 40.469 118.661 41.8969C118.661 43.3248 118.369 44.6065 117.784 45.7419C117.199 46.8601 116.391 47.7375 115.358 48.3741C114.343 48.9934 113.216 49.303 111.978 49.303C110.894 49.303 109.931 49.088 109.088 48.6579C108.245 48.2106 107.557 47.6601 107.023 47.0064V55.8318H104.081V34.8521H107.023V36.9423ZM115.668 41.8969C115.668 40.9163 115.462 40.0733 115.049 39.368C114.653 38.6455 114.12 38.1035 113.449 37.7423C112.795 37.3638 112.09 37.1746 111.333 37.1746C110.593 37.1746 109.888 37.3638 109.217 37.7423C108.563 38.1207 108.03 38.6713 107.617 39.3938C107.221 40.1164 107.023 40.9679 107.023 41.9485C107.023 42.9291 107.221 43.7893 107.617 44.5291C108.03 45.2516 108.563 45.8021 109.217 46.1806C109.888 46.5591 110.593 46.7483 111.333 46.7483C112.09 46.7483 112.795 46.5591 113.449 46.1806C114.12 45.7849 114.653 45.2172 115.049 44.4775C115.462 43.7377 115.668 42.8775 115.668 41.8969ZM134.183 49.2514C132.979 49.2514 131.895 49.045 130.932 48.6321C129.968 48.202 129.211 47.5999 128.661 46.8257C128.11 46.0516 127.835 45.1484 127.835 44.1162H130.983C131.052 44.8903 131.353 45.5269 131.887 46.0258C132.437 46.5247 133.203 46.7741 134.183 46.7741C135.198 46.7741 135.99 46.5333 136.557 46.0516C137.125 45.5527 137.409 44.9161 137.409 44.142C137.409 43.5399 137.228 43.0496 136.867 42.6711C136.523 42.2926 136.084 42.0001 135.551 41.7937C135.035 41.5873 134.312 41.3636 133.383 41.1228C132.213 40.8131 131.259 40.5034 130.519 40.1938C129.796 39.8669 129.177 39.368 128.661 38.6971C128.145 38.0261 127.887 37.1315 127.887 36.0133C127.887 34.9811 128.145 34.0779 128.661 33.3038C129.177 32.5296 129.9 31.9361 130.829 31.5232C131.758 31.1103 132.833 30.9039 134.054 30.9039C135.792 30.9039 137.211 31.3426 138.312 32.2199C139.43 33.0801 140.05 34.2672 140.17 35.7811H136.919C136.867 35.1273 136.557 34.5682 135.99 34.1037C135.422 33.6392 134.674 33.407 133.745 33.407C132.902 33.407 132.213 33.622 131.68 34.0521C131.147 34.4822 130.88 35.1015 130.88 35.9101C130.88 36.4606 131.044 36.9165 131.371 37.2778C131.715 37.6218 132.145 37.8971 132.661 38.1035C133.177 38.31 133.882 38.5336 134.777 38.7745C135.964 39.1013 136.927 39.4282 137.667 39.7551C138.424 40.082 139.06 40.5895 139.577 41.2776C140.11 41.9485 140.377 42.8517 140.377 43.9872C140.377 44.8989 140.127 45.7591 139.628 46.5677C139.147 47.3763 138.433 48.03 137.486 48.5289C136.557 49.0106 135.456 49.2514 134.183 49.2514ZM147.28 37.252V45.1226C147.28 45.6559 147.4 46.043 147.641 46.2838C147.899 46.5075 148.329 46.6193 148.931 46.6193H150.738V49.0708H148.415C147.091 49.0708 146.076 48.7611 145.37 48.1418C144.665 47.5225 144.312 46.5161 144.312 45.1226V37.252H142.635V34.8521H144.312V31.3167H147.28V34.8521H150.738V37.252H147.28ZM159.617 49.303C158.275 49.303 157.062 49.002 155.978 48.3999C154.894 47.7805 154.043 46.9204 153.423 45.8193C152.804 44.7011 152.494 43.4108 152.494 41.9485C152.494 40.5034 152.813 39.2218 153.449 38.1035C154.086 36.9853 154.954 36.1251 156.056 35.523C157.157 34.9209 158.387 34.6198 159.746 34.6198C161.105 34.6198 162.335 34.9209 163.436 35.523C164.537 36.1251 165.406 36.9853 166.042 38.1035C166.679 39.2218 166.997 40.5034 166.997 41.9485C166.997 43.3936 166.67 44.6753 166.016 45.7935C165.363 46.9118 164.468 47.7805 163.333 48.3999C162.214 49.002 160.976 49.303 159.617 49.303ZM159.617 46.7483C160.374 46.7483 161.079 46.5677 161.733 46.2064C162.404 45.8451 162.946 45.3032 163.358 44.5807C163.771 43.8581 163.978 42.9807 163.978 41.9485C163.978 40.9163 163.78 40.0475 163.384 39.3422C162.989 38.6196 162.464 38.0777 161.81 37.7165C161.156 37.3552 160.451 37.1746 159.694 37.1746C158.937 37.1746 158.232 37.3552 157.578 37.7165C156.941 38.0777 156.434 38.6196 156.056 39.3422C155.677 40.0475 155.488 40.9163 155.488 41.9485C155.488 43.4796 155.875 44.6667 156.649 45.5097C157.44 46.3354 158.43 46.7483 159.617 46.7483ZM172.847 36.9165C173.277 36.194 173.845 35.6348 174.55 35.2392C175.273 34.8263 176.124 34.6198 177.105 34.6198V37.6649H176.356C175.204 37.6649 174.326 37.9573 173.724 38.5422C173.139 39.1272 172.847 40.1422 172.847 41.5873V49.0708H169.905V34.8521H172.847V36.9165ZM192.841 41.6131C192.841 42.1464 192.806 42.6281 192.737 43.0582H181.873C181.959 44.1936 182.381 45.1054 183.138 45.7935C183.895 46.4817 184.824 46.8257 185.925 46.8257C187.507 46.8257 188.626 46.1634 189.279 44.8387H192.454C192.023 46.1462 191.241 47.2214 190.105 48.0644C188.987 48.8902 187.594 49.303 185.925 49.303C184.566 49.303 183.344 49.002 182.26 48.3999C181.194 47.7805 180.351 46.9204 179.731 45.8193C179.129 44.7011 178.828 43.4108 178.828 41.9485C178.828 40.4862 179.121 39.2046 179.706 38.1035C180.308 36.9853 181.142 36.1251 182.209 35.523C183.293 34.9209 184.531 34.6198 185.925 34.6198C187.267 34.6198 188.462 34.9123 189.512 35.4972C190.561 36.0821 191.378 36.9079 191.963 37.9745C192.548 39.0239 192.841 40.2368 192.841 41.6131ZM189.77 40.6841C189.753 39.6003 189.365 38.7315 188.609 38.0777C187.852 37.424 186.914 37.0971 185.796 37.0971C184.781 37.0971 183.912 37.424 183.189 38.0777C182.467 38.7143 182.037 39.583 181.899 40.6841H189.77Z" fill="#009FE3"/>
<path d="M70.1273 16.498C70.9761 16.498 71.7177 16.6624 72.3523 16.9912C72.9946 17.3123 73.4878 17.7787 73.8318 18.3904C74.1836 18.9944 74.3594 19.7017 74.3594 20.5122C74.3594 21.3227 74.1836 22.0261 73.8318 22.6225C73.4878 23.2189 72.9946 23.6776 72.3523 23.9988C71.7177 24.3123 70.9761 24.469 70.1273 24.469H67.5239V16.498H70.1273ZM70.1273 23.4024C71.0602 23.4024 71.7751 23.1501 72.2721 22.6454C72.769 22.1408 73.0175 21.4297 73.0175 20.5122C73.0175 19.587 72.769 18.8645 72.2721 18.3445C71.7751 17.8246 71.0602 17.5646 70.1273 17.5646H68.8313V23.4024H70.1273ZM78.3963 24.5722C77.7999 24.5722 77.2609 24.4384 76.7792 24.1708C76.2975 23.8955 75.919 23.5132 75.6438 23.0239C75.3685 22.5269 75.2309 21.9535 75.2309 21.3035C75.2309 20.6613 75.3723 20.0916 75.6552 19.5947C75.9381 19.0977 76.3243 18.7154 76.8136 18.4478C77.303 18.1801 77.8496 18.0463 78.4537 18.0463C79.0577 18.0463 79.6044 18.1801 80.0937 18.4478C80.5831 18.7154 80.9692 19.0977 81.2521 19.5947C81.535 20.0916 81.6765 20.6613 81.6765 21.3035C81.6765 21.9458 81.5312 22.5154 81.2407 23.0124C80.9501 23.5094 80.5525 23.8955 80.0479 24.1708C79.5509 24.4384 79.0004 24.5722 78.3963 24.5722ZM78.3963 23.4368C78.7328 23.4368 79.0462 23.3565 79.3368 23.1959C79.635 23.0354 79.8758 22.7945 80.0593 22.4734C80.2428 22.1523 80.3346 21.7623 80.3346 21.3035C80.3346 20.8448 80.2467 20.4587 80.0708 20.1452C79.895 19.824 79.6617 19.5832 79.3712 19.4226C79.0807 19.2621 78.7672 19.1818 78.4307 19.1818C78.0943 19.1818 77.7808 19.2621 77.4903 19.4226C77.2074 19.5832 76.9818 19.824 76.8136 20.1452C76.6454 20.4587 76.5613 20.8448 76.5613 21.3035C76.5613 21.984 76.7333 22.5116 77.0774 22.8863C77.4291 23.2533 77.8688 23.4368 78.3963 23.4368ZM91.4561 18.1496L89.4949 24.469H88.1186L86.8455 19.8011L85.5724 24.469H84.1962L82.2235 18.1496H83.5539L84.8728 23.2303L86.2147 18.1496H87.5795L88.8641 23.2074L90.1715 18.1496H91.4561ZM95.6216 18.0463C96.1185 18.0463 96.562 18.1496 96.952 18.356C97.3496 18.5624 97.6592 18.8683 97.881 19.2735C98.1027 19.6788 98.2136 20.1681 98.2136 20.7416V24.469H96.9176V20.9365C96.9176 20.3707 96.7761 19.9387 96.4932 19.6405C96.2103 19.3347 95.8242 19.1818 95.3348 19.1818C94.8455 19.1818 94.4555 19.3347 94.165 19.6405C93.8821 19.9387 93.7406 20.3707 93.7406 20.9365V24.469H92.4332V18.1496H93.7406V18.8721C93.9547 18.6121 94.2262 18.4095 94.5549 18.2643C94.8914 18.119 95.2469 18.0463 95.6216 18.0463ZM101.189 15.9819V24.469H99.8813V15.9819H101.189ZM105.646 24.5722C105.05 24.5722 104.511 24.4384 104.029 24.1708C103.548 23.8955 103.169 23.5132 102.894 23.0239C102.619 22.5269 102.481 21.9535 102.481 21.3035C102.481 20.6613 102.622 20.0916 102.905 19.5947C103.188 19.0977 103.574 18.7154 104.064 18.4478C104.553 18.1801 105.1 18.0463 105.704 18.0463C106.308 18.0463 106.855 18.1801 107.344 18.4478C107.833 18.7154 108.219 19.0977 108.502 19.5947C108.785 20.0916 108.927 20.6613 108.927 21.3035C108.927 21.9458 108.781 22.5154 108.491 23.0124C108.2 23.5094 107.803 23.8955 107.298 24.1708C106.801 24.4384 106.251 24.5722 105.646 24.5722ZM105.646 23.4368C105.983 23.4368 106.296 23.3565 106.587 23.1959C106.885 23.0354 107.126 22.7945 107.309 22.4734C107.493 22.1523 107.585 21.7623 107.585 21.3035C107.585 20.8448 107.497 20.4587 107.321 20.1452C107.145 19.824 106.912 19.5832 106.621 19.4226C106.331 19.2621 106.017 19.1818 105.681 19.1818C105.344 19.1818 105.031 19.2621 104.74 19.4226C104.458 19.5832 104.232 19.824 104.064 20.1452C103.896 20.4587 103.811 20.8448 103.811 21.3035C103.811 21.984 103.983 22.5116 104.328 22.8863C104.679 23.2533 105.119 23.4368 105.646 23.4368ZM109.783 21.2806C109.783 20.646 109.913 20.084 110.173 19.5947C110.441 19.1053 110.8 18.7268 111.251 18.4592C111.71 18.184 112.215 18.0463 112.765 18.0463C113.262 18.0463 113.694 18.1457 114.061 18.3445C114.436 18.5357 114.734 18.7765 114.956 19.0671V18.1496H116.275V24.469H114.956V23.5285C114.734 23.8267 114.432 24.0752 114.05 24.274C113.667 24.4728 113.232 24.5722 112.742 24.5722C112.199 24.5722 111.702 24.4346 111.251 24.1593C110.8 23.8764 110.441 23.4865 110.173 22.9895C109.913 22.4849 109.783 21.9152 109.783 21.2806ZM114.956 21.3035C114.956 20.8677 114.864 20.4892 114.681 20.1681C114.505 19.847 114.272 19.6023 113.981 19.4341C113.69 19.2659 113.377 19.1818 113.04 19.1818C112.704 19.1818 112.391 19.2659 112.1 19.4341C111.809 19.5947 111.572 19.8355 111.389 20.1566C111.213 20.4701 111.125 20.8448 111.125 21.2806C111.125 21.7164 111.213 22.0987 111.389 22.4275C111.572 22.7563 111.809 23.0086 112.1 23.1845C112.398 23.3527 112.712 23.4368 113.04 23.4368C113.377 23.4368 113.69 23.3527 113.981 23.1845C114.272 23.0163 114.505 22.7716 114.681 22.4504C114.864 22.1217 114.956 21.7394 114.956 21.3035ZM117.556 21.2806C117.556 20.646 117.686 20.084 117.946 19.5947C118.214 19.1053 118.573 18.7268 119.024 18.4592C119.483 18.184 119.992 18.0463 120.55 18.0463C120.963 18.0463 121.368 18.1381 121.765 18.3216C122.171 18.4975 122.492 18.7345 122.729 19.0327V15.9819H124.048V24.469H122.729V23.5171C122.515 23.8229 122.216 24.0752 121.834 24.274C121.46 24.4728 121.028 24.5722 120.538 24.5722C119.988 24.5722 119.483 24.4346 119.024 24.1593C118.573 23.8764 118.214 23.4865 117.946 22.9895C117.686 22.4849 117.556 21.9152 117.556 21.2806ZM122.729 21.3035C122.729 20.8677 122.637 20.4892 122.454 20.1681C122.278 19.847 122.044 19.6023 121.754 19.4341C121.463 19.2659 121.15 19.1818 120.813 19.1818C120.477 19.1818 120.164 19.2659 119.873 19.4341C119.582 19.5947 119.345 19.8355 119.162 20.1566C118.986 20.4701 118.898 20.8448 118.898 21.2806C118.898 21.7164 118.986 22.0987 119.162 22.4275C119.345 22.7563 119.582 23.0086 119.873 23.1845C120.171 23.3527 120.485 23.4368 120.813 23.4368C121.15 23.4368 121.463 23.3527 121.754 23.1845C122.044 23.0163 122.278 22.7716 122.454 22.4504C122.637 22.1217 122.729 21.7394 122.729 21.3035ZM131.485 24.5722C130.889 24.5722 130.35 24.4384 129.868 24.1708C129.387 23.8955 129.008 23.5132 128.733 23.0239C128.458 22.5269 128.32 21.9535 128.32 21.3035C128.32 20.6613 128.461 20.0916 128.744 19.5947C129.027 19.0977 129.413 18.7154 129.903 18.4478C130.392 18.1801 130.939 18.0463 131.543 18.0463C132.147 18.0463 132.693 18.1801 133.183 18.4478C133.672 18.7154 134.058 19.0977 134.341 19.5947C134.624 20.0916 134.766 20.6613 134.766 21.3035C134.766 21.9458 134.62 22.5154 134.33 23.0124C134.039 23.5094 133.642 23.8955 133.137 24.1708C132.64 24.4384 132.089 24.5722 131.485 24.5722ZM131.485 23.4368C131.822 23.4368 132.135 23.3565 132.426 23.1959C132.724 23.0354 132.965 22.7945 133.148 22.4734C133.332 22.1523 133.424 21.7623 133.424 21.3035C133.424 20.8448 133.336 20.4587 133.16 20.1452C132.984 19.824 132.751 19.5832 132.46 19.4226C132.17 19.2621 131.856 19.1818 131.52 19.1818C131.183 19.1818 130.87 19.2621 130.579 19.4226C130.296 19.5832 130.071 19.824 129.903 20.1452C129.734 20.4587 129.65 20.8448 129.65 21.3035C129.65 21.984 129.822 22.5116 130.166 22.8863C130.518 23.2533 130.958 23.4368 131.485 23.4368ZM139.246 18.0463C139.743 18.0463 140.187 18.1496 140.577 18.356C140.974 18.5624 141.284 18.8683 141.506 19.2735C141.728 19.6788 141.838 20.1681 141.838 20.7416V24.469H140.542V20.9365C140.542 20.3707 140.401 19.9387 140.118 19.6405C139.835 19.3347 139.449 19.1818 138.96 19.1818C138.47 19.1818 138.08 19.3347 137.79 19.6405C137.507 19.9387 137.365 20.3707 137.365 20.9365V24.469H136.058V18.1496H137.365V18.8721C137.58 18.6121 137.851 18.4095 138.18 18.2643C138.516 18.119 138.872 18.0463 139.246 18.0463ZM148.011 19.2162V22.7142C148.011 22.9513 148.064 23.1233 148.171 23.2303C148.286 23.3297 148.477 23.3794 148.745 23.3794H149.548V24.469H148.515C147.927 24.469 147.476 24.3314 147.162 24.0561C146.849 23.7809 146.692 23.3336 146.692 22.7142V19.2162H145.946V18.1496H146.692V16.5783H148.011V18.1496H149.548V19.2162H148.011ZM154.021 18.0463C154.503 18.0463 154.931 18.1496 155.306 18.356C155.688 18.5624 155.986 18.8683 156.201 19.2735C156.422 19.6788 156.533 20.1681 156.533 20.7416V24.469H155.237V20.9365C155.237 20.3707 155.096 19.9387 154.813 19.6405C154.53 19.3347 154.144 19.1818 153.654 19.1818C153.165 19.1818 152.775 19.3347 152.485 19.6405C152.202 19.9387 152.06 20.3707 152.06 20.9365V24.469H150.753V15.9819H152.06V18.8836C152.282 18.616 152.561 18.4095 152.897 18.2643C153.241 18.119 153.616 18.0463 154.021 18.0463ZM163.993 21.1544C163.993 21.3915 163.977 21.6056 163.947 21.7967H159.118C159.157 22.3013 159.344 22.7066 159.68 23.0124C160.017 23.3183 160.43 23.4712 160.919 23.4712C161.622 23.4712 162.119 23.1768 162.41 22.5881H163.821C163.63 23.1692 163.282 23.647 162.777 24.0217C162.28 24.3887 161.661 24.5722 160.919 24.5722C160.315 24.5722 159.772 24.4384 159.29 24.1708C158.816 23.8955 158.442 23.5132 158.166 23.0239C157.899 22.5269 157.765 21.9535 157.765 21.3035C157.765 20.6536 157.895 20.084 158.155 19.5947C158.423 19.0977 158.793 18.7154 159.267 18.4478C159.749 18.1801 160.3 18.0463 160.919 18.0463C161.515 18.0463 162.047 18.1763 162.513 18.4363C162.98 18.6963 163.343 19.0633 163.603 19.5373C163.863 20.0037 163.993 20.5428 163.993 21.1544ZM162.628 20.7416C162.62 20.2599 162.448 19.8737 162.112 19.5832C161.775 19.2926 161.359 19.1474 160.862 19.1474C160.411 19.1474 160.024 19.2926 159.703 19.5832C159.382 19.8661 159.191 20.2522 159.13 20.7416H162.628Z" fill="#009FE3"/>
</svg>
