<svg width="233" height="66" viewBox="0 0 233 66" fill="none" xmlns="http://www.w3.org/2000/svg">
<rect x="0.752197" width="232.248" height="65.9469" rx="32.9734" fill="white"/>
<path d="M38.7459 27.7429L44.2464 22.0379L26.8263 12.0652C26.1448 11.6724 25.3776 11.4672 24.5979 11.4693C23.8182 11.4713 23.052 11.6805 22.3724 12.0768L38.7459 27.7429ZM20.7351 13.6795C20.3353 14.3574 20.1062 15.1332 20.1062 15.9555V44.2499C20.1062 45.0466 20.3151 45.806 20.6924 46.47L37.158 29.3922L20.7351 13.6795ZM51.5392 26.2124L46.2925 23.2096L40.3967 29.3223L47.6222 36.234L51.5415 33.9907C52.952 33.18 53.7965 31.7264 53.7965 30.1004C53.7951 29.301 53.5844 28.5171 53.1868 27.8323C52.7892 27.1475 52.2197 26.5876 51.5392 26.2124ZM38.8088 30.9716L22.2983 48.096C22.9953 48.5153 23.7858 48.7385 24.5915 48.7436C25.3551 48.7436 26.1233 48.5432 26.8263 48.1402L45.5513 37.4221L38.8088 30.9716Z" fill="#009FE3"/>
<path d="M73.0128 36.2972C72.5483 35.4026 71.9032 34.7316 71.0774 34.2844C70.2517 33.8199 69.2969 33.5876 68.213 33.5876C67.026 33.5876 65.968 33.8543 65.039 34.3876C64.11 34.9209 63.3788 35.6778 62.8455 36.6584C62.3294 37.639 62.0714 38.7745 62.0714 40.0647C62.0714 41.355 62.3294 42.499 62.8455 43.4969C63.3788 44.4775 64.11 45.2344 65.039 45.7677C65.968 46.301 67.026 46.5677 68.213 46.5677C69.813 46.5677 71.1118 46.1204 72.1096 45.2258C73.1074 44.3312 73.7182 43.1184 73.9418 41.5873H67.2066V39.239H77.0901V41.5356C76.9008 42.9291 76.4019 44.2108 75.5934 45.3806C74.802 46.5505 73.7612 47.4881 72.4709 48.1934C71.1978 48.8816 69.7786 49.2256 68.213 49.2256C66.5271 49.2256 64.9874 48.8386 63.5939 48.0644C62.2004 47.273 61.0908 46.1806 60.265 44.7871C59.4564 43.3936 59.0521 41.8195 59.0521 40.0647C59.0521 38.31 59.4564 36.7359 60.265 35.3424C61.0908 33.9489 62.2004 32.8651 63.5939 32.0909C65.0046 31.2995 66.5443 30.9039 68.213 30.9039C70.1226 30.9039 71.8172 31.377 73.2967 32.3232C74.7934 33.2521 75.8772 34.5768 76.5481 36.2972H73.0128ZM86.159 49.303C84.8171 49.303 83.6043 49.002 82.5205 48.3999C81.4366 47.7805 80.5851 46.9204 79.9657 45.8193C79.3464 44.7011 79.0367 43.4108 79.0367 41.9485C79.0367 40.5034 79.355 39.2218 79.9915 38.1035C80.6281 36.9853 81.4969 36.1251 82.5979 35.523C83.6989 34.9209 84.929 34.6198 86.288 34.6198C87.6471 34.6198 88.8772 34.9209 89.9782 35.523C91.0792 36.1251 91.948 36.9853 92.5845 38.1035C93.2211 39.2218 93.5393 40.5034 93.5393 41.9485C93.5393 43.3936 93.2125 44.6753 92.5587 45.7935C91.905 46.9118 91.0104 47.7805 89.875 48.3999C88.7567 49.002 87.5181 49.303 86.159 49.303ZM86.159 46.7483C86.916 46.7483 87.6213 46.5677 88.2751 46.2064C88.946 45.8451 89.4879 45.3032 89.9008 44.5807C90.3137 43.8581 90.5201 42.9807 90.5201 41.9485C90.5201 40.9163 90.3223 40.0475 89.9266 39.3422C89.5309 38.6196 89.0062 38.0777 88.3525 37.7165C87.6987 37.3552 86.9934 37.1746 86.2364 37.1746C85.4795 37.1746 84.7741 37.3552 84.1204 37.7165C83.4839 38.0777 82.9764 38.6196 82.5979 39.3422C82.2194 40.0475 82.0302 40.9163 82.0302 41.9485C82.0302 43.4796 82.4172 44.6667 83.1914 45.5097C83.9828 46.3354 84.972 46.7483 86.159 46.7483ZM102.615 49.303C101.273 49.303 100.06 49.002 98.9764 48.3999C97.8926 47.7805 97.041 46.9204 96.4217 45.8193C95.8023 44.7011 95.4927 43.4108 95.4927 41.9485C95.4927 40.5034 95.8109 39.2218 96.4475 38.1035C97.084 36.9853 97.9528 36.1251 99.0538 35.523C100.155 34.9209 101.385 34.6198 102.744 34.6198C104.103 34.6198 105.333 34.9209 106.434 35.523C107.535 36.1251 108.404 36.9853 109.04 38.1035C109.677 39.2218 109.995 40.5034 109.995 41.9485C109.995 43.3936 109.668 44.6753 109.015 45.7935C108.361 46.9118 107.466 47.7805 106.331 48.3999C105.213 49.002 103.974 49.303 102.615 49.303ZM102.615 46.7483C103.372 46.7483 104.077 46.5677 104.731 46.2064C105.402 45.8451 105.944 45.3032 106.357 44.5807C106.77 43.8581 106.976 42.9807 106.976 41.9485C106.976 40.9163 106.778 40.0475 106.383 39.3422C105.987 38.6196 105.462 38.0777 104.808 37.7165C104.155 37.3552 103.449 37.1746 102.692 37.1746C101.935 37.1746 101.23 37.3552 100.576 37.7165C99.9398 38.0777 99.4323 38.6196 99.0538 39.3422C98.6753 40.0475 98.4861 40.9163 98.4861 41.9485C98.4861 43.4796 98.8732 44.6667 99.6473 45.5097C100.439 46.3354 101.428 46.7483 102.615 46.7483ZM118.632 34.6198C119.733 34.6198 120.705 34.8435 121.548 35.2908C122.408 35.7209 123.079 36.2628 123.561 36.9165V34.8521H126.529V49.303C126.529 50.6105 126.253 51.7718 125.703 52.7868C125.152 53.819 124.352 54.6275 123.303 55.2125C122.271 55.7974 121.032 56.0898 119.587 56.0898C117.66 56.0898 116.06 55.634 114.787 54.7222C113.514 53.8276 112.792 52.6061 112.62 51.0578H115.536C115.759 51.7976 116.232 52.3911 116.955 52.8384C117.695 53.3029 118.572 53.5351 119.587 53.5351C120.774 53.5351 121.729 53.1738 122.451 52.4513C123.191 51.7287 123.561 50.6793 123.561 49.303V46.929C123.062 47.5999 122.383 48.1676 121.522 48.6321C120.679 49.0794 119.716 49.303 118.632 49.303C117.394 49.303 116.258 48.9934 115.226 48.3741C114.211 47.7375 113.402 46.8601 112.8 45.7419C112.215 44.6065 111.923 43.3248 111.923 41.8969C111.923 40.469 112.215 39.2046 112.8 38.1035C113.402 37.0025 114.211 36.1509 115.226 35.5488C116.258 34.9295 117.394 34.6198 118.632 34.6198ZM123.561 41.9485C123.561 40.9679 123.355 40.1164 122.942 39.3938C122.546 38.6713 122.021 38.1207 121.368 37.7423C120.714 37.3638 120.008 37.1746 119.252 37.1746C118.495 37.1746 117.789 37.3638 117.135 37.7423C116.482 38.1035 115.948 38.6455 115.536 39.368C115.14 40.0733 114.942 40.9163 114.942 41.8969C114.942 42.8775 115.14 43.7377 115.536 44.4775C115.948 45.2172 116.482 45.7849 117.135 46.1806C117.806 46.5591 118.512 46.7483 119.252 46.7483C120.008 46.7483 120.714 46.5591 121.368 46.1806C122.021 45.8021 122.546 45.2516 122.942 44.5291C123.355 43.7893 123.561 42.9291 123.561 41.9485ZM133.334 29.9749V49.0708H130.393V29.9749H133.334ZM150.228 41.6131C150.228 42.1464 150.194 42.6281 150.125 43.0582H139.261C139.347 44.1936 139.769 45.1054 140.526 45.7935C141.283 46.4817 142.212 46.8257 143.313 46.8257C144.895 46.8257 146.013 46.1634 146.667 44.8387H149.841C149.411 46.1462 148.628 47.2214 147.493 48.0644C146.375 48.8902 144.981 49.303 143.313 49.303C141.953 49.303 140.732 49.002 139.648 48.3999C138.582 47.7805 137.739 46.9204 137.119 45.8193C136.517 44.7011 136.216 43.4108 136.216 41.9485C136.216 40.4862 136.509 39.2046 137.093 38.1035C137.696 36.9853 138.53 36.1251 139.597 35.523C140.68 34.9209 141.919 34.6198 143.313 34.6198C144.654 34.6198 145.85 34.9123 146.899 35.4972C147.949 36.0821 148.766 36.9079 149.351 37.9745C149.936 39.0239 150.228 40.2368 150.228 41.6131ZM147.158 40.6841C147.14 39.6003 146.753 38.7315 145.996 38.0777C145.239 37.424 144.302 37.0971 143.184 37.0971C142.169 37.0971 141.3 37.424 140.577 38.0777C139.855 38.7143 139.425 39.583 139.287 40.6841H147.158ZM172.368 36.4778C172.368 37.3896 172.153 38.2498 171.723 39.0583C171.293 39.8669 170.605 40.5292 169.659 41.0453C168.712 41.5443 167.5 41.7937 166.02 41.7937H162.769V49.0708H159.827V31.1361H166.02C167.396 31.1361 168.558 31.377 169.504 31.8587C170.467 32.3232 171.181 32.9597 171.646 33.7682C172.127 34.5768 172.368 35.48 172.368 36.4778ZM166.02 39.3938C167.138 39.3938 167.973 39.1444 168.523 38.6455C169.074 38.1293 169.349 37.4068 169.349 36.4778C169.349 34.5166 168.239 33.536 166.02 33.536H162.769V39.3938H166.02ZM178.116 29.9749V49.0708H175.174V29.9749H178.116ZM180.997 41.8969C180.997 40.469 181.29 39.2046 181.875 38.1035C182.477 37.0025 183.285 36.1509 184.3 35.5488C185.333 34.9295 186.468 34.6198 187.707 34.6198C188.825 34.6198 189.797 34.8435 190.623 35.2908C191.466 35.7209 192.137 36.2628 192.636 36.9165V34.8521H195.603V49.0708H192.636V46.9548C192.137 47.6257 191.457 48.1848 190.597 48.6321C189.737 49.0794 188.756 49.303 187.655 49.303C186.434 49.303 185.315 48.9934 184.3 48.3741C183.285 47.7375 182.477 46.8601 181.875 45.7419C181.29 44.6065 180.997 43.3248 180.997 41.8969ZM192.636 41.9485C192.636 40.9679 192.429 40.1164 192.016 39.3938C191.621 38.6713 191.096 38.1207 190.442 37.7423C189.788 37.3638 189.083 37.1746 188.326 37.1746C187.569 37.1746 186.864 37.3638 186.21 37.7423C185.556 38.1035 185.023 38.6455 184.61 39.368C184.214 40.0733 184.017 40.9163 184.017 41.8969C184.017 42.8775 184.214 43.7377 184.61 44.4775C185.023 45.2172 185.556 45.7849 186.21 46.1806C186.881 46.5591 187.586 46.7483 188.326 46.7483C189.083 46.7483 189.788 46.5591 190.442 46.1806C191.096 45.8021 191.621 45.2516 192.016 44.5291C192.429 43.7893 192.636 42.9291 192.636 41.9485ZM212.267 34.8521L203.544 55.7544H200.499L203.39 48.8386L197.79 34.8521H201.067L205.067 45.6903L209.222 34.8521H212.267Z" fill="#009FE3"/>
<path d="M64.7264 18.7921C64.52 18.3945 64.2333 18.0963 63.8663 17.8975C63.4993 17.691 63.0749 17.5878 62.5932 17.5878C62.0656 17.5878 61.5954 17.7063 61.1825 17.9434C60.7696 18.1804 60.4447 18.5168 60.2077 18.9526C59.9783 19.3885 59.8636 19.8931 59.8636 20.4665C59.8636 21.04 59.9783 21.5485 60.2077 21.9919C60.4447 22.4278 60.7696 22.7642 61.1825 23.0012C61.5954 23.2382 62.0656 23.3567 62.5932 23.3567C63.3043 23.3567 63.8816 23.1579 64.325 22.7604C64.7685 22.3628 65.0399 21.8237 65.1393 21.1432H62.1459V20.0995H66.5386V21.1203C66.4544 21.7396 66.2327 22.3092 65.8734 22.8292C65.5216 23.3491 65.0591 23.7658 64.4856 24.0793C63.9198 24.3851 63.289 24.5381 62.5932 24.5381C61.8439 24.5381 61.1596 24.366 60.5403 24.0219C59.9209 23.6702 59.4278 23.1847 59.0607 22.5654C58.7014 21.9461 58.5217 21.2464 58.5217 20.4665C58.5217 19.6867 58.7014 18.987 59.0607 18.3677C59.4278 17.7484 59.9209 17.2667 60.5403 16.9226C61.1672 16.5709 61.8515 16.395 62.5932 16.395C63.4419 16.395 64.1951 16.6053 64.8526 17.0258C65.5178 17.4387 65.9995 18.0275 66.2977 18.7921H64.7264ZM73.62 21.1547C73.62 21.3917 73.6047 21.6058 73.5741 21.797H68.7456C68.7839 22.3016 68.9712 22.7068 69.3076 23.0127C69.644 23.3185 70.0569 23.4714 70.5463 23.4714C71.2497 23.4714 71.7467 23.1771 72.0372 22.5883H73.4479C73.2568 23.1694 72.9089 23.6473 72.4042 24.0219C71.9073 24.389 71.2879 24.5725 70.5463 24.5725C69.9422 24.5725 69.3994 24.4387 68.9177 24.171C68.4436 23.8958 68.069 23.5135 67.7937 23.0241C67.5261 22.5271 67.3923 21.9537 67.3923 21.3038C67.3923 20.6539 67.5223 20.0842 67.7822 19.5949C68.0498 19.0979 68.4207 18.7156 68.8947 18.448C69.3764 18.1804 69.9269 18.0466 70.5463 18.0466C71.1427 18.0466 71.6741 18.1766 72.1405 18.4365C72.6069 18.6965 72.9701 19.0635 73.23 19.5376C73.49 20.004 73.62 20.543 73.62 21.1547ZM72.2551 20.7418C72.2475 20.2601 72.0755 19.874 71.739 19.5834C71.4026 19.2929 70.9859 19.1476 70.4889 19.1476C70.0378 19.1476 69.6517 19.2929 69.3305 19.5834C69.0094 19.8663 68.8183 20.2525 68.7571 20.7418H72.2551ZM76.432 19.2164V22.7145C76.432 22.9515 76.4855 23.1235 76.5926 23.2306C76.7073 23.33 76.8984 23.3797 77.166 23.3797H77.9689V24.4692H76.9367C76.3479 24.4692 75.8968 24.3316 75.5833 24.0564C75.2698 23.7811 75.1131 23.3338 75.1131 22.7145V19.2164H74.3676V18.1498H75.1131V16.5785H76.432V18.1498H77.9689V19.2164H76.432ZM82.8184 17.3126C82.5814 17.3126 82.3826 17.2323 82.222 17.0717C82.0614 16.9111 81.9812 16.7124 81.9812 16.4753C81.9812 16.2383 82.0614 16.0395 82.222 15.8789C82.3826 15.7184 82.5814 15.6381 82.8184 15.6381C83.0478 15.6381 83.2427 15.7184 83.4033 15.8789C83.5639 16.0395 83.6442 16.2383 83.6442 16.4753C83.6442 16.7124 83.5639 16.9111 83.4033 17.0717C83.2427 17.2323 83.0478 17.3126 82.8184 17.3126ZM83.4607 18.1498V24.4692H82.1532V18.1498H83.4607ZM86.7026 19.2164V22.7145C86.7026 22.9515 86.7561 23.1235 86.8632 23.2306C86.9779 23.33 87.169 23.3797 87.4366 23.3797H88.2395V24.4692H87.2073C86.6185 24.4692 86.1674 24.3316 85.8539 24.0564C85.5404 23.7811 85.3837 23.3338 85.3837 22.7145V19.2164H84.6382V18.1498H85.3837V16.5785H86.7026V18.1498H88.2395V19.2164H86.7026ZM95.1649 24.5725C94.5685 24.5725 94.0295 24.4387 93.5478 24.171C93.0661 23.8958 92.6876 23.5135 92.4123 23.0241C92.1371 22.5271 91.9994 21.9537 91.9994 21.3038C91.9994 20.6615 92.1409 20.0919 92.4238 19.5949C92.7067 19.0979 93.0928 18.7156 93.5822 18.448C94.0715 18.1804 94.6182 18.0466 95.2222 18.0466C95.8263 18.0466 96.373 18.1804 96.8623 18.448C97.3516 18.7156 97.7378 19.0979 98.0207 19.5949C98.3036 20.0919 98.445 20.6615 98.445 21.3038C98.445 21.9461 98.2998 22.5157 98.0092 23.0127C97.7187 23.5097 97.3211 23.8958 96.8164 24.171C96.3194 24.4387 95.7689 24.5725 95.1649 24.5725ZM95.1649 23.437C95.5013 23.437 95.8148 23.3567 96.1053 23.1962C96.4035 23.0356 96.6444 22.7948 96.8279 22.4736C97.0114 22.1525 97.1032 21.7625 97.1032 21.3038C97.1032 20.845 97.0152 20.4589 96.8394 20.1454C96.6635 19.8243 96.4303 19.5834 96.1398 19.4229C95.8492 19.2623 95.5357 19.182 95.1993 19.182C94.8629 19.182 94.5494 19.2623 94.2588 19.4229C93.9759 19.5834 93.7504 19.8243 93.5822 20.1454C93.414 20.4589 93.3298 20.845 93.3298 21.3038C93.3298 21.9843 93.5019 22.5119 93.846 22.8865C94.1977 23.2535 94.6373 23.437 95.1649 23.437ZM102.926 18.0466C103.423 18.0466 103.866 18.1498 104.256 18.3562C104.654 18.5627 104.964 18.8685 105.185 19.2738C105.407 19.679 105.518 20.1684 105.518 20.7418V24.4692H104.222V20.9368C104.222 20.371 104.08 19.939 103.798 19.6408C103.515 19.3349 103.129 19.182 102.639 19.182C102.15 19.182 101.76 19.3349 101.469 19.6408C101.186 19.939 101.045 20.371 101.045 20.9368V24.4692H99.7375V18.1498H101.045V18.8724C101.259 18.6124 101.531 18.4098 101.859 18.2645C102.196 18.1192 102.551 18.0466 102.926 18.0466Z" fill="#009FE3"/>
</svg>
