<svg width="71" height="58" viewBox="0 0 71 58" fill="none" xmlns="http://www.w3.org/2000/svg">
<g clip-path="url(#clip0_42_2)">
<path d="M62.4099 3.2712C66.307 6.24493 69.1015 10.4193 70.3554 15.1405C71.6094 19.8616 71.252 24.8627 69.3394 29.3604C67.6332 33.2606 65.1248 36.7629 61.9754 39.6424C57.9252 43.6674 49.3866 48.6255 47.1443 54.5129C47.1774 54.6739 47.2105 54.8056 47.24 54.963C47.3837 55.5283 47.3014 56.127 47.0103 56.6333C46.7192 57.1396 46.242 57.514 45.6789 57.678C45.4838 57.7439 45.2555 57.8097 45.0272 57.9049C44.5655 58.0383 44.0722 58.0154 43.625 57.8399C43.1777 57.6644 42.8019 57.3461 42.5565 56.9352C42.5016 57.1189 42.4093 57.2895 42.2851 57.4361C42.161 57.5828 42.0077 57.7024 41.835 57.7875C41.6622 57.8727 41.4736 57.9216 41.281 57.931C41.0884 57.9405 40.8959 57.9104 40.7155 57.8427C26.3041 53.5432 -2.93829 42.9392 0.246636 22.9278C2.94922 5.79596 24.9676 12.4189 34.5998 21.3104C28.6423 6.47289 48.7792 -6.20215 62.4099 3.2712ZM59.4643 35.1783C67.7893 26.5136 69.7738 9.7368 55.5245 5.01659C43.0352 0.845249 35.13 13.5166 39.5852 24.0438C40.108 25.3684 38.7752 26.1148 37.6669 25.8733C37.5829 26.23 37.4062 26.5587 37.1546 26.8264C36.903 27.0942 36.5852 27.2918 36.2329 27.3995C35.8805 27.5072 35.506 27.5213 35.1464 27.4404C34.7869 27.3594 34.4549 27.1862 34.1837 26.9381C29.1062 21.2812 23.0272 16.7549 14.9894 16.8208C0.773154 16.9159 4.31156 30.4289 10.3721 37.1542C18.5351 46.2068 30.4722 50.4403 41.5329 54.8056C41.7381 54.8725 41.9264 54.9823 42.0852 55.1276C42.2435 46.8801 54.5009 40.3815 59.4827 35.1783H59.4643Z" fill="#222221"/>
<path d="M55.5393 5.01657C69.7886 9.73312 67.8039 26.5137 59.4789 35.1783C54.5008 40.3815 42.2398 46.8874 42.1073 55.1239C41.9485 54.9786 41.7602 54.8688 41.555 54.802C30.509 50.4367 18.5572 46.2031 10.3942 37.1506C4.34099 30.4252 0.795218 16.9122 15.0114 16.8171C23.0455 16.7512 29.1283 21.2775 34.2057 26.9345C34.477 27.1826 34.8088 27.3557 35.1684 27.4367C35.5279 27.5176 35.9026 27.5035 36.2549 27.3958C36.6073 27.2881 36.9251 27.0905 37.1767 26.8228C37.4283 26.555 37.6048 26.2264 37.6888 25.8697C38.7934 26.1295 40.1264 25.383 39.6073 24.0401C35.1484 13.5166 43.0499 0.845227 55.5393 5.01657Z" fill="#F39DAA"/>
</g>
<defs>
<clipPath id="clip0_42_2">
<rect width="71" height="58" fill="white"/>
</clipPath>
</defs>
</svg>
