<svg xmlns="http://www.w3.org/2000/svg" viewBox="0 0 65.06 65.06"><path d="M40,40.86H38.43V47.5c1.7,0,3.38,0,5.06,0,2.46,0,2.41-.12,2.38,2.34,0,.33,0,.66,0,1,2.2,1.33,2.89,2.63,2.32,4.4a3.33,3.33,0,0,1-6.44-.47c-.31-1.62.56-3,2.41-3.83V49.16H41.52c-1.22,0-2.44,0-3.66,0-.88,0-1.15-.27-1.15-1.14,0-2.05,0-4.1,0-6.16v-1H33.38v2.32c0,1.44,0,2.89,0,4.33a2,2,0,0,0,1.11,2.3,3.08,3.08,0,0,1,1.19,3.81,3.39,3.39,0,0,1-3.33,2.16,3.34,3.34,0,0,1-3-2.64,3.17,3.17,0,0,1,1.64-3.57,1.2,1.2,0,0,0,.79-1.31c0-2.44,0-4.88,0-7.39H28.39v2c0,1.72,0,3.44,0,5.16,0,.87-.27,1.14-1.14,1.14-2.08,0-4.15,0-6.29,0v1.69c2.11,1.19,2.81,2.51,2.29,4.28a3.32,3.32,0,0,1-6.44-.33c-.35-1.65.49-3,2.43-3.93,0-.68,0-1.4,0-2.12,0-1,.23-1.25,1.28-1.25h5.91a1.85,1.85,0,0,0,.23,0V40.89H25.06v3.76c0,.93-.26,1.18-1.19,1.18H14.24C13.05,48,11.76,48.68,10,48.19a3.32,3.32,0,0,1,.27-6.45c1.64-.35,3,.49,3.9,2.39h9.17V41c-2.2-.85-2.2-.85-2.49-5.12-1.11,0-2.24,0-3.36,0a9.53,9.53,0,0,1-7.12-3.09A9.61,9.61,0,0,1,8.38,22a9.76,9.76,0,0,1,9.13-6.08A1.66,1.66,0,0,0,19.15,15c3.5-5.33,8.48-8,14.82-7.35,6.8.65,11.34,4.47,13.63,10.9.2.55.37.71,1,.67a8.32,8.32,0,0,1,2.6,16.37,9.77,9.77,0,0,1-2.23.24c-1.55,0-3.09,0-4.74,0V37.8c0,1.9-.57,2.63-2.46,3.1v3.2h9.19c.9-1.91,2.29-2.73,4-2.34a3.29,3.29,0,0,1,2.61,3.31,3.34,3.34,0,0,1-2.74,3.21c-1.62.31-3-.55-3.85-2.44H46.64c-1.83,0-3.67,0-5.5,0-.76,0-1.12-.34-1.11-1.11C40.05,43.47,40,42.2,40,40.86ZM32.5,19.2h9.07a2.42,2.42,0,0,1,2.59,2.19,14.06,14.06,0,0,1,0,3.89,6.51,6.51,0,0,0,0,2.88,14,14,0,0,1,0,3.24,4.46,4.46,0,0,1-.3,1.44c-.33.81-.06,1.33.81,1.34,1.5,0,3,0,4.5,0A6.65,6.65,0,1,0,48,21c-1.28.22-1.43.12-1.73-1.1A14,14,0,0,0,33,9.24,13.79,13.79,0,0,0,20,16.78c-.33.58-.64.95-1.42.85a8.3,8.3,0,0,0-4.23,15.91c2.08.88,4.26.62,6.41.6.44,0,.73-.52.52-1.07A3.61,3.61,0,0,1,20.93,32a15.88,15.88,0,0,1,0-3.9,6.46,6.46,0,0,0,0-2.87,15.84,15.84,0,0,1-.06-3.16,2.55,2.55,0,0,1,2.87-2.86Zm.07,6.65h8.82c.87,0,1.13-.27,1.14-1.14s0-1.89,0-2.83a.89.89,0,0,0-1-1H23.62a.93.93,0,0,0-1.06,1.07c0,.89,0,1.77,0,2.66s.24,1.26,1.28,1.26Zm0,1.67H23.73c-.89,0-1.16.26-1.17,1.12s0,1.83,0,2.74.32,1.13,1.09,1.13q8.9,0,17.8,0c.78,0,1.1-.38,1.09-1.13s0-1.67,0-2.5c0-1.16-.2-1.36-1.34-1.37Zm-.08,11.65h8.9c.89,0,1.16-.26,1.17-1.12s0-1.83,0-2.74-.32-1.13-1.09-1.13H23.65c-.78,0-1.11.37-1.09,1.12s0,1.72,0,2.58c0,1.08.23,1.29,1.34,1.29ZM12.56,45a1.66,1.66,0,1,0-1.64,1.65A1.68,1.68,0,0,0,12.56,45Zm41.63-1.66A1.66,1.66,0,1,0,55.84,45,1.67,1.67,0,0,0,54.19,43.35ZM32.53,50.84a1.66,1.66,0,0,0-1.64,1.65,1.66,1.66,0,1,0,1.64-1.65Zm-12.47,5a1.66,1.66,0,1,0-1.65-1.64A1.66,1.66,0,0,0,20.06,55.81Zm26.63-1.67a1.66,1.66,0,1,0-1.62,1.67A1.68,1.68,0,0,0,46.69,54.14Z" style="fill:#56b8eb"/><path d="M24.28,22.56h9.89v1.57H24.28Z" style="fill:#56b8eb"/><path d="M37.5,24.16H35.93V22.58H37.5Z" style="fill:#56b8eb"/><path d="M39.24,24.14V22.57h1.57v1.57Z" style="fill:#56b8eb"/><path d="M34.17,29.24v1.57H24.29V29.24Z" style="fill:#56b8eb"/><path d="M37.5,30.81H35.93V29.24H37.5Z" style="fill:#56b8eb"/><path d="M39.27,29.2h1.54v1.6H39.27Z" style="fill:#56b8eb"/><path d="M34.17,37.47H24.28V35.9h9.89Z" style="fill:#56b8eb"/><path d="M35.94,35.87h1.55v1.6H35.94Z" style="fill:#56b8eb"/><path d="M39.22,37.46V35.91h1.59v1.55Z" style="fill:#56b8eb"/></svg>