<svg xmlns="http://www.w3.org/2000/svg" viewBox="0 0 65.06 65.06"><path d="M19.39,37.6c-.11-.08-.13-.11-.15-.11-1.87-.18-1.87-.17-2.33-2.09a1.88,1.88,0,0,0-2.46-1c-1.9,1.21-1.58,1.31-3.22-.34L11.17,34c-1.56-1.53-1.37-1.3-.33-3A1.78,1.78,0,0,0,9.73,28.4C7.71,28,7.88,28,7.9,26.11c0-2.15-.39-2.17,2.09-2.64a1.88,1.88,0,0,0,1-2.42c-1.23-1.93-1.35-1.56.35-3.28,1.54-1.56,1.28-1.43,3-.34a1.78,1.78,0,0,0,2.61-1.1,4,4,0,0,1,.33-1.25,1.22,1.22,0,0,1,.93-.53,1,1,0,0,1,.57.8A14,14,0,0,1,18.23,18c-.24.79-3.29,1.76-4,1.32-.42-.26-.83-.52-1.48-.95a4,4,0,0,0-.45.78,1.74,1.74,0,0,0-.07.82,1,1,0,0,0,.3.48,1.57,1.57,0,0,1,.12,2.15,2.79,2.79,0,0,0-.45,1c-.13.89-.65,1.22-1.48,1.36-1.29.21-1.28.24-1.1,1.68a3.05,3.05,0,0,1,2.9,2.12,3.12,3.12,0,0,1-.61,3.59L13,33.51c1.27-1.52,2.59-1.12,4.11-.41a2,2,0,0,1,1.38,1.66c.07.43-.08,1.24.93,1V31.66c0-.24,0-.48,0-.74a5,5,0,0,1-4.62-3.39,4.91,4.91,0,0,1,1.62-5.45c.44-.35.93-.6,1.36-.06s.14,1-.34,1.37a3.26,3.26,0,0,0-1.07,3.69,3.19,3.19,0,0,0,3.09,2.1V12.45c0-2.91,1.66-4.56,4.59-4.56H41.14a4.15,4.15,0,0,1,4.53,4.54V27.49c.13.05.17.09.22.09,2-.08,1.84.14,2.25,2a1.81,1.81,0,0,0,2.53,1c1.82-1.14,1.5-1.28,3.16.37s1.46,1.32.35,3.09a1.8,1.8,0,0,0,1.07,2.57c2.14.47,1.92.35,1.92,2.46s.21,2-1.93,2.46a1.78,1.78,0,0,0-1.05,2.57c1.11,1.75,1.23,1.49-.32,3l-.06.06c-1.62,1.66-1.33,1.5-3.15.36a1.81,1.81,0,0,0-2.52,1.06A5.17,5.17,0,0,1,47.79,50a1.16,1.16,0,0,1-.91.53,1.11,1.11,0,0,1-.58-.89,21.73,21.73,0,0,1,.49-2.48c0-.08,0-.2.08-.23,1-.49,2-1,3-1.41.29-.11.74.19,1.11.33a2,2,0,0,1,.55.35.68.68,0,0,0,1.1-.07c.38-.4.56-.7.13-1.16a1.94,1.94,0,0,1-.19-2.78.67.67,0,0,0,.13-.3,2.1,2.1,0,0,1,2.21-1.94c1.08-.1.46-.94.64-1.56a3.1,3.1,0,0,1-3-2.11,3.14,3.14,0,0,1,.63-3.62l-1.09-1.08c-1.28,1.61-2.64,1-4.15.38a1.92,1.92,0,0,1-1.33-1.63c-.08-.43.1-1.25-.93-1v4.83a5,5,0,0,1,4.59,3.23,4.85,4.85,0,0,1-1.41,5.5c-.46.39-1,.78-1.49.17s-.08-1,.4-1.42a3.29,3.29,0,0,0,1-3.64,3.2,3.2,0,0,0-3.09-2.09V52.61c0,2.88-1.66,4.55-4.52,4.56H23.91c-2.86,0-4.52-1.68-4.52-4.56v-15Zm24.63-5q0-10.07,0-20.12c0-2-.91-3-3-3H24c-2,0-2.95.92-2.95,3V52.56c0,2,.91,3,2.95,3H41.07c2,0,3-.92,3-3Q44,42.58,44,32.61Z" style="fill:#56b8eb"/><path d="M49.94,14.34c.22.32.57.61.62.95a.71.71,0,0,1-.83.85c-.29-.05-.72-.48-.72-.74s.35-.7.55-1.05Z" style="fill:#56b8eb"/><path d="M48.82,18.47c.32-.24.65-.66,1-.66a1.09,1.09,0,0,1,.75.79,1.18,1.18,0,0,1-.76.81c-.27.05-.63-.35-.94-.55Z" style="fill:#56b8eb"/><path d="M48.82,21.76c.32-.24.64-.67,1-.66a1.06,1.06,0,0,1,.75.78,1.15,1.15,0,0,1-.76.81c-.27.06-.63-.34-.94-.54Z" style="fill:#56b8eb"/><path d="M15.44,42.09c.22.32.63.65.6.94a1.21,1.21,0,0,1-.76.83c-.19,0-.75-.42-.76-.66s.33-.72.51-1.08Z" style="fill:#56b8eb"/><path d="M14.09,46.36c.56-.4.9-.82,1.18-.79a1.18,1.18,0,0,1,.79.79.7.7,0,0,1-.87.81C14.87,47.1,14.61,46.76,14.09,46.36Z" style="fill:#56b8eb"/><path d="M14.09,49.67c.55-.41.88-.84,1.17-.82a1.2,1.2,0,0,1,.8.78.69.69,0,0,1-.85.82C14.89,50.39,14.62,50.06,14.09,49.67Z" style="fill:#56b8eb"/><path d="M26.18,32.56,28.74,35c.43.4.77.87.26,1.4s-1,.23-1.4-.2c-.94-.95-1.9-1.89-2.84-2.84-.61-.63-.6-1,0-1.59.94-1,1.9-1.89,2.83-2.85.41-.41.86-.69,1.35-.22s.26,1-.18,1.4Z" style="fill:#56b8eb"/><path d="M38.86,32.5,36.25,30c-.43-.4-.65-.87-.17-1.34s.93-.24,1.34.18c1,1,1.93,1.94,2.9,2.89a.94.94,0,0,1,0,1.55c-1,1-2,2-3,3-.4.4-.85.57-1.29.13s-.3-.89.11-1.28Z" style="fill:#56b8eb"/><path d="M30.83,36c.41-1.64.76-3.07,1.11-4.49.19-.77.39-1.54.59-2.3.13-.53.47-.84,1-.7a.8.8,0,0,1,.58,1.09c-.52,2.12-1,4.24-1.62,6.34a1.24,1.24,0,0,1-.91.68C31.33,36.58,31,36.13,30.83,36Z" style="fill:#56b8eb"/><path d="M32.6,11.18h2.21c.57,0,1,.22,1,.83s-.44.81-1,.81H30.29c-.56,0-1-.18-1-.79s.45-.86,1.05-.86Z" style="fill:#56b8eb"/></svg>