<svg xmlns="http://www.w3.org/2000/svg" viewBox="0 0 65.06 65.06"><path d="M32.6,13.9a8.66,8.66,0,0,1,11.8.3,8.85,8.85,0,0,1,1.42,12.09H47a.76.76,0,0,1,.81.81.74.74,0,0,1-.82.79h-.24c-1.75-.36-2.91.47-4.07,1.69-3,3.12-6.08,6.13-9.13,9.17-.82.82-1,.82-1.83,0-3.32-3.31-6.65-6.61-9.93-9.95a2.51,2.51,0,0,0-2.31-.93,8.82,8.82,0,0,1-1.36,0c-.51,0-.82-.26-.82-.78a.76.76,0,0,1,.81-.81h1.27A8.51,8.51,0,0,1,17.78,19a9.38,9.38,0,0,1,3.43-5.2A8.67,8.67,0,0,1,32.6,13.9Zm7.67,12.39c1,0,2.1,0,3.14,0a1.1,1.1,0,0,0,.65-.38,6.81,6.81,0,0,0,1.72-6.75c-1.39-4.87-7.63-8.15-12.37-3.77-.73.67-.89.66-1.68,0A6.89,6.89,0,0,0,24,14c-4.88,2.06-6.41,7.85-3.15,11.7a1.51,1.51,0,0,0,1.31.6,21.35,21.35,0,0,1,2.4,0,1,1,0,0,0,1.11-.66c.33-.78.73-1.54,1.14-2.3s1-.81,1.6-.17C29.2,24,30,24.94,31,26a8.23,8.23,0,0,1,.6-.85c1.7-1.78,3.41-3.55,5.12-5.33.91-.93,1.46-.79,1.83.47C39.09,22.28,39.67,24.26,40.27,26.29ZM23.37,28l9.16,9.16L42,27.93c-.32,0-.55,0-.78,0-2.35,0-2,.27-2.69-2-.42-1.4-.85-2.79-1.31-4.31l-.81.86-4.7,4.95c-.67.7-1,.69-1.63,0L27.93,25c-.41.8-.8,1.5-1.12,2.23a1.11,1.11,0,0,1-1.18.75C24.87,27.93,24.1,28,23.37,28Z" style="fill:#56b8eb"/><path d="M35.25,47.92c0-3,1-5.65,1.94-8.34a5.12,5.12,0,0,1,3-3.14c2.29-.95,4.59-1.9,6.89-2.83a1.88,1.88,0,0,1,2.48.87A1.93,1.93,0,0,1,49,37.1c-.45.33-1,.55-1.43.88-.19.14-.24.45-.35.68.28.05.64.24.82.13,1.43-.87,2.92-1.66,3.53-3.42A18.73,18.73,0,0,1,53,32.51a3,3,0,0,1,4-1.2,1.39,1.39,0,0,1,.71,2c-1.19,2.45-2.39,4.91-3.63,7.33a5.8,5.8,0,0,1-2.74,2.53c-1.59.75-3.23,1.4-4.85,2.09-.57.24-1.14.46-1.69.74-1,.5-1.08.69-1.07,1.83,1.32.41,1.32.41,1.32,1.85v2.73a.81.81,0,0,1-.93.93H34.85c-.65,0-.91-.32-.9-1,0-1,0-2.09,0-3.14S34,48.06,35.25,47.92Zm1.52-.08h5.34c-.22-2.13,1.12-3,2.78-3.65,1.37-.52,2.74-1,4.09-1.63s2.75-1.16,3.49-2.46c1.36-2.38,2.56-4.85,3.83-7.3a1.42,1.42,0,0,0-1.95.66,17.43,17.43,0,0,0-1.25,2.43c-.82,2.19-2.57,3.41-4.53,4.42a2,2,0,0,1-2.79-.92,1.93,1.93,0,0,1,.73-2.71,14.66,14.66,0,0,0,1.35-.86c.15-.11.17-.39.24-.6-.2-.06-.43-.21-.62-.17a6.87,6.87,0,0,0-1.12.41c-1.85.78-3.69,1.57-5.55,2.32a3.3,3.3,0,0,0-2.05,2c-.56,1.67-1.12,3.34-1.57,5A21.83,21.83,0,0,0,36.77,47.84Zm6.6,3.89V49.64H35.59v2.09Z" style="fill:#56b8eb"/><path d="M29.76,47.92c1.26.21,1.31.27,1.32,1.44,0,1,0,1.93,0,2.9,0,.69-.26,1-1,1H21c-.72,0-1-.33-1-1,0-.93,0-1.87,0-2.81,0-1.37,0-1.37,1.31-1.64A1.47,1.47,0,0,0,20.4,46c-1.65-.68-3.33-1.32-4.95-2.07a15.16,15.16,0,0,1-3-1.73,6.37,6.37,0,0,1-1.67-2C9.63,38,8.55,35.72,7.45,33.47A1.54,1.54,0,0,1,8.56,31a3,3,0,0,1,3.49,1.46c.61,1.1,1.19,2.22,1.71,3.36a4,4,0,0,0,1.79,2,11.21,11.21,0,0,0,1.22.76c.29.12.8.18,1,0,.39-.42-.08-.64-.39-.83s-.82-.5-1.22-.77a1.94,1.94,0,0,1-.69-2.66A1.87,1.87,0,0,1,18,33.47c2.26.92,4.49,1.87,6.75,2.78a5.75,5.75,0,0,1,3.36,3.85C28.9,42.63,29.89,45.13,29.76,47.92Zm-21-15.14c1,2.07,2.11,4.08,3,6.14a6.3,6.3,0,0,0,3.36,3.28c1.49.66,3,1.26,4.54,1.83,1.83.68,3.4,1.55,3.26,3.88h5.27c0-.22,0-.37,0-.53,0-2.63-1-5-1.82-7.43a3.33,3.33,0,0,0-1.92-2.05C22.3,36.93,20,36,17.7,35.05c-.2-.08-.5.1-.75.16.12.21.19.49.37.62.5.36,1.08.61,1.55,1a2,2,0,0,1,.41,2.55,1.89,1.89,0,0,1-2.37,1c-1.74-.87-3.54-1.7-4.45-3.62-.51-1.09-1.07-2.16-1.63-3.23A1.45,1.45,0,0,0,8.81,32.78ZM21.65,49.62v2.11h7.77V49.62Z" style="fill:#56b8eb"/><path d="M21.64,20.94a5.29,5.29,0,0,1,3.08-4.72,1.13,1.13,0,0,1,.75-.18c.29.1.67.34.74.59a.94.94,0,0,1-.38.82,4,4,0,0,0-2.59,4,.73.73,0,0,1-.78.83c-.52,0-.77-.31-.8-.82C21.66,21.33,21.65,21.17,21.64,20.94Z" style="fill:#56b8eb"/></svg>