<svg xmlns="http://www.w3.org/2000/svg" viewBox="0 0 65.06 65.06"><path d="M9.56,32.14c-.16-2,.67-3.31,2.41-3.68a3,3,0,0,1,2.8,1,1.15,1.15,0,0,0,.83.31c2.47-.37,3.76.67,3.88,3.2,0,.46,0,.92,0,1.34l1.51.57c.91.38,1.43,0,1.43-.91q0-11,0-21.93a4.07,4.07,0,0,1,3.24-4.3,4.36,4.36,0,0,1,1-.1H53.3a4,4,0,0,1,4.29,4.27q0,18.23,0,36.44a4,4,0,0,1-4.36,4.27q-9.19,0-18.39,0a1.8,1.8,0,0,0-1.48.65c-3,3.2-6.76,4.31-11,4.2a13.76,13.76,0,0,1-8.49-2.92,9.42,9.42,0,0,1-3.78-8.28q.08-1.43.06-2.85c0-.2-.2-.42-.35-.59a21.88,21.88,0,0,1-1.82-2,2.71,2.71,0,0,1,.18-3.44A1,1,0,0,0,8.3,36a4.45,4.45,0,0,1-.41-1.56C7.82,33.37,8.21,32.91,9.56,32.14Zm25.27,19H53.08c2.05,0,3-1,3-3V12.16c0-2.06-.95-3-3-3H27c-2.11,0-3.05.95-3.05,3V34.68a8.4,8.4,0,0,1,5.79,2.86l1.91-2a4,4,0,0,1-.08-.49,4.64,4.64,0,0,1,1.59-4.34c.88-.72,1.39-.7,2,.24a19.62,19.62,0,0,1,1.25,2.52c.79,0,1.62,0,2.44,0,1.07.08,1.4.56,1.24,1.61a4.31,4.31,0,0,1-2.34,3.23,2.51,2.51,0,0,0-1.6,1.73,10.79,10.79,0,0,1-1.34,2.45,1.49,1.49,0,0,1,.88,1.65C35.68,46.47,36.07,48.8,34.83,51.1Zm-23.2-4.25a7.67,7.67,0,0,0,2.71,6.07,12.84,12.84,0,0,0,10.05,3,11.61,11.61,0,0,0,7.75-3.53,7.51,7.51,0,0,0,2.12-5.5Zm8.86-4.35c.25-1.58.56-3.12.71-4.68a1.77,1.77,0,0,0-1.74-1.88c-1.67-.1-1.67-.1-1.48-1.79,0-.14,0-.28,0-.43,0-2.49-.74-3.06-2.87-2.23-.05,0-.12.07-.16.06-.35-.16-.85-.23-1-.5-.63-1-1.33-1.39-2.14-1s-1,1.21-.49,2.21c.31.69.11,1.09-.63,1.24-1.46.3-1.63.64-1,2a3.84,3.84,0,0,0,.33.6c.46.63.37,1.08-.22,1.63a2.46,2.46,0,0,0-.81,1.51c-.07,1,2.22,3.2,3.26,3.24s2.18,0,3.27,0c0-1-.42-1.66-1.46-1.78A2.75,2.75,0,0,1,13,40.38c-.26-.17-.38-.56-.56-.85a3,3,0,0,1,.94-.54,3.52,3.52,0,0,1,1.16.25c-.26-.93-.45-1.75-1.56-1.84a1.76,1.76,0,0,1-1-.28,3.6,3.6,0,0,1-.62-1,9.6,9.6,0,0,1,1-.47,1.73,1.73,0,0,1,.58.05c-.44-1.24-.45-1.56.05-1.73,1.19-.42,1,.87,1.63,1.31.13-.19.23-.48.43-.6a5.74,5.74,0,0,1,1-.33,4.62,4.62,0,0,1,.24,1.06c0,.23-.24.45-.38.67-.67,1.08-.65,1.33.17,2.42.1-.14.17-.34.3-.41.35-.16.79-.45,1.07-.34.55.19.46.71.2,1.16s-.38.64-.56,1a2.67,2.67,0,0,0,.15,2.4.62.62,0,0,0,.44.17C18.55,42.51,19.41,42.5,20.49,42.5Zm-8.76,2.73h22.4V44.1H11.73ZM22,42.5h4.48c.84,0,1.06-.35.78-1.14a3.88,3.88,0,0,0-3.89-2.53c-.43,0-.67.16-.75.63C22.45,40.44,22.22,41.41,22,42.5ZM33.34,42l1-1.67c.8-1.38.7-1.75-.72-2.55a6.07,6.07,0,0,0-1-.38c-.66-.26-1,0-1.17.63.46.48,1.5.59,1.08,1.46-.55,1.15-1.3,0-2,0l-1.71,3h2.29C31.61,41.35,31.62,41.35,33.34,42Zm-10.6-4.76c3,.09,3.9.54,5.83,3,.1-.62.36-1.15.2-1.43a6,6,0,0,0-6.27-2.43ZM38.6,35A3.4,3.4,0,0,0,35,37.09c.46.11.92.37,1.29.28A3.13,3.13,0,0,0,38.6,35Zm-5,1c1.48-1.54,1.6-2.63.46-3.93A3,3,0,0,0,33.57,36Z" style="fill:#56b8eb"/><path d="M50.49,35.91c-.53-1-1-1.84-1.46-2.74a3.5,3.5,0,0,1-.37-1.38c0-4.77,0-9.55,0-14.33a3.16,3.16,0,1,1,6.3,0c0,4.81,0,9.62,0,14.43a2.22,2.22,0,0,1-.2,1c-.7,1.35-1.4,2.71-2.19,4a1.56,1.56,0,0,1-1.11.6c-2.3.05-4.6,0-6.9,0-.56,0-1.11-.06-1.12-.76S44,36,44.51,36h5C49.8,36,50.07,35.93,50.49,35.91Zm-.27-4.44c.81.09.82.09.83-.55,0-1.21,0-2.41,0-3.62s0-2.42,0-3.62c0-.3.47-.58.72-.86a5.06,5.06,0,0,1,.75.79c.11.16,0,.45,0,.68v7.17c.79.27.89-.08.89-.65,0-2.53,0-5.06,0-7.59V20H50.22Zm0-13.07h3.21c0-1,.24-2-.71-2.49A2.2,2.2,0,0,0,51,15.82C50,16.33,50.16,17.38,50.23,18.4Zm2.66,14.74H50.73l1.08,2Z" style="fill:#56b8eb"/><path d="M47.65,40.75h4.58c1,0,1.24.23,1.24,1.2q0,3,0,6c0,.94-.24,1.19-1.17,1.2H43c-1,0-1.2-.25-1.2-1.25,0-2,0-4,0-6,0-1,.24-1.22,1.22-1.23Zm-4.31,6.84h8.54V42.36H43.34Z" style="fill:#56b8eb"/><path d="M30,12.12c.63,0,1.26,0,1.89,0,.83,0,1.64.11,2.17-.79.1-.17.75-.19,1,0s.08.62.1,1a.13.13,0,0,1,0,.07c-1.72,1.29-1.59,3.14-1.53,5,.07,2.41.11,2.39-2.34,2.36h-4c-1,0-1.24-.23-1.24-1.2,0-1.73,0-3.45,0-5.18,0-.95.21-1.15,1.17-1.16Zm-2.35,1.57V18.1H32v-2c-.33.4-.57.68-.81.95-.61.68-.88.7-1.57.09a6.93,6.93,0,0,1-1.22-1.2c-.19-.27-.09-.74-.11-1.12a2.9,2.9,0,0,1,1.07.06,4.35,4.35,0,0,1,1,.84l1.66-2Z" style="fill:#56b8eb"/><path d="M30.06,22.33c1,0,2,0,2.93,0a1.42,1.42,0,0,0,.78-.51c.38-.42.76-.8,1.3-.36s.27,1-.14,1.33a4.06,4.06,0,0,0-1.33,3.78,20.9,20.9,0,0,1,0,2.24.92.92,0,0,1-1,1.07H27.06a.88.88,0,0,1-1-1c0-1.84,0-3.68,0-5.53,0-.71.36-1,1.08-1,1,0,1.95,0,2.93,0ZM32,23.92H27.64v4.34H32V26.39c-1.66,1.72-1.24,2-3.33.06l-.19-.17c-.39-.35-.59-.77-.21-1.2s.82-.29,1.21.07l.86.77Z" style="fill:#56b8eb"/><path d="M40,18.16H36.77c-.53,0-.94-.19-1-.75s.4-.79.92-.79q3.18,0,6.38,0c.5,0,.92.19.9.8s-.45.74-1,.74Z" style="fill:#56b8eb"/><path d="M39.87,25.36h-3c-.54,0-1-.14-1-.77s.46-.77,1-.77H43c.5,0,1,.09,1,.7s-.44.82-1,.82C42,25.37,40.93,25.36,39.87,25.36Z" style="fill:#56b8eb"/><path d="M39.89,28.34c-1.06,0-2.12.06-3.18,0a1.14,1.14,0,0,1-.86-.68c-.12-.55.33-.79.87-.79h6.37c.51,0,.94.15.93.77s-.42.74-.94.74Z" style="fill:#56b8eb"/><path d="M40,13.63h3.19c.49,0,.85.16.87.72s-.33.76-.83.76H36.65c-.51,0-.85-.23-.84-.76s.37-.72.88-.72Z" style="fill:#56b8eb"/></svg>