<svg width="234" height="68" viewBox="0 0 234 68" fill="none" xmlns="http://www.w3.org/2000/svg">
<g clip-path="url(#clip0_3_14)">
<path d="M23.7752 38.2499C23.7752 44.3829 23.7752 50.5158 23.7752 56.6488C23.8009 59.4396 22.7749 62.1367 20.9035 64.1984C19.2737 66.0618 17.0743 67.3281 14.6508 67.7985C13.9709 67.9359 13.2789 68.0031 12.5855 67.9991C9.07109 67.9948 5.55637 67.9948 2.04135 67.9991C1.56147 68.03 1.08759 67.8783 0.713835 67.5742C0.340082 67.2701 0.0938011 66.8358 0.0239133 66.3576C0.00788501 66.271 0.000795266 66.183 0.00276184 66.095C0.00276184 58.7944 0.00521687 51.4925 0.010121 44.1894C0.034542 42.6064 0.199794 41.0289 0.503903 39.4755C0.843498 37.5924 1.3671 35.7475 2.06709 33.9677C3.00247 31.5646 4.29533 29.3183 5.9015 27.3054C7.40193 25.4218 9.19285 23.7919 11.2062 22.4778C13.5098 20.9799 16.0718 19.9285 18.7601 19.3777C19.8737 19.1456 21.0024 18.9936 22.1375 18.923C22.6046 18.8943 23.0717 18.9036 23.5379 18.8768C23.7384 18.8657 23.7788 18.935 23.7788 19.1245C23.7727 22.0107 23.7727 24.8973 23.7788 27.7842L23.7752 38.2499Z" fill="#55B9EB"/>
<path d="M23.7816 9.09408C23.7947 10.386 23.5308 11.6655 23.008 12.8458C22.4852 14.026 21.7157 15.0792 20.7518 15.9338C19.4622 17.1251 17.8345 17.8813 16.0962 18.0967C14.9001 18.2735 13.6803 18.1927 12.5177 17.8597C11.355 17.5267 10.2761 16.949 9.35243 16.1649C7.64638 14.7894 6.51567 12.8207 6.18376 10.6478C5.95285 9.39485 5.9903 8.1068 6.29362 6.86953C6.59694 5.63227 7.15917 4.47421 7.94281 3.47255C8.60592 2.56813 9.44138 1.80531 10.4005 1.22851C11.3597 0.6517 12.4234 0.272428 13.5298 0.11276C14.787 -0.106759 16.0772 -0.0395787 17.3051 0.309339C18.533 0.658257 19.6672 1.28 20.6239 2.12864C22.2555 3.52156 23.3361 5.45644 23.6694 7.58195C23.7577 8.08087 23.7953 8.58752 23.7816 9.09408Z" fill="#55B9EB"/>
<path d="M25.5664 34.1848C25.5664 29.153 25.5664 24.1215 25.5664 19.0903C25.5664 18.7538 25.5416 18.7973 25.8625 18.8019C28.385 18.8335 30.8743 19.385 33.1764 20.4222C35.5018 21.4686 37.5945 22.9736 39.3305 24.848C41.0666 26.7225 42.4106 28.9281 43.2829 31.3343C43.7028 32.4909 44.0056 33.6872 44.1867 34.9049C44.3087 35.6719 44.3729 36.4471 44.3789 37.2239C44.3789 42.6815 44.3789 48.1392 44.3789 53.5968C44.3615 54.0953 44.173 54.5724 43.8455 54.9472C43.5181 55.3221 43.0717 55.5715 42.5822 55.6533C42.3797 55.6799 42.1757 55.6922 41.9716 55.6903C38.7855 55.6903 35.5993 55.6838 32.4132 55.6903C30.8215 55.7333 29.2671 55.2017 28.0317 54.192C26.7506 53.1646 25.9008 51.6904 25.651 50.0623C25.5878 49.6418 25.5592 49.2167 25.5655 48.7914C25.5673 43.9235 25.5677 39.0546 25.5664 34.1848Z" fill="#F39DAA"/>
<path d="M25.514 11.366C25.5018 9.57227 26.1529 7.83795 27.3411 6.49961C27.9652 5.77841 28.7286 5.19213 29.5848 4.77632C30.4411 4.36051 31.3725 4.12383 32.3225 4.08061C33.2725 4.0374 34.2213 4.18856 35.1114 4.52493C36.0016 4.8613 36.8145 5.37588 37.5009 6.03746C38.7326 7.17881 39.5171 8.72577 39.7123 10.3983C39.8594 11.4116 39.7905 12.4448 39.51 13.4293C39.2296 14.4137 38.7441 15.327 38.0857 16.1085C36.9601 17.4915 35.3546 18.3941 33.5931 18.6343C31.8315 18.8744 30.0449 18.4342 28.5935 17.4025C27.8173 16.8608 27.1557 16.1699 26.6467 15.3697C26.1377 14.5695 25.7915 13.6759 25.628 12.7404C25.539 12.288 25.5007 11.827 25.514 11.366Z" fill="#F39DAA"/>
<path d="M56.9883 27.7694H51.5815V55.5535H56.9883V27.7694Z" fill="#55B9EB"/>
<path d="M81.0826 49.5059V55.5535H87.1855L87.0181 49.5059L86.9344 46.4825L86.8921 44.9704C86.8737 44.6423 86.8471 44.2892 86.8176 43.9537C86.8016 43.7829 86.7758 43.6131 86.7404 43.4453L86.6485 42.9397C86.3533 41.6141 85.8053 40.3585 85.0347 39.2426C84.2865 38.1609 83.3549 37.2198 82.2826 36.4623C80.1873 35.0066 77.688 34.2535 75.1416 34.3106C73.2381 34.3607 71.3724 34.8559 69.6925 35.7571V33.7329H62.9432V55.5609H69.6888V44.2938C69.6836 43.6588 69.8256 43.0314 70.1037 42.4612C70.3817 41.891 70.7881 41.3937 71.2906 41.0089L71.3117 40.9932C71.8538 40.5914 72.4598 40.2851 73.1039 40.0874C74.4263 39.6582 75.8495 39.6582 77.1719 40.0874C77.816 40.2851 78.422 40.5914 78.964 40.9932C79.9928 41.7313 80.7134 42.826 80.987 44.0664L81.0228 44.2883C81.0406 44.3613 81.0511 44.4359 81.0541 44.511C81.0541 44.6654 81.0688 44.8031 81.0807 44.9732V49.5087L81.0826 49.5059Z" fill="#55B9EB"/>
<path d="M133.326 34.3337V36.2617C131.741 34.952 129.819 34.122 127.782 33.8683C125.746 33.6145 123.68 33.9475 121.825 34.8286C119.97 35.7096 118.402 37.1023 117.304 38.8445C116.206 40.5867 115.623 42.6067 115.623 44.6691C115.623 46.7315 116.206 48.7515 117.304 50.4937C118.402 52.2359 119.97 53.6286 121.825 54.5096C123.68 55.3906 125.746 55.7236 127.782 55.4699C129.819 55.2162 131.741 54.3861 133.326 53.0764V55.0045H138.733V34.3337H133.326ZM126.451 50.2925C125.344 50.2927 124.263 49.963 123.342 49.3451C122.422 48.7273 121.705 47.8491 121.282 46.8215C120.858 45.7939 120.747 44.6631 120.963 43.5722C121.179 42.4813 121.712 41.4793 122.494 40.6928C123.277 39.9063 124.274 39.3707 125.359 39.1537C126.444 38.9368 127.569 39.0482 128.591 39.4739C129.614 39.8997 130.487 40.6206 131.102 41.5455C131.717 42.4704 132.045 43.5577 132.044 44.67C132.042 46.1607 131.452 47.5898 130.404 48.6438C129.355 49.6979 127.934 50.2908 126.451 50.2925Z" fill="#55B9EB"/>
<path d="M98.2013 37.7803C98.2697 36.5272 98.7825 35.3401 99.6467 34.4343C100.511 33.5286 101.669 32.9641 102.912 32.8431C104.155 32.7222 105.4 33.0528 106.421 33.7751C107.442 34.4974 108.172 35.5635 108.478 36.7802L113.75 36.4882C113.362 33.8892 112.019 31.5309 109.986 29.8782C107.953 28.2255 105.378 27.3984 102.769 27.56C100.159 27.7216 97.7043 28.8602 95.8886 30.7512C94.073 32.6423 93.0281 35.1485 92.96 37.7757V55.5498H98.1967V46.3716H110.059V40.6623H98.1967L98.2013 37.7803Z" fill="#55B9EB"/>
<path d="M205.152 34.8402H199.745V55.5535H205.152V34.8402Z" fill="#F39DAA"/>
<path d="M205.152 30.2197C205.152 28.7189 203.941 27.5022 202.448 27.5022C200.955 27.5022 199.745 28.7189 199.745 30.2197C199.745 31.7204 200.955 32.9371 202.448 32.9371C203.941 32.9371 205.152 31.7204 205.152 30.2197Z" fill="#F39DAA"/>
<path d="M162.184 49.5059V55.5535H168.287L168.12 49.5059L168.036 46.4825L167.994 44.9704C167.976 44.6423 167.949 44.2892 167.919 43.9537C167.903 43.7829 167.877 43.6132 167.842 43.4453L167.75 42.9397C167.455 41.6141 166.907 40.3585 166.137 39.2426C165.388 38.1609 164.457 37.2198 163.384 36.4623C161.289 35.0065 158.789 34.2534 156.242 34.3106C154.339 34.3608 152.474 34.856 150.794 35.7571V33.7329H144.049V55.5609H150.794V44.2938C150.789 43.6588 150.931 43.0314 151.209 42.4612C151.487 41.891 151.894 41.3938 152.396 41.0089L152.417 40.9932C152.959 40.5913 153.565 40.285 154.209 40.0874C155.532 39.6582 156.955 39.6582 158.277 40.0874C158.921 40.2851 159.527 40.5914 160.07 40.9932C161.098 41.7313 161.819 42.826 162.092 44.0664L162.128 44.2883C162.146 44.3613 162.157 44.4359 162.16 44.511C162.16 44.6654 162.174 44.8031 162.186 44.9732V49.5087L162.184 49.5059Z" fill="#F39DAA"/>
<path d="M228.593 34.3346V36.2627C227.008 34.953 225.086 34.1229 223.05 33.8692C221.013 33.6155 218.947 33.9485 217.092 34.8295C215.237 35.7105 213.669 37.1033 212.571 38.8455C211.473 40.5877 210.89 42.6076 210.89 44.67C210.89 46.7324 211.473 48.7524 212.571 50.4946C213.669 52.2368 215.237 53.6295 217.092 54.5105C218.947 55.3916 221.013 55.7246 223.05 55.4708C225.086 55.2171 227.008 54.387 228.593 53.0773V55.0054H234V34.3346H228.593ZM221.718 50.2934C220.612 50.2934 219.53 49.9635 218.61 49.3456C217.69 48.7277 216.973 47.8494 216.549 46.8218C216.126 45.7942 216.015 44.6634 216.231 43.5726C216.447 42.4817 216.98 41.4798 217.763 40.6934C218.545 39.9069 219.542 39.3714 220.627 39.1546C221.712 38.9377 222.837 39.0492 223.86 39.475C224.882 39.9007 225.755 40.6216 226.37 41.5465C226.985 42.4714 227.313 43.5587 227.312 44.6709C227.311 46.1618 226.721 47.591 225.672 48.645C224.623 49.6991 223.201 50.2919 221.718 50.2934Z" fill="#F39DAA"/>
<path d="M185.014 50.2924C181.497 50.2924 178.635 47.722 178.635 44.5619C178.635 41.4017 181.497 38.8313 185.014 38.8313C186.083 38.813 187.14 39.0571 188.094 39.5424C189.048 40.0277 189.869 40.7395 190.487 41.6162L195.062 39.0475C193.989 37.3507 192.503 35.9572 190.745 34.9989C188.987 34.0405 187.014 33.5491 185.014 33.5711C178.601 33.5711 173.402 38.4911 173.402 44.5582C173.402 50.6252 178.601 55.547 185.014 55.547C186.944 55.5662 188.849 55.109 190.562 54.2156C192.275 53.3222 193.743 52.0198 194.838 50.4228L190.429 47.5852C189.807 48.4383 188.991 49.1293 188.049 49.6003C187.107 50.0713 186.066 50.3086 185.014 50.2924Z" fill="#F39DAA"/>
</g>
<defs>
<clipPath id="clip0_3_14">
<rect width="234" height="68" fill="white"/>
</clipPath>
</defs>
</svg>
