<svg width="51" height="66" viewBox="0 0 51 66" fill="none" xmlns="http://www.w3.org/2000/svg">
<g clip-path="url(#clip0_12_31)">
<path d="M40.0036 9.43927C49.3941 17.4192 52.0363 29.4595 50.6584 41.5583C49.5436 51.338 42.9078 59.3461 34.2174 63.2634C23.4215 68.1294 10.5551 66.0986 0.481563 60.3707C0.405347 60.3347 0.338036 60.2816 0.284687 60.2154C0.231339 60.1491 0.193312 60.0714 0.173431 59.988C0.153549 59.9047 0.152334 59.8178 0.16987 59.7338C0.187406 59.6499 0.223248 59.5711 0.274717 59.5033C-0.194117 59.3027 -0.0434841 58.4115 0.518692 58.469C6.71324 59.139 12.3361 57.0714 17.4243 53.5065C22.8594 49.7041 25.8495 45.5461 27.0576 39.0136C24.8556 39.6837 21.7159 38.5539 21.4635 36.0635C21.1718 33.3041 23.937 31.8578 26.2982 32.0312C26.2936 31.9996 26.2936 31.9675 26.2982 31.9358C27.4045 24.819 27.2921 17.6447 22.625 11.8104C19.1246 7.45295 14.2941 4.9625 9.47743 2.45143C9.3791 2.40687 9.29255 2.33903 9.22494 2.2535C9.15734 2.16798 9.11064 2.06722 9.08867 1.95958C9.06669 1.85195 9.0701 1.74052 9.0986 1.63449C9.1271 1.52847 9.17986 1.43092 9.25256 1.34987C9.18266 1.26106 9.13732 1.15474 9.1212 1.04196C9.10507 0.929173 9.11878 0.814008 9.16088 0.708463C9.20299 0.602919 9.27196 0.510843 9.36064 0.441742C9.44932 0.372641 9.55446 0.329048 9.66518 0.315511C15.0634 -0.356909 20.5392 0.105551 25.7563 1.6745C30.9734 3.24344 35.8217 5.88578 40.0036 9.43927ZM49.3941 38.0899C49.6752 26.2122 46.5302 15.9717 36.7801 8.86463C29.2686 3.5283 20.2273 0.912163 11.094 1.43226C23.3791 7.16998 31.6824 17.8041 27.535 32.286C27.5179 32.3347 27.4923 32.3799 27.4597 32.4194C27.5244 32.528 27.5606 32.6518 27.5647 32.7789C27.5689 32.9061 27.5408 33.0321 27.4833 33.1449C27.4258 33.2576 27.3408 33.3533 27.2365 33.4226C27.1322 33.492 27.0121 33.5326 26.8879 33.5405C25.9586 33.4378 25.0191 33.5828 24.1609 33.9612C23.748 34.1506 23.4136 34.4826 23.2165 34.899C23.0194 35.3154 22.9721 35.7896 23.0832 36.238C23.814 38.3078 26.382 37.3016 27.8627 37.7332C27.8815 37.741 27.8977 37.7542 27.9094 37.7711C28.0302 37.7764 28.1485 37.8073 28.2569 37.8618C28.3653 37.9164 28.4614 37.9935 28.5391 38.0882C28.6167 38.1829 28.6742 38.2931 28.7079 38.4117C28.7416 38.5303 28.7506 38.6548 28.7346 38.7773C27.5912 45.9895 24.6954 50.2235 18.8764 54.4671C13.9282 58.0689 8.32444 60.3002 2.31764 59.8026C12.2788 64.2576 23.4025 66.5659 33.7486 61.8333C38.3358 59.8638 42.2602 56.5676 45.0397 52.3495C47.8191 48.1314 49.3326 43.1752 49.3941 38.0899Z" fill="#222221"/>
<path d="M36.7791 8.86573C46.5249 15.9728 49.6742 26.2133 49.3931 38.091C49.3313 43.1769 47.8173 48.1336 45.037 52.352C42.2567 56.5703 38.3314 59.8665 33.7434 61.8355C23.3972 66.5682 12.2735 64.2598 2.31238 59.8048C8.31918 60.3024 13.9229 58.07 18.8711 54.4693C24.6902 50.2257 27.5859 45.9928 28.7294 38.7795C28.7454 38.657 28.7363 38.5325 28.7026 38.4139C28.6689 38.2952 28.6115 38.1851 28.5338 38.0904C28.4562 37.9957 28.3601 37.9186 28.2516 37.864C28.1432 37.8094 28.0249 37.7785 27.9041 37.7733C27.8925 37.7564 27.8763 37.7432 27.8575 37.7354C26.3725 37.3017 23.8098 38.31 23.0779 36.2402C22.9669 35.7918 23.0141 35.3176 23.2112 34.9012C23.4083 34.4848 23.7427 34.1527 24.1556 33.9634C25.0139 33.5849 25.9534 33.44 26.8827 33.5427C27.0068 33.5347 27.1269 33.4941 27.2312 33.4248C27.3355 33.3555 27.4206 33.2598 27.4781 33.1471C27.5356 33.0343 27.5636 32.9082 27.5595 32.7811C27.5553 32.654 27.5191 32.5302 27.4544 32.4216C27.4871 32.3821 27.5126 32.3369 27.5297 32.2882C31.6813 17.8052 23.3781 7.17216 11.0887 1.43445C20.2234 0.913055 29.2663 3.52884 36.7791 8.86573ZM42.8336 30.9362C43.8169 27.2964 40.5001 24.7865 37.2575 24.6477C34.3713 24.523 31.0353 26.6969 32.5066 29.9734C32.7601 30.5155 33.6129 30.1263 33.4527 29.5614C32.1406 24.8993 42.7212 24.8396 41.3995 30.5372C41.3478 30.7316 41.3737 30.939 41.4716 31.1139C41.5694 31.2888 41.7313 31.4167 41.9214 31.4696C42.1116 31.5225 42.3145 31.4961 42.4856 31.396C42.6567 31.296 42.7819 31.1306 42.8336 30.9362Z" fill="#B2D7E8"/>
<path d="M37.2575 24.6412C40.5001 24.7854 43.8169 27.2943 42.8337 30.9297C42.7813 31.1241 42.6556 31.2892 42.4841 31.3889C42.3127 31.4885 42.1095 31.5144 41.9193 31.4609C41.7292 31.4075 41.5676 31.279 41.4701 31.1037C41.3726 30.9284 41.3473 30.7207 41.3996 30.5263C42.7212 24.8277 32.1407 24.8884 33.4528 29.5505C33.6119 30.1154 32.7601 30.5079 32.5066 29.9626C31.0354 26.6915 34.3713 24.5176 37.2575 24.6412Z" fill="#222221"/>
</g>
<defs>
<clipPath id="clip0_12_31">
<rect width="51" height="66" fill="white"/>
</clipPath>
</defs>
</svg>
