<svg xmlns="http://www.w3.org/2000/svg" viewBox="0 0 65.06 65.06"><path d="M43.83,27.55c.89,0,1.68-.08,2.46,0,.2,0,.44.32.55.55a4.37,4.37,0,0,1,.25,1A2.22,2.22,0,0,0,49,30.83a1,1,0,0,0,.52-.17c.43-.26.85-.53,1.27-.81a.89.89,0,0,1,1.27.14c.57.57,1.14,1.15,1.72,1.71A1,1,0,0,1,54,33.11a3,3,0,0,1-.27.42c-1,.86-.58,1.79-.09,2.68a1.37,1.37,0,0,0,.83.44c2.2.5,2,.37,2,2.5s.23,2.05-2,2.54a1.85,1.85,0,0,0-1,2.59c1.16,1.82,1.27,1.53-.34,3.16s-1.37,1.56-3.28.35a1.92,1.92,0,0,0-2.51,1c0,.11,0,.22-.07.33-.42,1.88-1.47,2.36-3.31,1.45,0,.94,0,1.86,0,2.77a4.14,4.14,0,0,1-4.23,4.25q-9.16,0-18.33,0A4.15,4.15,0,0,1,17,53.34c0-3.76,0-7.53,0-11.3,0-.62.13-1.18.87-1.16s.82.59.82,1.2c0,3.63,0,7.26,0,10.89,0,2,1,3,3,3h17.5c2,0,3-1,3-3V25.74c0-.22,0-.45,0-.67,0-.55.25-.94.82-.95s.85.37.85.93C43.84,25.94,43.83,26.83,43.83,27.55Zm7.42,4.05a2.75,2.75,0,0,0-.39.21,2.29,2.29,0,0,1-3.21.28,1.47,1.47,0,0,0-.7-.27,1.39,1.39,0,0,1-1.28-1.4c-.08-.72-.14-1.47-1.21-1.35-.18,0-.38-.17-.56-.26v5.36a5.18,5.18,0,0,1,4.4,1.54A5,5,0,0,1,47,43.62c-.48.24-1,.3-1.26-.19a.84.84,0,0,1,.39-1.26,3.78,3.78,0,0,0,.63-.41,3.34,3.34,0,0,0,.8-4.23A3.13,3.13,0,0,0,43.87,36V49.46l1.57-.35a3,3,0,0,1,2.14-2.93,3.15,3.15,0,0,1,3.59.56l1.17-1a3.2,3.2,0,0,1-.66-3.71,3.14,3.14,0,0,1,3-2.14c.14-1.48.14-1.51-1.16-1.72-.79-.13-1.34-.42-1.48-1.3a3.25,3.25,0,0,0-.51-1.23,1.59,1.59,0,0,1,.1-2.06C52.36,32.56,52.32,32.53,51.25,31.6Z" style="fill:#56b8eb"/><path d="M20.36,39.18A11.73,11.73,0,1,1,32.11,27.49,11.75,11.75,0,0,1,20.36,39.18ZM28,33.82A9.93,9.93,0,0,0,27.1,20a10,10,0,0,0-14.53,1.16c-3.56,4.35-2.38,10.29.18,12.63a6,6,0,0,1,5.7-3c1.2,0,2.41.05,3.6,0A6.15,6.15,0,0,1,28,33.82Zm-7.61-1.34c-.9,0-1.79,0-2.68,0a4.11,4.11,0,0,0-3.51,2.09c-.25.42-.17.66.22,1a10.33,10.33,0,0,0,11.84,0c.44-.33.45-.59.18-1a4.09,4.09,0,0,0-3.46-2C22.16,32.45,21.29,32.48,20.43,32.48Z" style="fill:#56b8eb"/><path d="M43.85,15.72h4.86a3.35,3.35,0,1,1,0,6.7q-4.94,0-9.87,0a3.35,3.35,0,1,1,0-6.7Zm-.1,5c1.59,0,3.19,0,4.78,0,1.21,0,2-.65,2-1.65s-.77-1.69-2-1.69H39.1c-1.21,0-2,.68-2,1.7a1.72,1.72,0,0,0,1.92,1.64C40.63,20.75,42.19,20.74,43.75,20.74Z" style="fill:#56b8eb"/><path d="M30.42,7.34h8.87a4.22,4.22,0,0,1,4.54,4.54,4.2,4.2,0,0,1,0,1.33A1.35,1.35,0,0,1,43,14c-.5.11-.82-.28-.85-.8s0-1.11,0-1.67A2.47,2.47,0,0,0,39.64,9q-9.2,0-18.41,0a2.47,2.47,0,0,0-2.52,2.57c0,.5,0,1,0,1.5s-.3,1-.84.89a1.25,1.25,0,0,1-.79-.85,7.62,7.62,0,0,1,0-2.08,4.14,4.14,0,0,1,4.16-3.71C24.29,7.32,27.36,7.35,30.42,7.34Z" style="fill:#56b8eb"/><path d="M30.52,42.52h7.1c.62,0,1.17.13,1.16.87s-.53.82-1.12.81c-1.06,0-2.12,0-3.18,0H23.28c-.61,0-1.18-.08-1.2-.82s.55-.87,1.17-.86h7.27Z" style="fill:#56b8eb"/><path d="M28.68,50.9H23.25c-.61,0-1.18-.12-1.17-.86s.59-.83,1.19-.83h11c.6,0,1.19.07,1.21.81s-.6.88-1.23.88Z" style="fill:#56b8eb"/><path d="M26.25,45.87c1,0,2.05,0,3.08,0,.61,0,1.09.19,1.08.87s-.47.81-1,.81H23.11c-.57,0-1-.2-1-.82s.48-.86,1.08-.86C24.19,45.88,25.22,45.87,26.25,45.87Z" style="fill:#56b8eb"/><path d="M30.51,10.69h2.17c.6,0,1.09.19,1.08.86s-.46.83-1,.82H28.14c-.57,0-1-.19-1-.82s.47-.86,1.07-.86Z" style="fill:#56b8eb"/><path d="M11.62,43.22c.57-.4.92-.83,1.21-.8a1.22,1.22,0,0,1,.8.82.71.71,0,0,1-.89.81C12.42,44,12.16,43.63,11.62,43.22Z" style="fill:#56b8eb"/><path d="M13.07,45.6c.2.34.6.71.55,1a1.28,1.28,0,0,1-.84.79.63.63,0,0,1-.74-.83,3.24,3.24,0,0,1,.64-1Z" style="fill:#56b8eb"/><path d="M13,48.94c.21.32.63.68.59,1a1.27,1.27,0,0,1-.8.83A.63.63,0,0,1,12,50a3.54,3.54,0,0,1,.6-1Z" style="fill:#56b8eb"/><path d="M20.41,20.75a4.19,4.19,0,1,1-4.22,4.18A4.2,4.2,0,0,1,20.41,20.75Zm0,6.69A2.51,2.51,0,1,0,17.87,25,2.52,2.52,0,0,0,20.4,27.44Z" style="fill:#56b8eb"/></svg>