<svg width="144" height="92" viewBox="0 0 144 92" fill="none" xmlns="http://www.w3.org/2000/svg">
<g clip-path="url(#clip0_12_36)">
<path d="M103.797 46.2293C103.755 46.2251 103.715 46.1982 103.719 46.1557C104.049 44.1735 103.968 42.1452 103.48 40.1965C85.9469 54.9995 63.6565 62.6069 45.6354 76.9941C45.8763 77.1682 46.097 77.3685 46.2933 77.5914C46.7492 78.1442 47.0782 78.79 47.2573 79.4834C47.4364 80.1768 47.4612 80.9011 47.33 81.6054C57.2732 75.3142 67.2225 68.9776 77.0935 62.592C85.5114 57.1388 94.2635 49.5189 103.797 46.2293ZM13.5642 87.6014C12.2638 87.6792 10.9844 86.1707 12.0287 85.0311C19.4009 76.2442 25.8312 66.7118 31.2142 56.59C31.2864 56.4544 31.3852 56.3347 31.5048 56.2381C31.6244 56.1415 31.7623 56.07 31.9103 56.0279C32.0582 55.9857 32.2131 55.9739 32.3657 55.9929C32.5183 56.012 32.6654 56.0617 32.7983 56.1389C32.8229 56.0998 32.8487 56.0802 32.8757 56.0406C44.7033 48.4304 56.5938 40.8918 68.4551 33.3293C75.5557 28.7973 82.8684 22.7262 91.3156 21.1051C91.4201 19.7798 91.9782 18.5304 92.8962 17.5662C93.8142 16.6021 95.0363 15.9819 96.3575 15.8098C96.6249 11.8672 100.28 9.9904 104.121 10.8005C104.561 10.8986 105.035 11.0615 105.493 11.2029C105.278 11.0594 105.111 10.8548 105.014 10.6156C104.917 10.3764 104.894 10.1135 104.948 9.86098C105.002 9.60844 105.131 9.37781 105.317 9.19883C105.504 9.01985 105.74 8.90076 105.995 8.85692C111.408 8.41712 111.96 1.37144 118.377 3.06256C122.968 4.24107 127.107 9.29898 130.135 12.6961C133.354 16.2876 135.991 20.4126 133.91 25.2454C131.553 30.7623 124.828 33.6407 120.917 37.9566C120.853 38.0243 120.771 38.0725 120.68 38.0958C120.59 38.1191 120.494 38.1165 120.405 38.0884C119.823 39.8104 118.842 41.3711 117.541 42.6433C116.24 43.9154 114.656 44.863 112.919 45.4087C112.829 45.44 112.732 45.4443 112.64 45.4212C112.548 45.3981 112.465 45.3485 112.401 45.2785C112.116 46.0616 111.647 46.7652 111.033 47.3307C110.42 47.8962 109.68 48.3072 108.875 48.5292C108.07 48.7513 107.224 48.7781 106.407 48.6073C105.59 48.4365 104.826 48.0731 104.178 47.5474C104.162 47.5236 104.143 47.478 104.124 47.4546C97.3964 54.7386 87.2396 59.6086 78.9806 64.9653C68.9456 71.4598 58.8761 77.8938 48.7721 84.2671C48.4434 84.4749 48.0507 84.5574 47.6662 84.4996C47.5925 84.675 47.4749 84.8287 47.3247 84.9459C47.1745 85.0631 46.9967 85.1399 46.8083 85.1688C35.9096 86.9146 24.5633 86.9151 13.5642 87.6014ZM22.4502 77.4869C23.7953 77.7192 24.9952 78.4679 25.7932 79.5726C26.5911 80.6772 26.9235 82.0501 26.7192 83.3972C32.7392 82.9477 38.7666 82.6024 44.7605 82.7279C45.0818 82.1647 45.2132 81.5135 45.1353 80.8705C45.0573 80.2274 44.7742 79.6266 44.3276 79.1568C43.8194 78.6922 43.1555 78.4338 42.4659 78.4322C41.7572 78.4098 41.1326 78.7644 40.4364 78.6388C40.2702 78.6158 40.1116 78.5552 39.9725 78.4618C39.8334 78.3683 39.7175 78.2444 39.6337 78.0995C39.5498 77.9546 39.5002 77.7925 39.4887 77.6255C39.4771 77.4585 39.5038 77.2911 39.5669 77.1359C39.7338 76.8338 39.9614 76.5691 40.2353 76.3585C40.5092 76.1479 40.8237 75.9958 41.159 75.9118C41.8535 75.3634 42.3346 74.5905 42.5192 73.7265C42.7038 72.8625 42.5804 71.9615 42.1702 71.1791C41.864 70.7412 41.4553 70.3845 40.9797 70.1398C40.504 69.895 39.9756 69.7696 39.4403 69.7745C38.4602 69.8911 37.5144 70.2072 36.6615 70.7034C35.8011 71.0489 34.6821 70.1634 35.1506 69.234C35.4159 68.7098 35.8116 68.2623 36.2999 67.9345C36.5162 67.2704 36.5825 66.5669 36.4939 65.8746C36.4053 65.1822 36.1641 64.5182 35.7876 63.9302C35.4111 63.3421 34.9087 62.8447 34.3164 62.4737C33.7241 62.1027 33.0567 61.8672 32.3621 61.7843C32.2547 61.7648 32.1505 61.7309 32.0523 61.6835C29.4209 67.275 26.2012 72.572 22.4474 77.4849L22.4502 77.4869ZM33.3591 58.7643C33.2667 58.9907 33.157 59.1909 33.0642 59.415C34.6665 59.6152 36.1372 60.4007 37.1922 61.6198C38.2473 62.8389 38.812 64.4052 38.7773 66.0162C57.5856 52.7642 78.1812 41.6194 97.9443 29.8786C98.039 29.831 98.1381 29.7925 98.2401 29.7634C96.6871 27.6845 95.0022 25.7071 93.1958 23.8433C93.1007 23.7575 93.0259 23.6518 92.9766 23.5338C92.9273 23.4157 92.9049 23.2882 92.9108 23.1604C82.2273 26.6981 72.7305 34.4424 63.3615 40.4377C53.8761 46.5067 44.4075 52.5996 34.904 58.6253C34.6781 58.7747 34.4184 58.8655 34.1486 58.8894C33.8787 58.9132 33.6071 58.8694 33.3587 58.7619L33.3591 58.7643ZM39.7221 67.0994C40.6718 67.1653 41.594 67.445 42.4196 67.9173C43.2452 68.3896 43.9527 69.0424 44.4892 69.8266C45.0302 70.8106 45.2687 71.932 45.1749 73.0509C45.0811 74.1698 44.6591 75.2367 43.9616 76.1184C44.1886 76.1865 44.408 76.2773 44.6166 76.3894C59.749 59.2321 84.3968 52.0807 102.315 38.3567C102.479 38.2288 102.675 38.1482 102.881 38.1237C102.076 35.9266 101.016 33.831 99.7236 31.8792C99.6739 31.9157 99.6498 31.9571 99.6025 31.9931C79.9064 43.8661 60.2826 56.7671 39.7221 67.0994ZM93.6343 20.787C93.8774 20.7703 94.1384 20.7182 94.3772 20.7047C94.5869 20.6798 94.7988 20.7266 94.9782 20.8377C95.1575 20.9487 95.2937 21.1172 95.3644 21.3157C95.435 21.5142 95.436 21.7308 95.3671 21.93C95.2982 22.1292 95.1635 22.2992 94.9851 22.4121C98.6172 25.4294 101.523 29.2229 103.487 33.5123C105.019 36.8131 107.255 41.9405 105.863 45.5761C105.798 45.739 105.691 45.8818 105.552 45.9894C105.414 46.097 105.249 46.1655 105.075 46.1878L105.032 46.1836C105.063 46.2376 105.075 46.3 105.066 46.3614C115.026 48.5385 111.315 32.5986 108.884 28.2208C106.222 23.6118 102.173 19.9561 97.3116 17.7708C97.2181 17.7171 97.1325 17.6507 97.0573 17.5735C96.2379 17.723 95.4789 18.1052 94.8715 18.6744C94.2641 19.2437 93.8342 19.9756 93.6334 20.7823L93.6343 20.787ZM105.406 13.6346C103.342 14.5013 101.276 15.3684 99.2122 16.2129C103.165 17.9867 106.599 20.7378 109.187 24.2061C111.776 27.6743 113.434 31.745 114.005 36.0329C114.306 38.7788 113.935 41.5571 112.924 44.13C115.613 42.1424 117.573 39.3291 118.503 36.1228C119.434 32.9166 119.283 29.4951 118.074 26.3848C116.681 22.9876 114.458 19.993 111.607 17.6738C110.691 16.9053 109.728 16.1923 108.726 15.5388C107.62 14.8892 106.511 14.2624 105.406 13.6346ZM111.23 9.16351C110.62 9.9147 109.839 10.5097 108.952 10.8989C108.065 11.2881 107.098 11.4602 106.132 11.4009C110.915 13.568 115.002 17.017 117.937 21.3643C120.695 25.4705 121.825 30.4546 121.106 35.3484C122.449 33.5237 124.048 31.9015 125.854 30.5315C127.382 29.3762 128.79 28.0714 130.057 26.6366L130.486 17.344C129.296 15.3569 127.744 13.6089 125.911 12.1898C123.425 9.63317 118.623 3.85113 114.129 6.24875C113.049 7.10106 112.075 8.08055 111.231 9.16589L111.23 9.16351Z" fill="#222221"/>
<path d="M26.7182 83.4049C26.9225 82.0578 26.5901 80.685 25.7922 79.5803C24.9943 78.4756 23.7943 77.727 22.4492 77.4946C26.2038 72.5793 29.4239 67.2798 32.0552 61.6856C32.1534 61.733 32.2576 61.7669 32.365 61.7864C33.0596 61.8693 33.727 62.1048 34.3193 62.4758C34.9116 62.8468 35.414 63.3442 35.7905 63.9323C36.167 64.5203 36.4082 65.1843 36.4968 65.8767C36.5853 66.5691 36.5191 67.2725 36.3028 67.9366C35.8145 68.2644 35.4187 68.712 35.1535 69.2362C34.6731 70.1678 35.7921 71.0532 36.6643 70.7055C37.5172 70.2093 38.463 69.8932 39.4431 69.7766C39.9785 69.7718 40.5069 69.8971 40.9826 70.1418C41.4582 70.3866 41.8669 70.7433 42.1731 71.1812C42.5832 71.9636 42.7067 72.8646 42.522 73.7286C42.3374 74.5926 41.8564 75.3655 41.1619 75.9139C40.8266 75.998 40.5121 76.15 40.2382 76.3606C39.9643 76.5713 39.7367 76.8359 39.5697 77.138C39.5067 77.2932 39.48 77.4607 39.4915 77.6276C39.5031 77.7946 39.5527 77.9567 39.6365 78.1016C39.7204 78.2465 39.8362 78.3704 39.9753 78.4639C40.1144 78.5573 40.2731 78.6179 40.4392 78.6409C41.1331 78.767 41.7577 78.4123 42.4687 78.4344C43.1583 78.4359 43.8223 78.6943 44.3305 79.1589C44.7771 79.6287 45.0602 80.2295 45.1382 80.8726C45.2161 81.5156 45.0847 82.1668 44.7633 82.73C38.7687 82.5875 32.7359 82.9436 26.7182 83.4049Z" fill="#EBD7BE"/>
<path d="M33.0638 59.4128C33.1567 59.1888 33.2659 58.9862 33.3588 58.7621C33.6068 58.8697 33.8778 58.9138 34.1473 58.8904C34.4168 58.8671 34.6763 58.777 34.9022 58.6283C44.4061 52.6049 53.8723 46.5126 63.3597 40.4407C72.731 34.445 82.2279 26.7007 92.909 23.1634C92.903 23.2912 92.9255 23.4187 92.9748 23.5368C93.024 23.6549 93.0989 23.7605 93.194 23.8463C95.0004 25.7101 96.6853 27.6875 98.2382 29.7664C98.1362 29.7955 98.0372 29.8341 97.9424 29.8816C78.1789 41.62 57.5833 52.7648 38.7754 66.0192C38.8115 64.4075 38.2476 62.8402 37.1927 61.62C36.1378 60.3998 34.6668 59.6135 33.0638 59.4128Z" fill="#55B9EB"/>
<path d="M44.4983 69.8226C43.9618 69.0383 43.2543 68.3856 42.4287 67.9133C41.6031 67.4409 40.6809 67.1613 39.7312 67.0954C60.2917 56.7631 79.9164 43.8669 99.6092 31.9896C99.6589 31.9531 99.6831 31.9116 99.7304 31.8756C101.023 33.8274 102.082 35.923 102.888 38.1201C102.682 38.1446 102.486 38.2252 102.322 38.3531C84.4041 52.0795 59.7429 59.2261 44.6233 76.3858C44.4148 76.2737 44.1953 76.1829 43.9684 76.1148C44.6663 75.2333 45.0888 74.1665 45.183 73.0475C45.2773 71.9285 45.0391 70.8069 44.4983 69.8226Z" fill="#55B9EB"/>
<path d="M46.2921 77.5844C46.0957 77.3616 45.8751 77.1613 45.6342 76.9872C63.6542 62.6075 85.947 54.9997 103.479 40.1895C103.966 42.1383 104.048 44.1666 103.718 46.1487C103.711 46.1918 103.753 46.2182 103.796 46.2224C94.2618 49.5096 85.5102 57.1319 77.0909 62.578C67.2227 68.9655 57.2706 75.3001 47.3274 81.5913C47.4577 80.8883 47.4325 80.1654 47.2537 79.4733C47.0749 78.7812 46.7467 78.1366 46.2921 77.5844Z" fill="#55B9EB"/>
<path d="M94.3768 20.7025C94.1333 20.7169 93.8723 20.769 93.634 20.7848C93.8346 19.9765 94.2652 19.2432 94.8739 18.6732C95.4826 18.1032 96.2434 17.7209 97.0646 17.5723C97.1398 17.6495 97.2254 17.7159 97.3189 17.7696C102.18 19.9549 106.229 23.6106 108.892 28.2196C111.327 32.5965 115.033 48.5373 105.073 46.3603C105.082 46.2989 105.07 46.2364 105.04 46.1824L105.082 46.1866C105.256 46.1643 105.421 46.0958 105.56 45.9882C105.698 45.8806 105.805 45.7379 105.87 45.5749C107.262 41.9417 105.026 36.8142 103.494 33.5111C101.532 29.22 98.6275 25.4246 94.9962 22.4053C95.1735 22.2911 95.3068 22.1202 95.3742 21.9207C95.4415 21.7211 95.4391 21.5047 95.3671 21.3069C95.2952 21.1091 95.158 20.9416 94.9781 20.8318C94.7982 20.722 94.5862 20.6764 94.3768 20.7025Z" fill="#C4C4C4"/>
<path d="M99.2132 16.2178C101.269 15.3723 103.343 14.5062 105.407 13.6395C106.512 14.2672 107.617 14.8974 108.725 15.5441C109.727 16.1977 110.689 16.9106 111.606 17.6791C114.457 19.9983 116.68 22.993 118.072 26.3901C119.281 29.5005 119.432 32.9219 118.502 36.1282C117.572 39.3344 115.611 42.1477 112.923 44.1353C113.933 41.5624 114.304 38.7841 114.004 36.0382C113.433 31.7505 111.775 27.6799 109.187 24.2116C106.599 20.7433 103.166 17.9919 99.2132 16.2178Z" fill="#C4C4C4"/>
<path d="M106.133 11.4082C107.1 11.4675 108.067 11.2954 108.954 10.9062C109.841 10.517 110.622 9.92201 111.232 9.17083C112.075 8.08689 113.047 7.10851 114.126 6.25695C118.618 3.85978 123.423 9.6485 125.907 12.198C127.741 13.6172 129.292 15.3651 130.483 17.3522L130.053 26.6449C128.786 28.0796 127.378 29.3844 125.851 30.5397C124.045 31.9096 122.446 33.5319 121.103 35.3566C121.822 30.4629 120.692 25.4787 117.933 21.3725C115 17.0255 110.915 13.5763 106.133 11.4082Z" fill="#CFA198"/>
</g>
<defs>
<clipPath id="clip0_12_36">
<rect width="68" height="133" fill="white" transform="translate(12.7036 91.6497) rotate(-100.767)"/>
</clipPath>
</defs>
</svg>
