<svg xmlns="http://www.w3.org/2000/svg" viewBox="0 0 65.06 65.06"><path d="M45.68,26.07c1-1,1.92-2.05,2.89-3.06.75-.77,1.52-1.53,2.3-2.28.58-.57,1-.59,1.59-.05q2.15,2.12,4.25,4.26c.56.57.52,1-.13,1.64Q51.27,31.91,46,37.2a1.7,1.7,0,0,0-.56,1.35q0,8.52,0,17c0,1.46-.17,1.62-1.64,1.62H9.45C8.1,57.21,8,57.07,8,55.71V9.37C8,8,8.1,7.86,9.44,7.86q12.92,0,25.83,0a2,2,0,0,1,1.57.63c2.65,2.69,5.34,5.35,8,8.06A2.29,2.29,0,0,1,45.37,18c.06,2.36,0,4.73,0,7.09v.84ZM9.74,9.6V55.44H43.59V39.73l-.17-.16c-1.46,2.42-3.81,3.36-6.32,4l-.52.16-2.26.77a32.47,32.47,0,0,0,3.66.15c.51,0,.85.21.89.76a.82.82,0,0,1-.82.92,6.54,6.54,0,0,1-.77,0H16.85c-.49,0-1,0-1.47,0s-1-.25-1-.91.46-.8,1-.79H32.57L33,42.1H15.81c-.28,0-.64,0-.83-.09s-.59-.58-.56-.86.41-.57.71-.74.5,0,.76,0H31.46c.74,0,1.67.23,2.17-.13s.62-1.3.8-2a6.06,6.06,0,0,1,1.77-2.89c2.35-2.27,4.62-4.61,6.95-6.9a1.66,1.66,0,0,0,.52-1.29c0-2.67,0-5.34,0-8,0-.27,0-.55,0-.86H36.2c-.88,0-1.09-.21-1.1-1.1,0-2.23,0-4.47,0-6.71V9.6Zm38.2,16.76L37.25,37.07l3.07,3.07L51.05,29.51Zm4.47,1.73,2.47-2.45-3.1-3.13-2.54,2.4ZM42.1,16.48l-5.25-5.33v5.33ZM34.84,42.56l3.71-1.23-2.47-2.52Z" style="fill:#56b8eb"/><path d="M26.61,50.67H15.9a1.73,1.73,0,0,1-.83-.06,1.43,1.43,0,0,1-.66-.79c0-.24.3-.6.56-.78a1.55,1.55,0,0,1,.82-.11H37.5c.26,0,.58,0,.75.09s.59.57.57.84-.39.58-.68.76-.5.05-.75.05Z" style="fill:#56b8eb"/><path d="M21.33,37.79H15.56c-.79,0-1.24-.32-1.19-.87.06-.74.59-.86,1.22-.86H27c.77,0,1.26.34,1.2.87-.08.72-.59.86-1.23.86C25.08,37.78,23.21,37.79,21.33,37.79Z" style="fill:#56b8eb"/></svg>