<svg xmlns="http://www.w3.org/2000/svg" viewBox="0 0 65.06 65.06"><path d="M35.76,41.79c1-.74,1.94-1.41,2.84-2.15a1,1,0,0,0,.11-.75,8.61,8.61,0,0,1,4.9-10.09c.37-.17.77-.29,1.23-.47L43.13,26l-1.74-2.3a8.67,8.67,0,0,1-13-5.75l-3.6,3.08c.17.25.32.49.48.72a8.31,8.31,0,0,1,1.36,3.74,1.4,1.4,0,0,0,.63,1.07c1.08.83,2.17,1.66,3.22,2.52a.84.84,0,0,0,1.09.11,3.1,3.1,0,1,1,2.74,5.56A3.1,3.1,0,0,1,30,31.28a.75.75,0,0,0-.33-.9c-1-.74-2-1.51-3-2.33a9,9,0,0,1-2.7,4.82A8.57,8.57,0,1,1,16.7,18.08c.54-.09.67-.28.65-.79,0-.92,0-1.85,0-2.78a.68.68,0,0,0-.48-.76,3.08,3.08,0,0,1-1.76-3.56A3.15,3.15,0,0,1,18.16,7.8a3.11,3.11,0,0,1,3,2.42,3.14,3.14,0,0,1-1.76,3.57.93.93,0,0,0-.45.67c-.05,1,0,2,0,3,0,.19.22.53.37.55A9.12,9.12,0,0,1,23.68,20c1.47-1.26,2.94-2.47,4.34-3.75a2,2,0,0,0,.38-1.12,8.57,8.57,0,0,1,16.84-.6,1,1,0,0,0,.67.84c1.63.77,3.24,1.58,4.87,2.33a1.09,1.09,0,0,0,.83,0,3.12,3.12,0,0,1,4.63,3.55,3.12,3.12,0,0,1-6.09-1.09c0-.29.08-.58.13-.91l-4.83-2.33a8.82,8.82,0,0,1-2.82,5.91c1.3,1.73,2.56,3.43,3.86,5.1a1,1,0,0,0,.76.25,8.57,8.57,0,0,1,1.42,17,8.35,8.35,0,0,1-8.74-3.58c-.13-.17-.25-.34-.41-.57-1,.72-1.91,1.41-2.82,2.13a.86.86,0,0,0-.16.63c0,.34.24.68.21,1a2.16,2.16,0,0,0,1.71,2.43A32.89,32.89,0,0,1,42,48.79a1.14,1.14,0,0,0,1.25,0,3.07,3.07,0,0,1,4.31,1.46,3.15,3.15,0,0,1-1.79,4.2,3.08,3.08,0,0,1-4-2,10.82,10.82,0,0,1-.13-2L36.7,48c-.19.52-.34,1-.54,1.47a8.56,8.56,0,0,1-16.28-1.81c-.13-.7-.39-.86-1-.82-.85.06-1.7,0-2.56,0a.69.69,0,0,0-.77.47A3.06,3.06,0,0,1,12,49.07a3.15,3.15,0,0,1-2.4-3A3.1,3.1,0,0,1,12,43a3,3,0,0,1,3.55,1.76.68.68,0,0,0,.76.48c.95,0,1.9,0,2.85,0,.45,0,.62-.11.71-.58a8.5,8.5,0,0,1,9.28-7.17,8.31,8.31,0,0,1,6.31,3.76C35.52,41.41,35.61,41.56,35.76,41.79Zm5.89-20.34a6.93,6.93,0,0,0,1.62-7.95,7,7,0,0,0-13.33,1.71c-.4,2.33.69,5.4,2.2,6.16.3-2,1-2.64,3.1-2.64h3.22C40.61,18.73,41.27,19.29,41.65,21.45ZM13.43,31.57c0-.19,0-.35.06-.51a2.32,2.32,0,0,1,2.32-2.18q2.34,0,4.68,0a2.35,2.35,0,0,1,2.29,2c0,.23.08.46.12.71,2-1.5,2.79-4.82,1.85-7.43a7,7,0,0,0-13.4.62C10.71,27.32,11.65,30.48,13.43,31.57ZM51.75,41.75A6.86,6.86,0,0,0,53.52,34,7,7,0,0,0,40.05,35.8c-.37,2,.78,5.11,2.24,5.88.21-1.94,1-2.67,3-2.68h3.44C50.71,39,51.51,39.73,51.75,41.75ZM23.54,51.11c.24-2,1.05-2.73,3-2.74h3.81a2.34,2.34,0,0,1,2.25,1.22,8.2,8.2,0,0,1,.46,1.48,6.85,6.85,0,0,0,.47-9.66,7,7,0,0,0-10.33-.22C20.52,44,20.65,48.79,23.54,51.11ZM36.87,20.28c-.65,0-1.31,0-2,0-.88,0-1.13.27-1.15,1.13,0,.22,0,.44,0,.65a.69.69,0,0,0,.53.81,7.19,7.19,0,0,0,4.37.26C40,22.81,40,22.77,40,21.35c0-.77-.27-1-1.07-1.06S37.55,20.28,36.87,20.28ZM18.21,30.44c-.71,0-1.41,0-2.12,0s-1,.26-1.07,1.05c0,.22,0,.44,0,.65a.75.75,0,0,0,.61.91,7.08,7.08,0,0,0,4.22.25c1.44-.38,1.49-.43,1.42-1.89a.9.9,0,0,0-1-1ZM47,40.58H45c-.87,0-1.11.26-1.13,1.15a4.7,4.7,0,0,1,0,.65.68.68,0,0,0,.54.81,6.87,6.87,0,0,0,4.36.24c1.67-.5,1.28-.26,1.32-1.89a.84.84,0,0,0-.94-.95ZM28.31,49.94h-2c-.89,0-1.14.25-1.16,1.12a2.22,2.22,0,0,0,0,.73c.1.27.27.63.5.73a6.71,6.71,0,0,0,4.22.32c1.43-.33,1.51-.42,1.46-1.88,0-.72-.29-1-1-1ZM34.53,32a1.57,1.57,0,1,0-1.63,1.52A1.58,1.58,0,0,0,34.53,32ZM44.7,53a1.58,1.58,0,0,0,1.54-1.53,1.62,1.62,0,0,0-1.59-1.57,1.64,1.64,0,0,0-1.54,1.56A1.56,1.56,0,0,0,44.7,53ZM18.11,9.39a1.55,1.55,0,0,0-1.53,1.52,1.6,1.6,0,0,0,1.59,1.57,1.55,1.55,0,0,0,1.5-1.62A1.49,1.49,0,0,0,18.11,9.39ZM54.79,20.3a1.49,1.49,0,0,0-1.48-1.55,1.54,1.54,0,1,0,0,3.08A1.51,1.51,0,0,0,54.79,20.3ZM11.14,46a1.56,1.56,0,0,0,1.55,1.59,1.59,1.59,0,0,0,1.54-1.53,1.54,1.54,0,0,0-1.56-1.56A1.49,1.49,0,0,0,11.14,46Z" style="fill:#56b8eb"/><path d="M40,14.06a3.12,3.12,0,1,1-6.23,0,3.12,3.12,0,1,1,6.23,0Zm-3.11,1.51a1.5,1.5,0,0,0,1.54-1.49,1.53,1.53,0,0,0-1.54-1.58,1.56,1.56,0,0,0-1.56,1.58A1.54,1.54,0,0,0,36.87,15.57Z" style="fill:#56b8eb"/><path d="M18.16,21.09A3.1,3.1,0,1,1,15,24.17,3.1,3.1,0,0,1,18.16,21.09Zm1.51,3.13a1.57,1.57,0,0,0-1.54-1.6,1.62,1.62,0,0,0-1.55,1.54,1.58,1.58,0,0,0,1.56,1.58A1.52,1.52,0,0,0,19.67,24.22Z" style="fill:#56b8eb"/><path d="M43.91,34.3A3.11,3.11,0,1,1,47,37.45,3.11,3.11,0,0,1,43.91,34.3ZM47,32.8a1.52,1.52,0,0,0-1.52,1.53A1.56,1.56,0,0,0,47,35.89a1.58,1.58,0,0,0,1.53-1.55A1.54,1.54,0,0,0,47,32.8Z" style="fill:#56b8eb"/><path d="M31.38,43.72a3.1,3.1,0,1,1-3.07-3.14A3.1,3.1,0,0,1,31.38,43.72Zm-3.09-1.56a1.55,1.55,0,1,0,0,3.09,1.55,1.55,0,1,0,0-3.09Z" style="fill:#56b8eb"/></svg>