<svg width="56" height="50" viewBox="0 0 56 50" fill="none" xmlns="http://www.w3.org/2000/svg">
<g clip-path="url(#clip0_12_46)">
<path d="M54.748 17.522C56.3812 17.8307 56.302 19.9918 55.1643 20.7899C50.5961 24.2488 45.5623 27.0547 40.2099 29.1256C43.1562 34.9887 44.5326 41.5067 44.2065 48.0515C44.1976 48.3973 44.0994 48.7351 43.9214 49.0325C43.7434 49.3298 43.4916 49.5768 43.19 49.7499C42.8884 49.9229 42.5472 50.0161 42.1989 50.0206C41.8507 50.0252 41.5071 49.9408 41.201 49.7757C35.5481 47.0464 30.3009 43.5564 25.6073 39.4041C19.7018 42.6458 13.7171 45.7855 7.75875 48.9515C7.38228 49.1588 6.94808 49.2388 6.5218 49.1793C6.09553 49.1198 5.70038 48.9241 5.39599 48.6218C5.09161 48.3194 4.89454 47.9269 4.83465 47.5035C4.77477 47.0801 4.85527 46.6488 5.064 46.2748C7.66211 40.5706 10.6838 35.0661 14.1041 29.8072C8.72448 28.1855 3.97679 24.9603 0.504385 20.5685C0.279049 20.3397 0.117696 20.0565 0.0361996 19.7469C-0.0452973 19.4372 -0.0440934 19.1118 0.0396895 18.8027C0.123472 18.4937 0.28694 18.2116 0.51396 17.9845C0.74098 17.7573 1.02365 17.5929 1.33418 17.5074C7.28204 16.0158 13.455 15.6209 19.5463 16.3424C21.2558 11.2221 23.3583 6.22707 25.3493 1.23784C25.4499 0.918382 25.64 0.633921 25.8972 0.417663C26.1544 0.201405 26.4682 0.0622604 26.8021 0.0164613C27.1359 -0.0293379 27.4759 0.0201069 27.7825 0.15901C28.0892 0.297913 28.3496 0.520548 28.5337 0.800955C31.9712 5.25992 34.1612 10.542 34.882 16.1123C41.1248 14.924 48.5433 16.3919 54.748 17.522ZM38.1955 26.3762C41.7464 24.1364 45.5261 22.3365 49.1797 20.2773C44.2847 19.8765 39.427 19.1112 34.6474 17.988C34.4911 17.923 34.3561 17.8161 34.2574 17.6793C33.325 18.2967 31.6917 18.1162 31.4836 16.8055C30.8702 12.7197 29.4534 8.79377 27.3139 5.25135C25.5018 9.32895 23.6603 13.4065 21.5902 17.3443C21.6774 17.5879 21.7076 17.848 21.6784 18.105C21.6492 18.3619 21.5615 18.6088 21.4219 18.8269C21.2822 19.0451 21.0943 19.2288 20.8725 19.364C20.6507 19.4993 20.4007 19.5825 20.1416 19.6074C15.1949 19.919 10.4271 19.8986 5.55662 20.5336C6.92201 21.9125 8.41413 23.1616 10.0136 24.2646C12.1365 25.7558 14.5469 26.7577 16.5672 28.3422C16.6912 28.4532 16.7795 28.598 16.8213 28.7586C16.863 28.9191 16.8562 29.0883 16.8018 29.2451C16.8662 29.4628 16.8662 29.6943 16.8018 29.9121C15.3792 34.2671 13.5668 38.4868 11.3859 42.5205C15.582 40.2575 19.7781 37.9682 24.0298 35.7779C24.0433 35.7628 24.0622 35.7534 24.0825 35.7517C24.2875 35.5548 24.5563 35.4366 24.8408 35.4179C25.1254 35.3992 25.4073 35.4814 25.6366 35.6498C25.6508 35.6641 25.6694 35.6734 25.6894 35.676C25.93 35.7819 26.1496 35.9298 26.3375 36.1129C30.8021 39.232 35.4277 42.1174 40.1953 44.7574C39.9694 39.7531 38.6613 34.8558 36.3599 30.3984C36.2255 30.1431 36.1479 29.8622 36.1321 29.5746C36.1163 29.287 36.1628 28.9993 36.2684 28.731C36.374 28.4628 36.5362 28.2201 36.7442 28.0194C36.9522 27.8187 37.2011 27.6645 37.4741 27.5674C37.497 27.3279 37.5736 27.0965 37.6985 26.8904C37.8233 26.6842 37.9932 26.5085 38.1955 26.3762Z" fill="#222221"/>
<path d="M49.1796 20.2773C45.526 22.3365 41.7434 24.1364 38.1954 26.3762C37.9903 26.51 37.8186 26.6883 37.6931 26.8977C37.5676 27.1071 37.4918 27.3421 37.4712 27.5849C37.1982 27.682 36.9493 27.8361 36.7413 28.0369C36.5333 28.2376 36.371 28.4803 36.2654 28.7486C36.1598 29.0168 36.1134 29.3044 36.1292 29.5921C36.145 29.8797 36.2226 30.1606 36.3569 30.4159C38.6583 34.8732 39.9664 39.7706 40.1923 44.7749C35.4247 42.1349 30.7992 39.2495 26.3345 36.1304C26.1466 35.9473 25.9271 35.7993 25.6865 35.6935C25.6664 35.6908 25.6478 35.6816 25.6337 35.6673C25.4044 35.4989 25.1224 35.4167 24.8379 35.4354C24.5533 35.454 24.2846 35.5723 24.0796 35.7692C24.0592 35.7709 24.0403 35.7802 24.0268 35.7954C19.778 37.9827 15.582 40.2749 11.386 42.538C13.5668 38.5043 15.3792 34.2846 16.8018 29.9295C16.8664 29.7118 16.8664 29.4802 16.8018 29.2625C16.8562 29.1058 16.863 28.9366 16.8213 28.776C16.7796 28.6155 16.6912 28.4707 16.5672 28.3596C14.5469 26.7636 12.1366 25.7617 10.0136 24.2821C8.41415 23.1791 6.92202 21.93 5.55664 20.5511C10.4271 19.9074 15.1949 19.9336 20.1416 19.6249C20.4007 19.6 20.6506 19.5167 20.8724 19.3815C21.0943 19.2463 21.2821 19.0626 21.4218 18.8444C21.5614 18.6263 21.6492 18.3793 21.6783 18.1224C21.7075 17.8655 21.6773 17.6054 21.5901 17.3618C23.6632 13.424 25.5017 9.33185 27.3138 5.26882C29.4532 8.81127 30.87 12.7372 31.4835 16.823C31.6917 18.1336 33.325 18.3142 34.2574 17.6968C34.356 17.8337 34.4911 17.9406 34.6474 18.0055C39.4274 19.1228 44.2851 19.8822 49.1796 20.2773Z" fill="#E7BC3D"/>
</g>
<defs>
<clipPath id="clip0_12_46">
<rect width="56" height="50" fill="white"/>
</clipPath>
</defs>
</svg>
