<svg width="83" height="83" viewBox="0 0 83 83" fill="none" xmlns="http://www.w3.org/2000/svg">
<g clip-path="url(#clip0_12_50)">
<path d="M80.1481 13.2682C81.0968 13.6709 81.8849 14.3773 82.3888 15.2765C82.8927 16.1757 83.0839 17.2168 82.9322 18.2364C82.0049 23.268 74.5843 24.4975 69.8319 24.7994C81.3663 43.6133 55.7277 73.3874 31.806 67.3779C31.6135 73.1752 28.8688 82.51 21.9906 82.9957C20.6143 83.142 19.2333 82.7666 18.1204 81.9434C17.0076 81.1203 16.244 79.9094 15.9806 78.5503C15.8032 77.6906 15.7899 76.8051 15.9413 75.9404C15.4653 76.3687 14.9017 76.6881 14.2898 76.8765C13.6779 77.0649 13.0323 77.1177 12.398 77.0313C11.7636 76.9449 11.1556 76.7214 10.6163 76.3762C10.077 76.031 9.6194 75.5725 9.27519 75.0325C8.49314 73.8909 8.10579 72.5247 8.17213 71.1424C8.23846 69.76 8.75483 68.4372 9.6426 67.3757C3.92352 67.9554 -3.04217 65.444 1.4325 59.4717C3.27297 57.1492 5.7489 55.4122 8.5587 54.4722C11.3685 53.5323 14.3909 53.4299 17.2578 54.1776C12.1183 35.8012 32.1734 5.2395 56.6944 14.594C54.8004 9.70234 54.0852 2.95993 59.5375 0.503187C60.5494 -0.0242738 61.7214 -0.156034 62.8251 0.133524C63.9289 0.423082 64.8853 1.11323 65.5081 2.06956C66.3927 3.73364 66.6858 5.649 66.3392 7.50154C68.2113 4.75821 72.7341 2.59241 75.1879 4.40818C77.5937 6.22394 77.1563 10.1092 75.5947 12.8744C77.1129 12.4807 78.7201 12.6197 80.1481 13.2682ZM78.6413 19.8312C80.6315 18.5733 81.3073 16.1581 78.6413 15.0578C76.8344 14.5856 74.921 14.7398 73.2131 15.4952C73.1773 15.5166 73.1448 15.5432 73.1168 15.574C72.8792 15.6965 72.6079 15.7372 72.3448 15.6899C72.3299 15.6879 72.316 15.6811 72.3054 15.6703C72.1121 15.6494 71.9272 15.5798 71.7681 15.4679C71.6091 15.356 71.4811 15.2056 71.3961 15.0306C71.311 14.8557 71.2718 14.662 71.2821 14.4678C71.2923 14.2735 71.3517 14.0851 71.4547 13.9201C72.5482 12.3734 76.0911 8.08345 73.3858 6.48208C70.9123 5.03166 68.0735 9.14885 66.1008 10.0764C66.0791 10.0928 66.0545 10.1046 66.0282 10.1114C66.0019 10.1182 65.9745 10.1197 65.9477 10.1158C65.8886 10.3674 65.8493 10.6387 65.8121 10.8706C65.7427 11.1035 65.5999 11.3078 65.4051 11.4531C65.2102 11.5984 64.9737 11.6769 64.7306 11.6769C64.4876 11.6769 64.2511 11.5984 64.0562 11.4531C63.8613 11.3078 63.7186 11.1035 63.6491 10.8706C63.5337 9.18088 63.5924 7.4838 63.8241 5.80611C63.8438 2.36491 60.7317 1.49641 58.7415 4.31631C56.3357 7.73782 57.8666 11.9141 58.8967 15.5478H58.9164C62.3554 17.1181 65.4289 19.3891 67.9401 22.2157C67.9906 22.1934 68.0424 22.1744 68.0954 22.1589C71.4918 21.7323 75.6275 21.7323 78.6413 19.8202V19.8312ZM63.3014 51.6836C66.863 47.3662 68.8525 41.9666 68.9439 36.3699C67.9292 37.9902 66.4466 39.2642 64.6923 40.0234C61.215 41.5307 55.9792 41.01 53.8337 37.5097C51.8238 34.2282 53.7572 29.971 56.6944 27.9999C58.2228 26.9706 60.0211 26.4161 61.8636 26.4059C63.706 26.3958 65.5104 26.9306 67.05 27.9431C65.4467 24.663 62.9572 21.8977 59.8634 19.9603C55.5651 17.0357 50.3646 15.741 45.1972 16.3091C46.083 16.9789 46.8214 17.8239 47.3665 18.7916C47.9117 19.7592 48.252 20.8287 48.3662 21.9335C48.3743 23.637 47.7242 25.2777 46.5515 26.513C45.3789 27.7483 43.7745 28.4826 42.0734 28.5625C40.3723 28.6424 38.7061 28.0618 37.4229 26.9419C36.1396 25.822 35.3386 24.2494 35.1871 22.5527C35.2041 21.5197 35.4483 20.5031 35.9023 19.5752C28.7101 24.1216 23.3944 31.1061 20.9277 39.2511C25.3018 38.982 29.5249 44.1208 26.6468 48.4699C25.9505 49.541 24.9637 50.3915 23.8017 50.9219C22.6397 51.4523 21.3507 51.6406 20.0857 51.4649C20.6491 54.4581 22.0171 57.2411 24.0427 59.5152C26.0684 61.7893 28.6751 63.4684 31.5829 64.3721C33.3306 64.8013 35.1168 65.0542 36.9149 65.1268C36.3973 63.3951 36.5622 61.5309 37.3757 59.917C38.1891 58.3031 39.5894 57.0619 41.2889 56.4483C42.2748 56.1609 43.3101 56.0835 44.3277 56.2211C45.3454 56.3588 46.3229 56.7085 47.197 57.2477C48.0711 57.7868 48.8225 58.5034 49.4025 59.3511C49.9825 60.1988 50.3782 61.1588 50.5641 62.1691C55.5208 59.6369 59.8666 56.0551 63.2992 51.6727L63.3014 51.6836ZM64.3949 37.0722C65.6214 36.2737 66.5899 35.1365 67.183 33.7984C67.7762 32.4603 67.9686 30.9787 67.7367 29.5335C67.7321 29.4924 67.7187 29.4529 67.6974 29.4176C66.312 28.8167 64.8171 28.51 63.3071 28.5168C61.7972 28.5235 60.305 28.8437 58.9251 29.4569C56.9153 30.5507 54.713 33.456 56.0077 35.8537C57.4839 38.6429 62.0417 38.4307 64.3818 37.059L64.3949 37.0722ZM48.4143 63.1251C48.3274 63.0232 48.262 62.905 48.2219 62.7773C48.0845 62.0886 47.8062 61.4359 47.4045 60.8601C47.0028 60.2842 46.4863 59.7977 45.8876 59.4311C45.2888 59.0646 44.6207 58.8259 43.9253 58.7301C43.2299 58.6343 42.5222 58.6835 41.8466 58.8745C40.6688 59.3903 39.7098 60.3042 39.1376 61.456C38.5655 62.6079 38.4166 63.9244 38.717 65.175C42.0421 65.0653 45.3214 64.3675 48.4033 63.1141L48.4143 63.1251ZM41.8532 26.1536C42.3783 26.1621 42.8997 26.065 43.3865 25.868C43.8733 25.6709 44.3156 25.3779 44.6869 25.0065C45.0582 24.635 45.3511 24.1927 45.5481 23.7058C45.7451 23.2189 45.8422 22.6972 45.8336 22.172C45.7509 20.9915 45.2581 19.8771 44.4405 19.0218C43.5976 18.2816 42.5798 17.7689 41.4836 17.532C41.321 17.4701 41.1756 17.3704 41.0593 17.241C40.7692 17.3178 40.4849 17.415 40.2086 17.532C36.3069 19.7415 36.2675 26.4861 41.851 26.1404L41.8532 26.1536ZM28.7529 66.8572C28.7645 66.7117 28.7977 66.5686 28.8513 66.4328C28.2127 66.2009 27.5566 65.9494 26.9201 65.6606C26.7849 65.5982 26.6649 65.5072 26.5683 65.3939C26.4716 65.2806 26.4007 65.1477 26.3603 65.0043C22.6836 63.3636 19.754 60.4058 18.148 56.7131C16.3471 56.1777 14.4565 56.013 12.5902 56.2288C10.7239 56.4446 8.92066 57.0366 7.28938 57.9688C5.39542 59.0626 1.3844 62.0269 4.52716 64.2102C6.90228 65.8531 10.9023 64.4289 13.3759 63.823C13.5338 63.7882 13.6967 63.7815 13.857 63.8033C14.0813 63.6843 14.3137 63.5812 14.5525 63.4948C15.3639 63.1667 15.7313 64.2496 15.307 64.7702C15.0976 65.0363 14.8712 65.2884 14.629 65.525C14.5455 65.6907 14.4185 65.8306 14.2616 65.9297C14.2324 65.9537 14.2 65.9735 14.1654 65.9887C12.3676 67.7848 10.1653 69.6203 10.9374 72.3855C11.0228 72.8078 11.225 73.1977 11.521 73.5107C11.817 73.8237 12.195 74.0473 12.6118 74.156C13.0286 74.2648 13.4676 74.2542 13.8787 74.1257C14.2899 73.9972 14.6566 73.7558 14.9374 73.429C16.0336 72.3272 16.9886 71.0934 17.7806 69.7559C18.5526 68.6927 20.5646 69.2746 20.0791 70.7228C20.0498 70.7727 20.0242 70.8246 20.0026 70.8782C20.0508 71.0028 20.0508 71.1409 20.0026 71.2654C19.0619 73.1173 18.5591 75.1606 18.5329 77.2377C19.0556 80.6986 22.5526 80.6199 24.6194 78.5897C27.5872 75.6364 28.5385 70.8432 28.7507 66.8419L28.7529 66.8572ZM23.9786 47.853C24.5124 47.4104 24.9139 46.829 25.1389 46.1728C25.3638 45.5167 25.4035 44.8112 25.2536 44.134C24.9244 43.1442 24.2595 42.3007 23.374 41.7498C22.4884 41.1988 21.4381 40.975 20.405 41.1172C19.8887 43.2354 19.6418 45.4104 19.6701 47.5905C19.9303 47.7011 20.1645 47.8649 20.3577 48.0713C20.5509 48.2778 20.6988 48.5223 20.7921 48.7893C20.8118 48.8462 20.7921 48.9053 20.8118 48.9818C21.9748 49.0375 23.1128 48.6319 23.9786 47.853Z" fill="#222221"/>
<path d="M78.6391 15.0468C81.3051 16.1406 80.6293 18.5646 78.6391 19.8203C75.6253 21.7345 71.4897 21.7345 68.091 22.1392C68.0381 22.1547 67.9862 22.1737 67.9358 22.1961C65.4246 19.3694 62.3511 17.0983 58.9121 15.5281H58.8924C57.8689 11.8944 56.3227 7.7181 58.7371 4.29659C60.7295 1.47669 63.8394 2.34525 63.8197 5.78425C63.588 7.46194 63.5294 9.15902 63.6448 10.8487C63.7155 11.0805 63.8588 11.2834 64.0535 11.4276C64.2482 11.5718 64.484 11.6497 64.7263 11.6497C64.9686 11.6497 65.2044 11.5718 65.3991 11.4276C65.5939 11.2834 65.7371 11.0805 65.8077 10.8487C65.8449 10.6168 65.8843 10.3477 65.9434 10.094C65.9702 10.0978 65.9976 10.0963 66.0239 10.0896C66.0501 10.0828 66.0748 10.0709 66.0965 10.0546C68.0648 9.127 70.9079 5.0098 73.3815 6.46022C76.0868 8.06378 72.5504 12.3538 71.4503 13.8983C71.3474 14.0633 71.2879 14.2517 71.2777 14.4459C71.2674 14.6402 71.3066 14.8339 71.3917 15.0088C71.4767 15.1837 71.6048 15.3341 71.7638 15.446C71.9229 15.5579 72.1078 15.6276 72.3011 15.6484C72.3117 15.6592 72.3255 15.6661 72.3404 15.6681C72.6035 15.7155 72.8749 15.6748 73.1125 15.5522C73.1405 15.5213 73.1729 15.4947 73.2087 15.4734C74.9185 14.7209 76.8328 14.5705 78.6391 15.0468Z" fill="#B2D7E8"/>
<path d="M68.9374 36.3634C68.846 41.9601 66.8564 47.3597 63.2949 51.677C59.8577 56.063 55.5057 59.6465 50.5422 62.1778C50.3563 61.1675 49.9606 60.2075 49.3806 59.3598C48.8006 58.5121 48.0493 57.7956 47.1751 57.2564C46.301 56.7173 45.3235 56.3676 44.3059 56.2299C43.2882 56.0922 42.253 56.1696 41.2671 56.4571C39.5675 57.0707 38.1672 58.3119 37.3538 59.9258C36.5404 61.5397 36.3755 63.4039 36.893 65.1356C35.0949 65.0629 33.3087 64.8101 31.561 64.3808C28.6532 63.4771 26.0465 61.798 24.0209 59.5239C21.9953 57.2499 20.6273 54.4668 20.0638 51.4736C21.3289 51.6494 22.6179 51.461 23.7798 50.9306C24.9418 50.4002 25.9287 49.5497 26.6249 48.4787C29.5031 44.1296 25.2733 38.9886 20.9058 39.2599C23.3742 31.1062 28.6975 24.1153 35.9001 19.5687C35.4461 20.4966 35.2019 21.5131 35.1849 22.5461C35.3364 24.2428 36.1374 25.8154 37.4207 26.9353C38.7039 28.0552 40.3701 28.6359 42.0712 28.5559C43.7723 28.476 45.3767 27.7418 46.5494 26.5065C47.722 25.2712 48.3721 23.6304 48.364 21.927C48.2498 20.8221 47.9095 19.7526 47.3643 18.785C46.8192 17.8174 46.0808 16.9723 45.195 16.3025C50.3624 15.7344 55.5629 17.0291 59.8612 19.9537C62.955 21.8911 65.4445 24.6565 67.0478 27.9365C65.5082 26.924 63.7038 26.3893 61.8614 26.3994C60.0189 26.4095 58.2206 26.9641 56.6922 27.9934C53.755 29.9623 51.8238 34.2173 53.8315 37.5031C55.977 41.0034 61.2128 41.524 64.6902 40.0167C66.4429 39.2569 67.9238 37.983 68.9374 36.3634ZM41.1336 50.1259C42.1062 49.9923 43.0401 49.6567 43.8754 49.1407C44.7106 48.6248 45.4288 47.9398 45.9838 47.1298C46.5388 46.3198 46.9183 45.4027 47.0981 44.4373C47.2779 43.472 47.2539 42.4797 47.0277 41.5241C46.8119 40.765 46.4475 40.0562 45.9556 39.4392C45.4637 38.8221 44.8541 38.309 44.1623 37.9296C43.4705 37.5502 42.7102 37.3121 41.9255 37.2292C41.1409 37.1462 40.3477 37.22 39.5918 37.4463C38.7271 37.4467 37.8712 37.6193 37.0739 37.9541C36.2766 38.2888 35.5538 38.7789 34.9478 39.3959C34.3418 40.0129 33.8647 40.7443 33.5442 41.5477C33.2237 42.351 33.0662 43.2101 33.081 44.0749C33.1766 45.0166 33.4661 45.9284 33.9313 46.7527C34.3965 47.577 35.0274 48.296 35.7841 48.8644C36.5407 49.4328 37.4069 49.8384 38.328 50.0555C39.249 50.2726 40.205 50.2966 41.1358 50.1259H41.1336Z" fill="#B2D7E8"/>
<path d="M67.7236 29.5225C67.9554 30.9678 67.763 32.4492 67.1699 33.7873C66.5767 35.1255 65.6082 36.2627 64.3818 37.0612C62.0416 38.4328 57.4839 38.645 55.9945 35.8448C54.6998 33.4384 56.9022 30.5485 58.912 29.4481C60.2919 28.8349 61.784 28.5147 63.294 28.5079C64.8039 28.5011 66.2988 28.8079 67.6842 29.4087C67.7052 29.4434 67.7187 29.4822 67.7236 29.5225Z" fill="#F39DAA"/>
<path d="M48.2088 62.7641C48.2489 62.8918 48.3143 63.0101 48.4012 63.1119C45.3144 64.3623 42.0304 65.0556 38.7017 65.1596C38.4013 63.909 38.5502 62.5925 39.1223 61.4406C39.6945 60.2888 40.6535 59.3749 41.8313 58.8591C42.5072 58.6678 43.2152 58.6184 43.911 58.7142C44.6069 58.81 45.2753 59.0487 45.8744 59.4155C46.4734 59.7823 46.99 60.2692 47.3918 60.8455C47.7935 61.4218 48.0717 62.075 48.2088 62.7641Z" fill="#F39DAA"/>
<path d="M47.0299 41.5241C47.2561 42.4796 47.2801 43.4719 47.1003 44.4373C46.9205 45.4027 46.541 46.3198 45.986 47.1298C45.431 47.9398 44.7128 48.6247 43.8776 49.1407C43.0423 49.6567 42.1084 49.9923 41.1358 50.126C40.2049 50.297 39.2486 50.2733 38.3273 50.0563C37.406 49.8393 36.5395 49.4339 35.7826 48.8654C35.0257 48.2969 34.3947 47.5778 33.9293 46.7533C33.464 45.9288 33.1744 45.0169 33.0788 44.0749C33.064 43.2101 33.2215 42.351 33.542 41.5476C33.8625 40.7443 34.3397 40.0129 34.9457 39.3959C35.5517 38.7789 36.2744 38.2888 37.0717 37.9541C37.869 37.6194 38.725 37.4468 39.5897 37.4463C40.3458 37.2193 41.1395 37.145 41.9246 37.2277C42.7097 37.3103 43.4706 37.5483 44.1629 37.9277C44.8552 38.3072 45.4652 38.8205 45.9574 39.4379C46.4496 40.0553 46.8142 40.7645 47.0299 41.5241ZM44.6242 43.493C44.6908 42.8434 44.5675 42.1885 44.2693 41.6076C43.9711 41.0267 43.5107 40.545 42.9441 40.2207C42.3775 39.8964 41.729 39.7436 41.0772 39.7808C40.4255 39.818 39.7986 40.0436 39.2725 40.4302C39.1148 40.5615 38.9286 40.654 38.7288 40.7002C38.5289 40.7464 38.3209 40.745 38.1217 40.6963C37.9224 40.6476 37.7373 40.5528 37.5813 40.4196C37.4253 40.2864 37.3027 40.1185 37.2233 39.9293C36.6294 40.3895 36.1508 40.9818 35.8254 41.6593C35.5001 42.3367 35.3369 43.0806 35.349 43.832C35.4769 44.9348 36.0192 45.9477 36.8659 46.6655C37.7126 47.3833 38.8004 47.7522 39.909 47.6976C41.0901 47.7571 42.2473 47.3498 43.131 46.5637C44.0147 45.7775 44.5541 44.6755 44.633 43.4952L44.6242 43.493Z" fill="#222221"/>
<path d="M45.8336 22.1566C45.8422 22.6819 45.7451 23.2035 45.5481 23.6904C45.3511 24.1774 45.0582 24.6197 44.6869 24.9912C44.3156 25.3626 43.8733 25.6555 43.3865 25.8526C42.8998 26.0497 42.3783 26.1468 41.8532 26.1382C36.2697 26.4839 36.3069 19.7393 40.2107 17.5166C40.4871 17.3997 40.7714 17.3024 41.0615 17.2256C41.1778 17.355 41.3232 17.4547 41.4858 17.5166C42.5821 17.7535 43.5998 18.2663 44.4426 19.0064C45.2595 19.862 45.7515 20.9764 45.8336 22.1566Z" fill="#F39DAA"/>
<path d="M39.2835 40.4215C39.8096 40.0348 40.4365 39.8092 41.0883 39.772C41.74 39.7348 42.3885 39.8876 42.9551 40.2119C43.5217 40.5362 43.9821 41.018 44.2803 41.5988C44.5785 42.1797 44.7018 42.8347 44.6352 43.4843C44.5541 44.6611 44.0153 45.7592 43.1342 46.5432C42.2531 47.3272 41.1 47.7346 39.9221 47.678C38.8136 47.7326 37.7258 47.3636 36.8791 46.6459C36.0324 45.9281 35.4901 44.9152 35.3622 43.8124C35.3502 43.061 35.5133 42.3171 35.8386 41.6396C36.1639 40.9622 36.6425 40.3699 37.2365 39.9096C37.3148 40.0993 37.4366 40.268 37.5919 40.4021C37.7473 40.5362 37.9319 40.632 38.131 40.6818C38.33 40.7316 38.538 40.7339 38.7382 40.6887C38.9383 40.6435 39.1251 40.552 39.2835 40.4215Z" fill="#F39DAA"/>
<path d="M28.849 66.4175C28.7954 66.5533 28.7623 66.6963 28.7507 66.8419C28.532 70.8431 27.5915 75.6363 24.6171 78.5744C22.5482 80.6023 19.0512 80.6811 18.5307 77.2224C18.5569 75.1453 19.0597 73.102 20.0003 71.2501C20.0486 71.1255 20.0486 70.9874 20.0003 70.8629C20.022 70.8093 20.0476 70.7573 20.0769 70.7075C20.5602 69.2593 18.546 68.6796 17.7783 69.7406C16.9864 71.078 16.0313 72.3118 14.9351 73.4136C14.6544 73.7404 14.2876 73.9819 13.8765 74.1104C13.4653 74.239 13.0264 74.2494 12.6096 74.1407C12.1927 74.0319 11.8148 73.8084 11.5188 73.4954C11.2228 73.1823 11.0205 72.7925 10.9351 72.3701C10.1631 69.6049 12.3654 67.776 14.1631 65.9734C14.1977 65.9582 14.2301 65.9383 14.2594 65.9144C14.4163 65.8153 14.5433 65.6754 14.6268 65.5097C14.8689 65.2731 15.0954 65.0209 15.3048 64.7549C15.7291 64.2342 15.3616 63.1513 14.5502 63.4795C14.3115 63.5659 14.0791 63.6689 13.8548 63.7879C13.6938 63.7659 13.5301 63.7726 13.3714 63.8076C10.8979 64.407 6.89784 65.8378 4.52272 64.1948C1.37121 62.0072 5.39754 59.0538 7.28494 57.9534C8.91622 57.0212 10.7194 56.4293 12.5857 56.2135C14.452 55.9977 16.3427 56.1624 18.1435 56.6977C19.7496 60.3905 22.6792 63.3483 26.3559 64.989C26.3962 65.1324 26.4672 65.2652 26.5638 65.3785C26.6605 65.4918 26.7805 65.5828 26.9157 65.6453C27.5543 65.934 28.2104 66.1856 28.849 66.4175Z" fill="#B2D7E8"/>
<path d="M25.2536 44.1339C25.4035 44.8111 25.3638 45.5166 25.1389 46.1728C24.9139 46.8289 24.5124 47.4103 23.9786 47.853C23.114 48.6363 21.9748 49.046 20.8095 48.9927C20.7898 48.914 20.8095 48.8571 20.7898 48.8002C20.6966 48.5332 20.5487 48.2887 20.3555 48.0822C20.1623 47.8758 19.9281 47.712 19.668 47.6013C19.6396 45.4212 19.8865 43.2463 20.4028 41.1281C21.4349 40.9847 22.4845 41.2066 23.3703 41.7555C24.2561 42.3044 24.9223 43.1457 25.2536 44.1339Z" fill="#F39DAA"/>
</g>
<defs>
<clipPath id="clip0_12_50">
<rect width="83" height="83" fill="white"/>
</clipPath>
</defs>
</svg>
